<svg version="1" xmlns="http://www.w3.org/2000/svg" width="681.333" height="681.333" viewBox="0 0 511.000000 511.000000"><path d="M221.6 16.2c-1.5 2-2.3 2.2-10.5 1.9-10.1-.3-12.7.2-14.1 2.9-.7 1.3-.5 2.4 1 4.3l1.9 2.4-5.9.6c-15.6 1.7-24.9 13-17.1 20.8 2.5 2.4 3.7 2.9 8 2.9h5.1l-2 3.2c-2.8 4.5-2.6 10.2.2 12.2 2.8 2 5.1 2 9 0 2.2-1.1 3.3-1.3 4.1-.5 1.6 1.6 4.5 1.3 5.5-.5.8-1.5 1-1.5 1.5 0 .4.9 1.4 1.6 2.4 1.6 2 0 7.3-4.8 7.3-6.6 0-.7 1.6-2.3 3.7-3.6 4.5-2.9 13.5-7.8 14.3-7.8.3 0 1.6.9 3 2s1.7 1.8.8 1.4c-2.5-.9-6 1.4-5.6 3.7.4 2.8 9.6 7.9 10.8 6 .4-.8.5-2.5 0-4-.4-1.4-.5-3.1-.3-3.6.2-.6-1-2.4-2.7-4-1.6-1.6-3-3.5-3-4.2 0-1.5-3.6-1.8-4.5-.3-.3.5-1.5 1.5-2.7 2.1-2 1.1-2 1-.4-1.2.9-1.3 1.6-2.7 1.6-3.1 0-1.8-1.6-.6-3.9 2.8-3.4 4.9-10.8 9.8-14.5 9.6-2.9-.3-6.6 2.1-6.6 4.3 0 1.8-3.7 4.8-4.4 3.7-1-1.6.4-4.2 2.3-4.3 1.2 0 1.1-.2-.4-.8-2.4-1-3.8-.5-8.4 2.6-9.7 6.6-10.1-3-.4-9.9 3.1-2.3 4.3-3.8 4.1-5.3-.3-1.8-1.1-2-7.8-2.2-4.1 0-8.5-.2-9.7-.2-1.8-.1-2.3-.7-2.3-2.9 0-5.7 9.6-11.1 19.8-11.2 7.1 0 8.1-1.5 3.5-4.8-1.6-1.1-2.4-2.4-2-2.9.9-.8 14.6-1 18.2-.2 1.6.3 2.1-.2 2.3-2.4.4-3.2 1.9-3.4 7-.8 4.5 2.3 16.5 14.7 20.7 21.3 3.1 4.9 4.5 5.9 4.5 3.4 0-.8.5-1.8 1.1-2.2.8-.5.9.8.4 4.6-.7 5-.6 5.3 1.3 4.8 2.9-.8 3.1.8 1 7.7-1.4 4.5-1.7 6.4-.9 7.7.6 1 1.1 1.9 1.1 2 0 .2-4.6.3-10.3.3-12.5 0-17.5 1.5-18.3 5.4-.5 2.4-1 2.7-3.1 2.3-1.4-.3-3.4-1.3-4.4-2.3-3.6-3.6-21.5-4.7-26.2-1.6-2.3 1.5-2.7 2.5-2.7 6.3 0 5.5 2.2 10.2 5.2 10.6 1.5.2 2.4 1.3 3 3.4.4 1.6 1.8 4 3.1 5.2 2.1 2 2.3 2.8 1.6 6.5-2.2 11.2-.4 21 5.1 27.9 3.6 4.5 3.7 4.8.5 4.8-4.1 0-9.9 2.9-13.4 6.6-4.6 4.8-7.9 6.3-16.3 7.4-10 1.3-14.6 2.8-16.1 5.1-.9 1.5-2.3 1.9-6.4 1.9-3.9 0-5.8.5-8 2.4-1.5 1.3-4.8 2.6-7.3 3-6 .9-14.2 5.5-15.8 8.8-1.1 2.3-1 3.2.2 5.6.8 1.6 2.2 3.2 3 3.5 1.1.4 1.3 1.5.9 4.3-.8 4.9 1.1 6.3 7.4 5.6l4.6-.5-.6 3.7c-.7 4.6.5 8.1 4.2 12.1 1.6 1.6 3.1 4.1 3.4 5.5.3 1.4 1.2 5.4 2 9 .9 3.8 1.2 8.1.8 10.5-.6 3.9-.7 4-6.1 4.8-9.4 1.3-14.5 6.6-14.5 15.2 0 9.9 7.2 13.9 16.1 9 2.7-1.5 5.2-3.2 5.6-3.9.4-.6.8.2.9 1.9.1 1.6.3 4.1.4 5.5.1 1.4.7 11 1.4 21.5 2.6 43.7 3.8 53.4 8.6 75 7.8 34.4 18.3 61.1 31.7 81.1 5.6 8.2 6.9 8.3 6.3.1-.3-3.4-1.2-17.7-2-31.7-3.3-53.2-8.4-83-25.4-148.5-2.8-10.4-4.8-19.1-4.6-19.3.2-.2 1.3.2 2.5.8 2 1.1 2.1 1.9.3 6.6-.2.5.6 1.9 1.8 3 3.2 2.9 10.7 2.3 13.6-1.1 3.2-3.6 3.9-7.2 1.9-9.4-.9-1-1.6-2.5-1.6-3.4 0-1-1.5-2.7-3.2-3.8-2.8-1.7-4.4-2-10.9-1.5l-7.6.5-.7-9.9c-.3-5.4-1-11-1.5-12.4-1.3-3.2.7-8.8 2.9-8.2 1.2.4 9.6 2.1 20.8 4.2 1.8.4 2.2 1.1 2.2 4.3 0 2.1.6 5.7 1.4 7.9 1.3 3.5 1.3 4.2 0 5.3-2.2 1.8-1.7 4.5 1.4 7.1 3.3 2.8 4.3 5.9 4.7 14.3.1 3.9 1.2 8.3 3 12.5 2.1 4.8 2.7 7.9 2.6 11.8-.2 4 .4 6.4 2.1 9.5 2.2 4.1 2.3 4.9 2.4 31.7.1 24.6.3 28.4 2.2 36.3 1.2 4.9 2.2 11.6 2.2 15 0 7.7 1.2 11.9 4.7 17 2.4 3.5 2.7 4.8 2.5 10.2-.2 3.9.2 7.5 1.2 9.8 1.9 4.6 9.8 13.1 13.6 14.7 1.7.7 3 1.6 3 1.9 0 .4-.9 3.4-2 6.7-1.8 5.2-2.6 6.1-6.3 7.9-2.4 1.1-5.1 3.5-6.4 5.5-1.2 1.9-3.4 5-4.9 6.8-3.4 4.2-2.3 5.4 3.6 4 6.9-1.6 55-1.7 63.3-.1 8.3 1.6 22.2 1.7 26.5.2 2.6-.9 3.9-2.7 7.7-10.1 2.5-4.9 4.5-9.7 4.5-10.7 0-.9 1.4-5.4 3-9.9 2.2-6.2 3-10 3-15 0-12-4.8-24.2-10.5-26.9-3.2-1.5-3.7-1.5-8.9.5-5 1.9-5.8 2-8.5.6-1.6-.8-4.5-1.5-6.4-1.6-3.4-.1-3.5-.2-2.6-2.7.6-1.4 1.7-6.3 2.5-10.9.8-4.6 2.1-9.9 2.9-11.7 3.3-8 4.8-25 4.2-47.8l-.6-21.8 5.1 7.8c6.5 10 13.2 16.3 17.4 16.3 7.1 0 10.4-6.6 10.4-20.5 0-5.3.4-6.8 2.5-9.3 2.9-3.5 3.2-5.6.8-4.8-1.6.5-1.8-.1-1.5-4.8.8-11.8-4-24.5-11-29.5-2.3-1.7-9.2-6.7-15.3-11.1-6-4.4-11.6-8-12.3-8-1.1 0-1.3-.8-.9-2.9.4-1.8 4-6.2 9.9-12.2 9.9-9.9 15.1-17.8 18.6-28.4 1.1-3.3 1.8-7.2 1.5-8.7-.6-3.3-4.7-7.6-7.9-8.4-1.2-.3-3.5-2.2-5.2-4.3-4-5-8.4-6.2-26.7-7.1-15.6-.8-18.5-1.4-18.5-3.5 0-.7-1-2.5-2.2-4-2-2.6-2.5-2.7-7.7-2.2-3.1.4-7.3.1-9.4-.5-3.8-1.1-3.8-1.2-3.1-5.2.3-2.3 1.2-4.8 1.9-5.6 2.8-3.3 6.6-12.4 7.2-17 .5-4.5.8-4.9 3.8-5.4 1.8-.4 3.9-1.4 4.8-2.4 5.1-5.7 8.3-18.4 5.8-23.1-1.2-2.2-5.5-2.9-6.6-1.1-.3.5-1.5 1.5-2.7 2.1-1.7.9-1.9.8-1.3-1 .3-1.1 0-2.9-.7-4-1-1.7-.9-3.2 1-8.9 2.9-9.1 2.9-12.5-.3-15-1.4-1.1-2.5-2.7-2.5-3.7 0-3.3-2.1-5.7-4.3-5.1-1.9.4-2.7-.4-5.2-5.1-3.6-7-11.6-15.8-16.6-18.4-5.2-2.6-10.4-2.5-12.3.3zM255 76.6c0 4.8-3.3 8-9.6 9.3-10.2 2-10.4 1.9-10.4-4.3 0-4.5.3-5.4 2-5.9 1.6-.4 2.1.1 2.6 2.9.3 1.9 1 3.4 1.5 3.4s.8-.3.7-.8c-.1-.4.6-2.2 1.5-4 1.6-2.9 2.1-3.2 6.7-3.2 4.7 0 5 .1 5 2.6zM214.5 79c.3 1.1 1.3 2 2 2 .9 0 1.2.6.8 1.7-.4 1.1-.3 1.4.5.9.6-.4 1-2 .8-3.6-.4-3.2.8-4.1 1.8-1.4 2.4 6.3-2 9.9-11.5 9.2-3.2-.2-6.1-.7-6.5-1-.3-.4-.9-2.2-1.4-4.2-.6-2.7-.4-3.6.7-4 2.9-1.2 4.1-.5 4.7 2.4.8 4.4 3 3.9 2.3-.5-.5-3.3-.4-3.5 2.3-3.5 2 0 3.1.6 3.5 2zm55.3 6.2c.2 3.7-.2 5.1-2.2 7.4-1.4 1.6-2.6 2.3-2.6 1.6 0-.6.5-1.2 1-1.2.6 0 1-1.3 1-2.9 0-1.7.5-3.3 1-3.6.6-.3 1-1.5 1-2.5 0-2.8-2.5-1.5-5 2.5-2.4 3.9-2.6 8.1-.3 9.3 1.5.9 1.4 1.1-.4 2-1.1.6-2.3.9-2.6.6-1-1.1-4.2 3-5.6 7.1-2.8 8.4-9.2 20.4-13 24.3-4.8 4.9-10.9 8.2-15.1 8.2-4.1 0-11.1-6.5-13.8-12.8-1.5-3.6-2.1-8-2.5-19.5-.6-14.4-.6-14.7 1.4-14.7 1.5 0 1.9.5 1.5 1.6-.9 2.4 2.3 8.3 5.5 9.9 3.4 1.8 7.2 1.9 10.2.4 3.4-1.8 6.7-5.1 6.7-6.7 0-1.2-.6-1-2.3.6-2.9 2.7-8.6 2.9-11.7.4l-2.2-1.8 2.1-3.4c1.1-1.9 2.1-4.5 2.1-5.7 0-2.5 4.3-5.9 6-4.8.5.3 1 1.4 1 2.4s1 3.1 2.2 4.6c2.1 2.7 2.3 2.7 11.4 2.3 6.9-.3 9.8-.8 11.2-2.1 1-.9 2.3-1.7 2.9-1.7.6 0 2.7-1.6 4.7-3.6s4.1-3.4 4.8-3.2c.7.3 1.4 2.5 1.6 5zM207.2 93c.4-1.8.6-1.4.6 1.5.1 3.7 0 3.9-1.3 2.1-.8-1.1-1.5-2.9-1.4-4 .1-1.8.2-1.7.8.4l.8 2.5.5-2.5zm33.1 52.9c-1.4 2.3-4.3 6.1-6.5 8.3-2.2 2.2-3.7 4.2-3.5 4.5 1.4 1.3 10.6-5.6 14.6-11l2.8-3.7.7 9.7c1 13.5 4.1 28.6 8.2 40.7 2 5.5 3.6 11.1 3.7 12.3.1 1.1.5 1.9.8 1.7.3-.2 1.9 2.4 3.5 5.8 1.6 3.3 3.9 7.5 5.2 9.1 2.2 3.1 2.9 5.3 1.4 4.3-.5-.3-.9.1-.9.9 0 1 .4 1.2 1.2.5.9-.7 3 1.4 7.6 7.7 3.5 4.7 6.3 9 6.1 9.5-.5 1.6-7.6 10.8-8 10.3-.2-.2 1.4-2.7 3.7-5.6l4.1-5.1-3.6-4.4c-2-2.4-4-4.4-4.5-4.4s-.8-.6-.6-1.3c.1-.7-.6-1.1-1.7-.9-1.7.3-1.8.1-.7-1.1.7-.9.8-1.8.3-2.1-1.3-.8-2.2 1.7-1.5 4.3.3 1.2.1 2.1-.6 2.1-.6 0 .3 2.2 1.9 4.9 3.1 4.9 3.9 7.8 1.9 6.5-.7-.4-.9 0-.5 1.4.4 1.1.2 2.3-.4 2.7-.5.3-1 1.1-1 1.6 0 .6.4.8.9.5.5-.3 1.2.2 1.6 1.2 1.2 3.1-12.9 14.1-24.1 18.7-5 2.1-5.5 2.5-2.9 2.5 7.2 0 30.6-13.2 34.5-19.5 1.1-1.8 2.7-3.6 3.5-3.9.8-.3 1.5-1.8 1.5-3.3.1-2.4.2-2.5 1.1-1.1.7 1.3.2 3.2-2.1 7.9-6.9 13.6-21.7 25-37 28.5l-5.5 1.2 4.1.1c8.8.2 21.3-5.8 30.8-14.8l5.9-5.6-3.2 5.2c-4.4 7.1-12.9 15.5-18.3 18-12.8 6.1-32.4 2.7-44.8-7.7-5.6-4.7-8.2-9.5-7.4-13.8.4-2-.1-4.6-1.6-7.8-2.2-4.8-5-13.8-5-16.1 0-.6.8-1.4 1.8-1.7 5.3-1.8 11.2-10.1 11.2-16.1 0-4.4-5.9-26.5-8.4-31.2-.8-1.6-3.3-4.6-5.6-6.7-3.2-2.8-4-4.2-3.4-5.8 1-3.4-.6-14.8-2.1-14.8-1 0-1.5 1.6-1.7 5.2-.3 4.6-.6 5.2-2.8 5.7-1.7.4-4.6-.4-9-2.6-5.4-2.7-6.5-4.1-2.7-3.4.5.1.6-.3.3-.8s.1-2.2.9-3.7c1.9-3.6 1.9-5.2.1-8.7l-1.5-2.7h4c5.2 0 10.8-2.9 14.7-7.7 1.8-2.1 3.8-4.5 4.5-5.4.8-.9 3.6-2.4 6.1-3.4 4.5-1.7 4.9-1.7 7.6-.2 1.5.9 3.5 1.7 4.4 1.7.9 0 1.6.8 1.6 1.9 0 2.1 3.9 9.5 4.7 8.8.2-.2-.1-1.6-.7-3.1-1.4-3.8-.3-7.4 2.9-9 1.4-.8 4-2.8 5.6-4.6l3-3.1.7 3.8c.5 3 .1 4.7-1.9 8.2zm12.2-6.7c2.5 1.1 2.5 1.3 2.5 12.6 0 15.1 3 28.9 6.6 30.2 1.3.5 2.4 1.1 2.4 1.4 0 .2.3 1.3.6 2.3.5 1.7.5 1.7-.6 0-.6-.9-1.5-1.7-2-1.7-1.3 0-1.2 4.1 0 6 .9 1.3 1.2 1.2 2.2-.4 1-1.8 1.2-1.7 2.3 1.5.8 2.4.8 3.8.1 4.8-.8 1-.8 1.5.2 1.8.6.3 1.2 1.1 1.2 2 0 2.4 10 22.1 13.8 27.1 6.3 8.3 15.2 17.9 19.2 20.7 2.1 1.5 5.1 4.5 6.5 6.7 1.5 2.3 5.3 6.9 8.4 10.3 3.1 3.5 7.3 8.4 9.4 10.9 2.1 2.5 5 4.9 6.3 5.2 1.4.4 2.3 1.2 2.1 1.8-.2.6-1.4 4.3-2.6 8.3-1.2 3.9-2.8 7.4-3.6 7.7-.8.3-2.7-1.1-4.6-3.5-2.7-3.4-2.9-4.2-1.8-5.7 1.2-1.5 1.2-1.6-.2-.4-1.4 1-2.1.4-5.4-5-4.2-6.9-14.6-21.8-17.9-25.8-1.5-1.7-1.6-2-.3-1.1 2.6 2 2.2-.7-.7-4.2-1.5-1.9-2.1-3.7-1.8-5.3.2-1.4 0-2.4-.7-2.4-.6 0-1.1.6-1.1 1.2-.2 4.1-15-19.9-24.5-39.3-7.2-14.8-10.2-23.3-14-38.9-2.2-9.3-5.6-30-4.9-30 .2 0 1.5.5 2.9 1.2zm16.6 4.3c6.2 5.3 10.3 6.8 26.9 9.5 6.8 1.1 13.5 2.8 14.8 3.6l2.4 1.6-4.7 4.8c-2.6 2.6-6.9 6-9.6 7.5-4.7 2.5-4.9 2.5-4.9.6 0-4.4-5.2-4.7-10-.5-1.2 1-2.5 1.1-5.5.3-2.2-.6-5-1.3-6.2-1.6-6.4-1.5-4.2 10.7 4.7 26.6 1.9 3.5 3 6.8 3 9.3 0 2.4.8 5.1 2.1 6.9 1.1 1.6 2.3 4.6 2.5 6.6l.6 3.8-2.1-2.5c-1.1-1.4-4.5-6.9-7.6-12.2-4.9-8.5-5.5-9.9-4.3-11.7 1-1.7.8-3.2-1.1-9.1-2.2-6.9-2.7-7.5-7.8-9.5-.6-.2-3.4-16.2-4.2-23.7-1.2-12.4-.7-14.2 4.6-14.7.6 0 3.5 1.9 6.4 4.4zm-86.9 18c.9 1.9.8 3.5-.2 6.7l-1.3 4.3-.9-4c-.5-2.1-1.7-4.9-2.8-6-2.7-2.9-2.5-3.5 1-3.5 2.3 0 3.3.6 4.2 2.5zm137.8-.7c0 3.4-5.8 10.1-11 12.7-5.5 2.8-15.8 5.3-12.9 3.2 7.9-6 13.7-11.1 15.4-13.6 1.1-1.7 3.1-3.2 4.5-3.4 1.4-.2 2.8-.5 3.3-.6.4 0 .7.7.7 1.7zm5.5 6.8c-.9 5.1-6.7 10.9-13.1 13.4-6.8 2.5-10.3 2.6-4.9.1 7.7-3.5 16.5-13.3 16.5-18.5.1-2 .1-2 1.1-.3.6 1 .8 3.4.4 5.3zm-150.2-1.7c.9 1.6 1.7 3.9 1.7 5.1 0 2-.2 1.9-2.5-.9-1.5-1.6-4.2-3.6-6-4.3l-3.5-1.2 3.3-1.1c4-1.4 4.9-1.1 7 2.4zm-12-2.2c-.7.2-2.1.2-3 0-1-.3-.4-.5 1.2-.5 1.7 0 2.4.2 1.8.5zm.6 5.4c1.4.1-.1.5-3.4.9-6.6.7-7 .7-6-1 .5-.7 1.9-1 3.7-.6 1.7.3 4.2.7 5.7.7zm-21.8 5.9c-3 1.7-5.6 2.8-5.9 2.6-.5-.5 8.8-5.5 10.3-5.5.6-.1-1.4 1.3-4.4 2.9zm29.2-.7c.6.9 3 2.4 5.2 3.3 6.5 2.6 20.4 12.3 27 18.8 5.4 5.4 6.4 7.1 8.8 14.3 2.9 9 3.2 11.9 1.7 17.5-1 3.4-7.8 10.8-9.9 10.8-2.3 0-1.7-1.8 1.5-4.4 2-1.5 3.3-3 3-3.4-.3-.3 0-1.2.7-2 .6-.9-.8-.1-3.2 1.6l-4.4 3.2-2.4-2.2-2.3-2.2 2.6-2.1 2.7-2.1-2.2-6.2c-3.1-9-2.9-10.2 1.5-10.2 5.4 0 3.8-2.1-3.2-4.2-3.2-1-12.6-3.2-20.9-4.9-8.2-1.7-18.4-4.5-22.5-6.1-4.1-1.7-9.3-3.4-11.5-3.7-3.3-.5-4-1-4.3-3.1-.1-1.4.3-4.3 1.1-6.4 1.1-3.2 2.1-4.2 5.3-5.3 9.9-3.5 23.4-4 25.7-1zm108.3 1.8c2.1 2 2.4 2 5.5.5 4.3-2.1 4.9-2 4.9.8 0 1.3.7 3 1.6 3.7 1.3 1 1.5 2.8 1.2 8.9-.3 6.1-.9 8.4-3.2 12.4l-2.9 4.8-1.8-2.3c-1-1.3-1.9-4.1-1.9-6.2 0-2.1-1.3-6.9-3-10.8-3.1-7.4-4.7-13.9-3.4-13.9.4 0 1.8.9 3 2.1zm37.3 11.6c-1.8 2.7-7 9.2-11.6 14.6s-8.3 10.6-8.3 11.5c0 .9-1.5 4.8-3.3 8.6-3.5 7.2-4.7 7.4-5.3 1.1-.1-1.7-1.4-5.8-2.8-8.9-1.9-4.4-2.2-5.7-1.1-5.2 2.8 1 13.3-14.5 13.8-20.3.1-1.5 1.3-1.9 7.2-2.4 3.9-.3 8.6-1.2 10.5-2 1.9-.9 3.6-1.6 3.8-1.6.2-.1-1.2 2-2.9 4.6zm-165.9 11c0 3 4.1 6.3 7.9 6.3 2.6.1 3.2.3 2.1.9-2.5 1.5-6.9 0-9.5-3.1-2.4-2.9-3.5-7.6-1.5-6.3.6.3 1 1.3 1 2.2zm15 6.2c0 1-1.1 3.5-2.5 5.5-2.9 4.3-3.1 5-1 4.2 1.2-.4 1.5.4 1.5 4.3 0 4.1-.4 5.1-2.6 6.6-1.4.9-2.8 1.4-3.1 1.1-.3-.3-.6-2.9-.8-5.8-.1-2.9-.7-6.3-1.4-7.6-1.1-2-1-2.2 1.3-2.2s7.6-4.9 7.6-7.1c0-.5.2-.9.5-.9s.5.8.5 1.9zm142.1 20.7c3.2 3.1 5.6 6.1 5.2 6.7-.3.5-.1.7.5.3 1.6-.9 14.4 12.2 17.4 17.9 1.7 3.4 2.8 7.4 3.3 12.4l.6 7.4-3.1-2c-6.6-4.2-15.3-12.8-20.7-20.5-5.3-7.6-5.7-7.9-9.1-7.6-4.2.4-5.5-1.7-1.9-3.1 1.3-.5 2.7-1.7 3-2.5.4-.9 1.3-1.6 2.2-1.6 2.2 0 3.9-4.8 2.4-6.7-1-1.1-1.4-1.1-2-.1-.7 1-.9.9-.9-.3 0-.9-.7-2.2-1.5-2.9-1.8-1.5-4.3.3-7.4 5.5-2.9 5 .8 8.8 4.1 4.2 1.2-1.6 1.3-1.5 1.4.6.1 1.5-.6 2.6-2.1 3.3-2 1-2.6.7-4.4-1.7-1.8-2.5-2-3.2-.9-5.1 1.7-3.1 6.8-9.8 7.5-9.8.2 0 3.1 2.5 6.4 5.6zm-142.2 3.8c-.9 1-6.2 1-6.5.1-.2-.6.8-1.7 2.4-2.6 2.5-1.5 2.8-1.4 3.6.3.5 1 .7 2 .5 2.2zm1.9 3.9c.3 1.4-.5 1.7-4.2 1.7-5.3 0-6-1.5-1.3-2.9 4-1.1 5.1-.9 5.5 1.2zm39.7-1.3c-.3.5-1.6 1.5-2.8 2.1-2.1 1-2.1.9.2-1 2.5-2.3 3.6-2.7 2.6-1.1zm-23.5 7.3c2.5 1.2 4.4 2.8 4.3 3.5-.2.6.3 1.2 1.1 1.2 3.6 0 2.5 5.9-1.6 8.1-1.8 1-2.4.8-3.5-.7-.8-1.1-1.1-3-.8-4.5.5-2.1 0-3.1-2-4.8-3.2-2.4-9-3.7-10.8-2.3-.6.5-4.1 1.3-7.7 1.7-8.4.9-12.1 2.5-14 5.9-1.1 2.2-1.2 3.1-.1 4.8.9 1.4.9 1.8.1 1.3-1.6-1-3.1 1.5-2.4 3.7.3 1.1 0 1.8-.8 1.8-2.1 0-3.5-1.3-4.3-3.9-.6-2-.4-2.3.9-1.8 1.2.5 1.6 0 1.6-2.1 0-4.1 2.3-6.7 8.2-9.1 2.9-1.2 6.2-2.6 7.3-3.1 2.1-1 6.7-1.6 15-1.8 3.5-.1 6.4.5 9.5 2.1zm92.6.7c.7.8 1 2 .7 2.7-.4.9 0 1.1 1.1.7 1.7-.7 1.9 0 .8 2.8-.6 1.5-1 1.2-2.9-1.5-3.1-4.5-3.9-6.9-2.2-6.5.8.2 1.9 1 2.5 1.8zm38.7 14.9c5.3 7.2 11.9 14.9 14.7 17.3 2.7 2.4 5 4.6 5 5 0 4.3-12.9-8.8-21.6-21.9-3.1-4.5-6.9-9.4-8.6-10.8-2.4-2.1-2.6-2.5-1.1-2.5 1.3 0 5.2 4.4 11.6 12.9zm-145.3-9c0 4.3-1.7 4.7-2.2.6-.3-2.4 0-3.5.9-3.5.8 0 1.3 1.2 1.3 2.9zm-5.2 5.6c1.2 4.1 2.2 8.3 2.1 9.2-.1 2 0 2.4-3-7.9-1.2-4.2-2.6-7.5-3.1-7.2-1.4.9.4 15.8 2.1 17 1.2.9 1.3 1.5.3 2.6-.7 1-1 3.8-.7 7.9 1.7 25.2 2.8 38.7 3.9 46.9l1.2 9.5 3.8-5.9 3.8-6-2.1-10.5c-1.1-5.8-2.5-10.7-3-11-.9-.7-1.8-8.4-2.5-22.1l-.5-9.5 1.4 9c2.4 15.7 4.5 27.7 6.9 39 1.3 6 2.9 13.9 3.6 17.5 3.2 17.7 6.9 32 7 27.2 0-1.5-6.3-33.9-11.1-57.2-5.1-24.6-6-30.2-6.1-39.2-.1-6.1.2-9.1 1.2-10.3 1.3-1.5 1.7-.6 4.2 8.1 1.5 5.5 2.8 10.5 2.8 11.2 0 .7-1.2 1.7-2.7 2.3-1.8.7-2.3 1.3-1.5 1.6.8.3 1.9 0 2.5-.6 1.7-1.7 2.4-1.3 2.9 1.4.3 1.4.1 2.5-.6 2.5-.6 0-.5.4.3.9 3.8 2.4 15.6 69.8 19.6 112.1.8 9.1 2.2 23.2 3 31.5.8 8.2 1.5 15.4 1.5 16 0 .5-1.1-1.5-2.4-4.5-1.3-3-4.8-11.1-7.9-18-6.8-15.7-11.5-29.2-16.8-49-5.9-21.8-6.9-26.2-8.4-37-1.8-12-5.7-57.1-5.1-57.7.3-.3.1-1.5-.4-2.8-.7-1.7-.5-2.5.6-2.9.8-.3 1.4-1 1.4-1.7 0-.6-.6-.9-1.4-.6-1 .4-1.5-1.5-2-8.4-.4-4.9-.4-9.4-.1-9.9 1.6-2.5 3.3-.4 5.3 6.5zm-8.6-3.1l.4 3.4-2.6-1.6c-1.4-.9-2.7-1.7-2.9-1.9-.5-.4 3.1-3.2 4-3.3.4 0 .9 1.5 1.1 3.4zm25.3 3.4c-1.1 1.1-2.5-1.5-1.9-3.3.7-1.7.8-1.6 1.6.5.5 1.3.6 2.5.3 2.8zm-30.3 5.4c-.8.8-.9.4-.5-1.3.4-1.3.8-1.8 1.1-1 .2.7-.1 1.8-.6 2.3zm147.3 18.2c1.2 8.8.6 46-.9 54.9-.8 4.5-1.4 12.4-1.4 17.5.1 5-.1 9.5-.5 9.8-.3.3-1.4-.3-2.6-1.5-2.9-2.9-7.7-5.2-9.5-4.5-1.3.5-1.6-.3-1.7-4.7-.1-3-.5-6.5-1-7.9-.6-1.8-.7-1.1-.4 2.5 1.1 10.8.9 11.9-1.9 16.2-1.5 2.2-3.2 6.8-3.9 10l-1.1 5.9-4.8-3.5c-2.6-2-4.8-4.1-4.8-4.8 0-.6.7-4.7 1.5-9s1.5-13.3 1.5-20v-12.2l6-3.6c7.8-4.7 8.2-7.5.5-3.4-5.8 3.1-7.5 3.5-7.5 1.9 0-.6.8-1 1.9-1 2.1 0 4.5-2.3 3.4-3.3-.3-.4-2.2-.7-4.1-.7h-3.4l4.1-4.6c4.4-5 5-6.4 2.6-6.4-.8 0-1.5.4-1.5.8 0 1-8.7 7.2-10 7.2-1.7 0-3 3.7-3.6 10.9-.4 4-1.1 7.4-1.5 7.7-1.2.7-1.1 2.4 0 2.4.5 0 1.2-.8 1.5-1.8.3-.9 1.3-2.8 2.1-4.2l1.5-2.5.1 2.5c.1 1.4.3 3.8.4 5.5.1 1.6.5 11.3.9 21.5.6 18.6 1.9 32.6 3.1 33.8.4.4.5-2.3.4-6.1-.1-3.7 0-7 .4-7.3.3-.3 3.4 2.4 6.8 6 3.5 3.6 7 6.8 8 7.1 1 .3 3.4-.1 5.4-.9 6-2.6 12.7-3 16.3-1.2 4 2 6.1 2 8.4-.1 2.6-2.3 8.7-2.2 10.4.2 3.7 5.1 7.1 29.3 5.4 38.5-1.8 9.3-8.3 18.1-14.6 19.9-4.7 1.3-23 1.4-19.8.1 1.2-.5 3.5-2.7 5-4.9 1.6-2.2 3.5-4.1 4.2-4.1.7 0 1.2-1.5 1.2-3.9 0-3.8 0-3.8 4.8-4.5 9.2-1.2 9.3-4.4.1-6.7-3.3-.9-4.9-1.8-4.9-2.9 0-2.9-2.6-5.2-6.8-6-2.3-.4-3.9-.3-3.6.1.5.9-2.4 1.4-6.1 1-1.1-.1-2.7-.9-3.5-1.8-1.4-1.4-1.3-1.5.5-.8 1.1.4 3.4.9 5 1.1 2.5.3 2.3.1-1-1-2.8-.9-5.6-1.1-9-.5-8 1.3-8.9 1.1-10.7-1.9-2.5-4.3-13.5-15.8-17.2-18.1-2.8-1.8-7.8-3.3-17.7-5.5-1.5-.3-3.8-2.2-5.4-4.6-2.4-3.5-2.9-5.5-3.6-13.9-.4-5.4-1.5-12.3-2.4-15.2-1.6-5.3-2-11.7-2.9-42.6l-.4-15.3 4.3 3c12.7 8.7 32.6 11.6 43.1 6.2 7.4-3.8 26.6-26 29-33.5.6-2 .7-2 2.9.7 1.3 1.6 2.6 5 3 8zm-11 81.8c2.9 1.3 2.9 2.4-.8 14-1.4 4.6-2.6 6.8-4 7.2-1.4.3-1.7.1-1.2-1.2.3-.9 1.1-6 1.8-11.4.6-5.4 1.2-9.8 1.4-9.8.1 0 1.4.5 2.8 1.2zm6.9 6.3c1.3 2 1.4 3.3.5 7.4-.9 4.4-1.3 4.9-4 5.3-1.9.3-2.8.1-2.5-.6.2-.6 1.2-4.1 2.2-7.9 1-3.7 1.9-6.7 2-6.7.1 0 .9 1.1 1.8 2.5zm-15.2 8.5c-.4 2.5-1.2 4.3-1.7 4-1.1-.6-1-1.5.8-8 1.4-5.4 2.1-2.6.9 4zm-44.7 21.2c.6 2.6 2.6 7.1 4.3 9.9l3.2 5-2.7-1.9c-6.3-4.5-9.3-9.5-9.3-15.3 0-4.9 3.1-3.3 4.5 2.3zm6.5-1.2c1.1 1.1 2 2.4 2 2.9s3.2 4.1 7.2 8l7.1 7.1h-4.9c-4.8 0-5-.1-8.7-5.5-3-4.3-6.7-12.1-6.7-14.1 0-1.1 2.2-.2 4 1.6zm18.2 11c7.1 6.5 7.1 6.6 4 6.8-2.5.2-4-.8-8.9-5.5-3.2-3.2-6.9-7.3-8.2-9.2l-2.4-3.3 4.1 2.3c2.3 1.3 7.4 5.3 11.4 8.9zm21.6 12.8c.9.7.7 1.9-1.3 5.6-1.4 2.6-2.5 5.3-2.5 6 0 .7 1.6 3.1 3.5 5.3 1.9 2.3 3.5 4.6 3.5 5.2 0 1.9-5.3 1.2-9.6-1.3-5.2-3-13-5.6-16.5-5.6-2 0-4.8 1.7-9.6 6-6.5 5.8-16.2 10.5-18 8.7-1.2-1.3 1.7-5.8 4.9-7.5 1.7-.9 4.2-2.7 5.4-4 2.2-2.3 15.5-7.7 21.6-8.7 3.6-.7 4.4-1.2 3.5-2.2-1.3-1.2-17.4-1.6-19.3-.4-1.5.8-.3 1.1 5.6 1.1l7.5.2-8.5 2.8c-4.7 1.5-8.6 2.7-8.7 2.6-.2-.2.4-2.5 1.2-5.2l1.4-4.9 10.3-.1c7.6-.1 11.7-.6 15.8-2.1 6.3-2.3 8-2.6 9.8-1.5zm12.2 2.8c0 .8.5 2.5 1.2 3.7 1.7 3.2 1.3 8.2-.9 11.1l-2 2.5-3.4-4.6c-1.9-2.6-3.8-5.1-4.2-5.7-.5-.6-.1-2.8.7-4.9 1.4-3.3 2-3.7 5.1-3.7 2.5 0 3.5.4 3.5 1.6zm-25 21c3.9.8 7.2 1.9 7.5 2.3.2.4-5.5.8-12.8.8h-13.2l5-2.4c6-2.7 5-2.7 13.5-.7z"/><path d="M231 90.2c0 .8-.9 2.3-2 3.3-2.4 2.2-2.6 4-.4 3.1.8-.3 1.2-.2.9.4-1 1.6.7 1.1 4.2-1.3 3.4-2.3 4.2-3.7 2.1-3.7-.6 0-2-.7-3-1.7-1.5-1.4-1.8-1.4-1.8-.1zM246.6 93.8c-.4.6-.1 1.4.5 1.7 1.8 1.1-4.8 7.1-10.4 9.6-4.1 1.7-6.4 2-11.7 1.7-3.6-.3-7.5-1.1-8.7-1.9-2.7-1.6-4.3-.4-2.2 1.7 2.6 2.6 14.3 2.9 21.6.6 7.9-2.5 15-6.6 15.8-9.2.4-1.2 1.2-1.7 2.3-1.3 1.5.5 1.5.4.2-1-1.9-2-6.6-3.2-7.4-1.9zM221.6 114.2c-2 2.8-2 5.8-.1 5.8.8 0 1.5.7 1.5 1.5s.4 1.5.8 1.5.8-2.5.8-5.5c-.1-6-.7-6.7-3-3.3zM237.3 139.7c-1.3.8-2.3 1.9-2.3 2.4 0 1.7 3.9.9 5-1 1.8-3.6 1-4-2.7-1.4zM188.7 172.2l-2.4 2.2 2.5 2.3c1.4 1.3 3.6 2.3 4.8 2.3 2 0 2.4-.5 2.4-2.9 0-1.6.3-3.6.6-4.5 1-2.5-4.9-2-7.9.6zM256 202.9c0 .6.4 1.3 1 1.6.6.3.7-.1.4-.9-.7-1.8-1.4-2.1-1.4-.7zM264.1 218.6c0 1.1.3 1.4.6.6.3-.7.2-1.6-.1-1.9-.3-.4-.6.2-.5 1.3zM266.3 224.6c0 .7.9 1.4 1.9 1.4 1 0 1.8-.2 1.8-.5 0-.2-.8-.9-1.8-1.4-1.4-.8-1.9-.6-1.9.5zM219.2 233.3c-.7 1.9-2.9 5.1-5 7-3.4 3.1-6.2 6.8-6.2 8.3 0 .3 1.3.3 2.9-.1 1.6-.3 3.2-.2 3.5.4 1 1.6 3.2.3 3.3-1.9.1-1.1-.2-1.8-.8-1.5-.5.4-.9-.1-.9-1 0-.8.6-1.8 1.4-2.1 1.6-.6 4-8.2 3.4-10.9-.2-1.2-.7-.7-1.6 1.8zM268.6 232.3c.3 1 .9 1.5 1.2 1.2.3-.3 0-1.1-.7-1.8-1-.9-1.1-.8-.5.6zM268.5 236.1c-.4.6-.4 1.3-.1 1.6.3.4.6.1.6-.6s.5-.9 1-.6c.6.3 1 .1 1-.4 0-1.4-1.7-1.4-2.5 0z"/><path d="M221 241c0 1.2-.7 2-1.7 2-1.4 0-1.4.3-.5 1.2 1 1 1.5 1 2.2-.2 1-1.6 1.3-5 .5-5-.3 0-.5.9-.5 2zM271.5 245c-.3.5-.1 1 .4 1 .6 0 1.1-.5 1.1-1 0-.6-.2-1-.4-1-.3 0-.8.4-1.1 1zM211.6 250.5c-1.1.8-1.5 1.5-.9 1.5s1.6-.7 2.3-1.5c1.6-1.9 1.1-1.9-1.4 0zM270.4 259.2l-1.9 2.3 2.3-1.9c2.1-1.8 2.7-2.6 1.9-2.6-.2 0-1.2 1-2.3 2.2zM282.6 261.7c-2.3 2.6-3.5 4.8-3 5.3.6.6 2.3-1.1 4.3-4 1.9-2.8 3.2-5.2 3-5.4-.2-.2-2.1 1.6-4.3 4.1zM306 262.4c0 .2.8 1 1.8 1.7 1.5 1.3 1.6 1.2.3-.4s-2.1-2.1-2.1-1.3zM310 267.4c0 .4 1.4 2.1 3.1 3.9 1.9 2 2.7 2.4 2.1 1.2-1.1-2.2-5.2-6.2-5.2-5.1zM316 275.4c0 .2.8 1 1.8 1.7 1.5 1.3 1.6 1.2.3-.4s-2.1-2.1-2.1-1.3zM317.9 280.7c-1.2 1.6-1.2 1.7.2.6 1.3-1.1 1.9-.8 3.8 1.7 1.2 1.7 1.9 3.6 1.5 4.2-.4.6-.3.8.4.4.6-.3 1.5.2 2.1 1.1.6 1 1.1 1.4 1.1.9 0-.8-6.9-10.6-7.5-10.6-.1 0-.9.8-1.6 1.7zM271.5 165c.3.5 1.1 1 1.7 1 .5 0 2.3.9 3.9 2.1 1.6 1.1 2.9 1.6 2.9 1.1s1.4-1.5 3-2.2c3.9-1.6 3.3-2.3-.7-.8-2.4.9-3.8.8-7.2-.6-2.3-.9-4-1.2-3.6-.6zM288 164.6c.8.3 3.2 1.8 5.3 3.2 4.3 2.9 5.3 2.7 2.8-.5-1.1-1.2-3.4-2.4-5.7-2.7-2.1-.3-3.2-.3-2.4 0zM300 175c-1.1.8-.7.9 1.5.4 3.7-.8 4.5-1.4 1.9-1.4-1 0-2.6.5-3.4 1zM147.9 176.7c-1.3 1.5-1.2 1.5 1.1.3 3.4-1.7 3.6-2 1.8-2-.9 0-2.2.7-2.9 1.7zM142.4 180.2l-1.9 2.3 2.5-2c1.4-1.1 2.7-2.1 2.9-2.2.2-.2 0-.3-.6-.3-.5 0-1.8 1-2.9 2.2zM146.1 188.4c.2.2 1.5.9 2.9 1.5 2.4 1.1 2.4 1.1.6-.3-1.6-1.3-4.9-2.4-3.5-1.2zM313 187.4c-.6.8-2.6 1.7-4.3 1.9l-3.2.4 3.3.1c3.6.2 7.2-1.2 7.2-2.8 0-1.5-1.6-1.2-3 .4zM302.8 189.7c.7.3 1.6.2 1.9-.1.4-.3-.2-.6-1.3-.5-1.1 0-1.4.3-.6.6zM159.6 211.9c-1.2.5-1.5 1-.9 1.4.6.4 1.6 0 2.3-.8 1.4-1.7 1.3-1.7-1.4-.6zM188.5 246.9c.3.5.1 1.2-.5 1.6-.5.3-1 .1-1-.6s-.3-1-.6-.6c-.4.3-.4 1.4 0 2.3.5 1.3.9 1.4 2.1.4 1.7-1.4 2-4 .4-4-.5 0-.8.4-.4.9zM275 241c0 .5.5 1 1.1 1 .5 0 .7-.5.4-1-.3-.6-.8-1-1.1-1-.2 0-.4.4-.4 1zM172.6 333.6c-2 3-3.4 5.9-3.1 6.5.7 1 2.8-1.3 6.3-7.3 3.6-5.9.8-5.3-3.2.8zM175.1 343.6c-3.3 5.5-3.5 8.4-1.1 13.4 1.9 4 3.3 8.8 3.2 11.2-.1 1.6 0 2.8.2 2.8 1 0 5.6-13.4 4.9-13.9-.5-.3-1.5-2.6-2.2-5.1-1.1-3.6-1.5-4.1-2.1-2.6-.6 1.8-.7 1.8-1.3-.5-.4-1.3-.2-2.5.3-2.7.5-.2.7-.9.4-1.7-.3-.7 0-2.3.6-3.5 2.5-4.6.2-2.6-2.9 2.6zM185.5 363.5c1.4 9 1.4 11.1.2 6.2l-1.2-4.8-2.8 6.4-2.8 6.4 4.9 13.9c5.1 14.6 13.3 34.6 13.9 34 .2-.2-.1-2.1-.6-4.2-.5-2.2-1.2-5-1.6-6.4l-.6-2.5 1.1 2.4c.6 1.3 1.2 2.2 1.5 2 .5-.6-5.8-31.3-8.4-40.9-1.1-4.1-2.1-8.9-2.1-10.5 0-1.7-.5-3.7-1.1-4.5-.8-1.1-.9-.5-.4 2.5zm2.2 13.7c-.3.8-.6.5-.6-.6-.1-1.1.2-1.7.5-1.3.3.3.4 1.2.1 1.9zm1 5c-.3.7-.5.2-.5-1.2s.2-1.9.5-1.3c.2.7.2 1.9 0 2.5zm5.7 26.8c.3 1.9-.5-.6-1.9-5.5-1.3-5-2.6-11.5-2.9-14.5-.4-3.7.2-1.8 1.8 5.5 1.3 6 2.7 12.6 3 14.5zM293.7 269.7c.4 1 .2 1.4-.4 1-1-.6-5.7 6-6.3 8.8-.1.5-.7 1.7-1.4 2.6-1.6 2.2-16.6 16.1-19.4 17.9l-2.3 1.5h2.8c1.5 0 3.4-.6 4.1-1.5 1.2-1.3 1.2-1.3.6 0-.4.9-.3 1.2.2.7s.9-1.4.9-2c.1-.7.7-1.1 1.4-.9.7.1 1-.2.6-.8-.3-.5 0-1 .7-1s1.8-1 2.3-2.3c.6-1.2 1.7-2.2 2.5-2.2s2.6-1.4 4-3c1.4-1.7 2.7-3.2 3-3.5 1.8-1.6 4.8-6.8 4.3-7.4-.3-.3-.1-.6.5-.6s1.4 1 1.7 2.2c.6 1.5.1 2.6-1.6 4-2.1 1.6-2.1 1.9-.5 1.6 1.8-.3 3-1.7 3.9-4.8.6-2.2.3-3.5-.7-3.2-.5.2-.4-.3.2-1.1 1.3-1.5.6-7.7-.9-7.7-.5 0-.5.7-.2 1.7zm1.3 2.8c0 .1-.7.8-1.5 1.5-1.3 1-1.5.9-1.5-.8 0-1.5.5-2 1.5-1.6.8.4 1.5.7 1.5.9zM296.2 289c0 1.4.2 1.9.5 1.2.2-.6.2-1.8 0-2.5-.3-.6-.5-.1-.5 1.3zM293 291.7c.1 1.9 1.8 3.3 3.4 2.7 1.5-.6 1.5-.7-.1-2-2-1.5-3.3-1.8-3.3-.7zM296 300.1c0 .5.5.7 1 .4.6-.3 1-.8 1-1.1 0-.2-.4-.4-1-.4-.5 0-1 .5-1 1.1zM262 303c.7.4-.5 1.6-3.2 3-6.4 3.3-19.6 3.1-22.2-.5-1.2-1.6-1.3-1.7-1.3 0 0 2.2 3 3.3 11.2 4.1 6.5.7 14.5-.8 14.5-2.8 0-.4.5-.8 1-.8.6 0 1.9-.8 3-1.8 1.8-1.6 1.7-1.7-1.2-1.8-1.6-.1-2.4.2-1.8.6zM295.1 303.6c0 1.1.3 1.4.6.6.3-.7.2-1.6-.1-1.9-.3-.4-.6.2-.5 1.3zM270.9 322.8l-2.7 1.6.2 18.1c.1 16.1-.1 18.3-1.6 19.9-1 1-1.8 2.5-1.8 3.3 0 .9.3 1.3.6 1 .4-.4 2 .5 3.7 1.9l3 2.6 1.7-5.5c1-3.1 2.7-7 3.8-8.9 1.8-2.9 2-4.6 1.8-13.8-.4-10.9-2.8-22.1-4.9-21.9-.7 0-2.4.8-3.8 1.7zm-1.9 40.6c0 .2-.7.7-1.6 1-.8.3-1.2.2-.9-.4.6-1 2.5-1.4 2.5-.6zM299.1 403.2c0 1.1-.9 1.8-2.1 1.8-1.3 0-2 .7-2 2 0 1.1.5 2 1 2 .6 0 3 1.8 5.4 4 2.4 2.3 6.5 5.1 9 6.4l4.6 2.3-.1-2.1c-.1-2.5-1.7-7.6-1.8-6-.1 1.5-6.2.5-8.3-1.4-1-.8-1.8-2.3-1.8-3.4 0-1-.6-1.8-1.4-1.8-.8 0-1.7-1.2-1.9-2.8-.2-1.5-.5-1.9-.6-1zm3.2 6.7c.3 1.4.1 1.8-.9 1.4-1.5-.6-1.8-1.6-.7-2.6.9-1 1-.9 1.6 1.2z"/><path d="M309.1 410.6c0 1.1.3 1.4.6.6.3-.7.2-1.6-.1-1.9-.3-.4-.6.2-.5 1.3zM305.3 426.7c-1.3.2-2.3.7-2.4 1.1 0 .4-.2 1.9-.4 3.4-.5 3.6.4 3.5 3.5-.2 1.4-1.7 3-3 3.7-3 .6 0 1.5-.5 1.8-1 .6-1-1.9-1.1-6.2-.3zM297.9 436.7c-1.3 1.6-1.2 1.7.4.4.9-.7 1.7-1.5 1.7-1.7 0-.8-.8-.3-2.1 1.3zM302.5 442l-4 .7 3.5.1c1.9.1 4.2-.3 5-.8 1.6-1.1 1.4-1.1-4.5 0zM249.4 407.5c1.1.8 2.7 1.5 3.5 1.5 1-.1.7-.6-.9-1.5-3.3-1.9-5-1.8-2.6 0zM270.1 418.5l-7.5 2.2 3.9 1.3 3.8 1.3-2.9 1.5c-2.7 1.4-2.7 1.6-.9 2.3 1.1.4 2.7.8 3.5.8 1-.1 1.1-.2.3-.6-1.5-.5-1.7-2.3-.4-2.3.5 0 1.6.6 2.4 1.4.7.8 1.8 1.1 2.4.8 1.6-1.1 5.4-9.2 4.8-10.2-.7-1.2-.3-1.3-9.4 1.5zM257.1 440.1c-4.4 1.3-3.7 1.6 2.3 1.1 3.3-.3 4.4-.7 3.5-1.3-1.6-1-1.4-1-5.8.2zM217.1 33.4c.4.5 5 1.3 7.7 1.5 2.9.2.9 2.1-2.9 2.7-2.2.4-5 1.4-6.1 2.4-1.9 1.5-2.5 1.5-6.2.2-2.3-.8-6.6-1.6-9.7-1.9-4.7-.5-5.6-.3-5.6 1.1 0 1.1.4 1.3 1.1.6 2.1-2.1 4.6-1.1 5.3 2.1.3 1.7 1.2 3.3 2 3.6.9.4 1.1.8.4 1.2-.5.4.5 1.1 2.4 1.7 2.6.8 3.2.8 2.8-.3-.3-.7.2-1.3 1-1.3 2 0 3.1 1.7 1.6 2.6-.8.4-.7.9.2 1.5 1 .6.4 1.2-2.1 2.4l-3.5 1.6 3.5-.6c2.6-.5 3.1-.4 2 .4-1.2.8-.5 1.1 2.6 1.1 2.9 0 5.2-.8 8.1-2.9 4.5-3.2 10.6-10.5 9.6-11.5-.3-.3.1-.6 1-.6s1.9.4 2.2 1c.3.5.2 1-.2 1-.5 0-.9.9-.9 1.9 0 1.5.3 1.7 1.3.9.7-.5 2.4-.7 3.8-.4 4.1 1 2.8-1-2.2-3.5-2.7-1.3-5.7-3.4-6.8-4.5-2.8-3-5.8-4.4-9.6-4.4-1.8 0-3 .2-2.8.4zm3.4 8.2c-.8.9-1.5 2-1.5 2.5s-.5.9-1.1.9c-.5 0-.7-.5-.4-1 .3-.6.1-1-.6-1-.6 0-.1-.9 1.2-1.9 2.7-2.2 4.7-1.7 2.4.5zm-9.5.4c1.3.8 1.3 1-.2 1-.9 0-2-.5-2.3-1-.8-1.3.5-1.3 2.5 0zM241.7 46.3c-.4 1 1.3 2.5 5.6 4.9 4 2.2 6.2 4 6.1 5.1-.1 1.3.2 1.4 1.6.7.9-.5 2.1-.6 2.6-.2.5.4 0-.3-1-1.6-1.1-1.2-4.3-3.4-7.3-4.8-2.9-1.5-5.7-3.3-6.2-4.1-.7-1.3-.9-1.3-1.4 0zM247.8 55.6c-.3.5.7 3.6 2.2 6.9 1.6 3.3 2.9 5.4 2.9 4.7.1-.7.6-1 1.2-.6.8.5.8.1 0-1.4-.6-1.2-1.5-2.4-2.1-2.7-.5-.3-.7-1.2-.4-1.9.6-1.5-3-6.3-3.8-5z"/></svg>