 <svg version="1.0" xmlns="http://www.w3.org/2000/svg" width="700.000000pt" height="437.000000pt" viewBox="0 0 700.000000 437.000000" preserveAspectRatio="xMidYMid meet">
<metadata>
Created by potrace 1.12, written by Peter Selinger 2001-2015
</metadata>
<g transform="translate(0.000000,437.000000) scale(0.100000,-0.100000)" fill="white" stroke="none">
<path d="M994 4330 c-23 -10 -74 -27 -115 -39 -40 -11 -76 -24 -81 -29 -5 -5
-3 -32 3 -62 10 -46 9 -55 -5 -65 -24 -18 -21 -26 37 -85 29 -30 56 -63 60
-72 10 -27 -29 -42 -97 -39 -61 2 -102 18 -125 45 -8 9 -22 16 -32 16 -13 0
-19 7 -19 24 0 43 28 54 81 32 12 -5 20 1 28 21 6 15 16 36 23 46 11 15 7 23
-36 62 -26 25 -53 45 -58 45 -5 0 -25 -12 -44 -27 -33 -24 -38 -25 -82 -15
-69 15 -74 7 -66 -97 6 -86 6 -87 -20 -104 -14 -10 -26 -24 -26 -32 0 -25 51
-63 137 -102 85 -39 98 -54 63 -73 -11 -6 -20 -16 -20 -23 0 -18 118 -128 162
-151 l35 -19 81 46 c45 26 86 47 92 47 6 0 25 -7 42 -16 30 -16 34 -15 73 6
39 21 46 22 105 12 53 -10 68 -9 86 3 22 14 25 12 78 -47 31 -34 56 -69 56
-78 0 -40 -58 -58 -244 -75 -58 -6 -73 -11 -95 -35 -43 -47 -150 -120 -175
-120 -13 0 -29 7 -36 15 -19 23 -40 18 -51 -13 -5 -15 -22 -36 -38 -45 -28
-16 -31 -16 -85 9 -65 30 -81 27 -89 -13 -3 -15 -11 -53 -19 -83 -12 -48 -17
-55 -38 -55 -17 0 -26 -6 -28 -20 -6 -29 -19 -40 -35 -27 -7 6 -55 28 -107 47
-92 36 -93 36 -112 17 -28 -28 -25 -78 15 -220 15 -57 45 -101 33 -49 -3 15
-9 48 -12 75 -3 26 -12 63 -19 83 -11 29 -11 40 -2 52 11 14 22 13 113 -7 71
-16 111 -30 137 -50 21 -16 41 -26 45 -22 4 4 0 11 -8 16 -8 5 -24 15 -35 23
-19 15 -19 16 -1 36 11 12 26 21 35 21 18 0 61 91 61 128 0 12 7 25 15 28 20
8 79 -13 100 -36 25 -27 38 -25 91 15 25 19 56 35 68 35 13 0 39 15 58 33 61
58 143 94 243 106 84 11 277 61 318 83 34 18 10 19 -42 2 -29 -9 -54 -14 -58
-11 -14 14 10 40 59 62 48 22 47 32 -1 25 -10 -1 -12 6 -7 27 l6 28 -24 -29
c-13 -16 -28 -26 -33 -23 -5 3 -19 26 -31 50 -12 25 -38 57 -57 71 -34 26 -47
32 -43 19 4 -10 -5 -13 -33 -13 -13 0 -23 10 -30 30 -6 16 -15 28 -20 25 -4
-3 -5 -13 -2 -22 6 -16 -2 -16 -52 -3 -31 8 -67 -3 -95 -30 -30 -28 -33 -29
-75 -18 -37 10 -50 9 -102 -10 -73 -27 -78 -27 -112 -3 -15 11 -39 23 -53 26
-15 4 -34 15 -44 26 -16 18 -16 21 2 55 29 55 43 62 119 66 56 2 70 0 70 -12
0 -9 -23 -22 -59 -35 -33 -11 -62 -26 -64 -33 -3 -11 0 -12 18 -2 29 16 38 5
15 -20 -10 -11 -15 -20 -10 -20 4 0 14 8 21 18 12 16 14 16 26 1 8 -11 34 -19
68 -22 53 -4 54 -4 32 13 -12 10 -22 20 -22 23 0 2 19 9 41 16 30 9 45 9 52 2
6 -6 15 -11 19 -11 13 0 9 27 -6 39 -11 9 -31 4 -89 -23 -42 -19 -78 -32 -81
-28 -12 12 -5 23 35 47 39 26 40 27 25 50 -19 29 -21 51 -3 53 6 1 32 5 57 7
81 10 110 16 110 23 0 4 -24 8 -52 7 -49 0 -53 2 -68 32 -8 18 -33 53 -54 79
-35 42 -39 52 -41 110 l-2 64 36 9 c205 54 198 54 267 -10 30 -29 54 -56 54
-60 0 -5 -18 -22 -40 -38 -40 -29 -42 -29 -71 -13 -22 12 -28 22 -25 37 7 27
-4 95 -15 95 -5 0 -6 -12 -3 -26 6 -23 4 -25 -15 -19 -12 4 -21 2 -21 -4 0 -7
-24 -11 -59 -11 -33 0 -63 -4 -66 -10 -4 -6 7 -10 24 -10 38 0 39 -8 4 -38
l-28 -24 38 22 37 22 0 -36 c0 -30 5 -38 25 -46 14 -5 29 -20 34 -33 7 -17 25
-29 60 -41 72 -23 82 -22 75 13 -4 16 -1 32 5 35 6 4 9 11 6 16 -3 5 11 32 30
59 26 35 35 57 30 71 -10 32 21 25 77 -17 71 -54 82 -75 63 -113 -19 -36 -35
-31 -69 20 -19 29 -30 37 -46 33 -23 -6 -24 -7 -8 -32 10 -16 5 -26 -27 -65
-37 -45 -39 -62 -4 -30 16 15 20 14 51 -9 18 -14 52 -28 75 -32 47 -7 59 -18
65 -55 2 -18 9 -24 23 -23 27 3 175 -30 175 -39 0 -4 -10 -8 -22 -10 -12 -2
-23 -9 -26 -15 -2 -9 10 -7 38 6 46 21 89 16 166 -18 35 -16 42 -24 48 -57 5
-33 12 -42 47 -58 24 -11 54 -37 74 -65 58 -79 60 -85 41 -126 -9 -19 -14 -39
-11 -44 3 -5 0 -30 -7 -54 -10 -37 -15 -43 -32 -39 -20 4 -20 4 2 -12 18 -14
21 -24 16 -54 -8 -55 21 -268 41 -299 l17 -26 -60 -58 c-58 -56 -63 -65 -96
-169 -42 -127 -45 -165 -16 -180 29 -16 25 -50 -11 -79 -17 -15 -34 -41 -38
-61 -5 -19 -12 -44 -17 -55 -7 -19 -7 -19 13 -2 20 17 21 17 27 -8 5 -18 -1
-38 -18 -68 -13 -23 -22 -48 -19 -55 3 -7 -19 -37 -48 -68 -65 -66 -76 -84
-51 -77 10 2 24 -3 31 -11 8 -9 18 -16 24 -16 6 0 0 11 -12 24 l-23 25 53 60
c30 33 56 57 58 55 3 -2 -5 -14 -17 -27 -21 -22 -29 -47 -16 -47 14 0 144 123
144 136 0 21 60 82 67 66 5 -12 55 -42 70 -42 4 0 -7 13 -26 29 l-34 28 28 42
c15 23 50 58 76 77 27 20 49 42 49 50 0 23 31 108 45 123 17 17 75 5 81 -17 3
-10 12 -30 20 -45 7 -16 14 -41 14 -56 0 -15 5 -32 12 -39 8 -8 5 -20 -15 -46
-25 -32 -34 -56 -22 -56 13 0 103 98 110 119 4 12 34 51 67 87 48 51 66 64 90
64 l29 0 -20 -26 c-11 -15 -18 -30 -16 -35 10 -16 -44 -106 -77 -129 -27 -18
-29 -21 -10 -17 15 4 22 1 19 -6 -2 -7 -23 -14 -47 -17 -55 -6 -67 -30 -15
-30 42 0 39 -15 -6 -24 -22 -4 -34 -14 -42 -36 -8 -21 -18 -30 -32 -29 -42 3
-45 0 -45 -45 0 -28 -8 -59 -21 -81 -17 -28 -20 -45 -15 -78 l6 -42 -20 24
c-13 15 -18 30 -14 40 11 22 21 202 12 207 -7 5 -16 -34 -21 -96 -3 -34 -3
-33 -21 24 -20 65 -17 127 9 179 17 35 18 37 7 37 -7 0 -24 -33 -43 -87 -11
-34 -24 -42 -32 -20 -2 6 -8 9 -12 5 -4 -4 0 -26 9 -48 11 -27 14 -54 10 -80
-6 -34 -10 -40 -30 -40 -24 0 -44 -16 -78 -65 -16 -24 -20 -25 -33 -12 -13 13
-13 18 2 41 9 14 15 31 13 38 -3 8 -12 0 -21 -18 -9 -17 -24 -34 -33 -38 -15
-6 -15 -8 0 -30 16 -25 15 -25 -45 -62 -34 -20 -87 -50 -118 -66 -31 -16 -47
-26 -36 -22 57 18 58 18 46 -4 -6 -12 -37 -41 -69 -64 -31 -23 -58 -45 -60
-50 -6 -14 -125 -104 -227 -172 -74 -49 -143 -110 -267 -233 -92 -92 -165
-169 -162 -172 2 -3 30 21 62 52 32 31 61 57 65 57 4 0 -5 -24 -20 -54 -30
-56 -127 -151 -147 -143 -23 9 -6 -48 17 -58 16 -7 22 -19 22 -43 1 -32 16
-52 41 -52 16 0 80 -73 89 -99 7 -22 53 -50 120 -71 22 -7 48 -18 57 -25 16
-10 14 -13 -20 -23 -59 -17 -169 -33 -186 -26 -10 4 -14 13 -11 23 2 9 -4 30
-15 46 -11 17 -20 44 -20 61 0 68 -65 99 -183 87 -45 -5 -66 -2 -96 13 -36 17
-40 23 -46 71 -7 54 10 108 41 134 16 13 18 47 5 67 -6 9 7 29 39 62 25 26 59
74 76 106 16 33 30 61 32 63 1 3 8 -1 14 -7 9 -9 7 -16 -5 -30 -23 -25 -23
-46 1 -33 22 12 196 201 185 201 -5 0 -41 -29 -80 -65 l-71 -65 -16 25 c-20
31 -20 32 6 38 37 10 10 22 -50 22 -45 1 -67 7 -104 30 -26 17 -48 35 -48 42
0 21 31 43 59 43 16 0 34 6 40 14 10 12 6 13 -29 9 -22 -3 -40 -3 -40 0 0 4
21 40 47 82 25 41 44 78 41 81 -3 3 -24 -20 -46 -51 -40 -55 -40 -56 -46 -28
-11 57 -8 119 9 158 12 27 18 68 18 125 1 72 -2 91 -20 115 -50 72 -60 107
-67 235 -9 152 -18 212 -31 208 -5 -2 -9 -5 -8 -8 8 -25 24 -222 19 -236 -8
-21 -29 -5 -46 36 -7 16 -16 27 -21 24 -10 -6 12 -53 38 -83 14 -18 73 -147
73 -163 0 -4 -15 -11 -32 -16 -29 -7 -34 -13 -40 -52 -4 -24 -11 -47 -15 -51
-5 -4 -35 -9 -67 -11 l-60 -3 -46 -68 c-25 -37 -58 -82 -73 -98 -32 -37 -32
-39 -9 -39 25 0 132 132 132 164 0 26 1 26 71 26 l70 0 15 36 c14 33 17 35 57
32 l42 -3 -2 -64 c-2 -60 -4 -67 -41 -105 -22 -23 -47 -55 -56 -72 -8 -18 -46
-59 -83 -93 -37 -33 -63 -61 -58 -61 6 0 47 29 92 65 46 36 85 65 88 65 14 0
2 -107 -21 -176 -29 -92 -41 -111 -105 -179 -26 -28 -50 -64 -54 -80 -6 -26
-5 -28 7 -13 7 9 18 25 25 35 10 16 12 16 12 2 1 -30 -51 -75 -96 -82 -36 -6
-42 -11 -45 -35 -2 -19 -9 -28 -25 -30 -30 -4 -29 -22 1 -22 17 0 27 8 35 29
11 26 18 29 74 35 33 3 64 11 68 17 4 7 14 -3 24 -25 17 -34 17 -38 1 -55 -11
-12 -13 -21 -7 -25 5 -4 15 3 21 14 16 30 44 7 35 -29 -4 -19 -3 -22 4 -11 21
31 22 -1 2 -43 -25 -52 -26 -70 -4 -103 9 -15 17 -45 17 -67 1 -36 4 -41 30
-48 16 -5 42 -20 57 -35 16 -15 29 -24 29 -18 0 5 14 -7 31 -26 18 -21 26 -26
20 -13 -6 12 -16 25 -21 28 -6 3 -10 11 -10 17 0 15 109 4 146 -15 16 -8 34
-29 41 -46 6 -17 8 -29 3 -26 -5 3 -19 1 -33 -4 -29 -11 -42 -4 -26 16 9 10 8
17 -1 28 -7 8 -15 15 -19 15 -8 0 -8 -86 1 -95 3 -3 20 1 38 10 30 15 33 15
46 -2 7 -10 14 -26 14 -35 0 -10 10 -24 23 -33 20 -13 23 -21 18 -57 l-6 -43
-61 0 c-53 0 -60 -2 -56 -17 3 -14 -2 -18 -26 -18 -23 0 -36 8 -52 30 -12 16
-28 30 -36 30 -20 0 -18 -10 8 -37 l22 -24 -79 3 c-64 2 -80 6 -83 19 -2 11 8
20 27 27 45 16 38 22 -21 19 -51 -3 -53 -4 -51 -30 1 -23 -2 -27 -25 -27 -20
0 -49 20 -107 75 -43 41 -82 72 -85 69 -3 -3 24 -33 58 -66 35 -32 61 -62 58
-65 -3 -4 -23 -1 -43 5 -25 8 -41 8 -49 1 -7 -6 -28 -9 -46 -7 l-33 3 1 55 c1
74 22 229 35 260 10 24 11 24 24 6 8 -10 19 -40 26 -67 7 -27 17 -49 22 -49
15 0 0 59 -33 129 -17 35 -30 67 -30 73 0 5 -35 62 -79 126 -151 225 -171 262
-136 248 8 -3 15 -1 15 4 0 16 -23 60 -31 60 -5 0 -20 17 -33 38 -23 37 -23
41 -10 92 l14 53 -41 44 c-26 28 -38 50 -35 61 15 48 42 200 42 233 -1 22 2
39 7 39 8 0 10 -11 7 -61 -1 -22 9 -57 23 -85 14 -27 30 -68 37 -91 7 -24 17
-43 22 -43 11 0 4 25 -29 105 -26 62 -40 125 -29 125 4 0 24 -11 44 -25 38
-26 62 -32 62 -15 0 6 -5 10 -10 10 -19 0 -91 51 -97 68 -4 9 -18 32 -31 50
-24 31 -24 34 -9 70 9 20 20 60 26 87 6 28 17 73 26 100 8 28 22 109 30 180 8
72 18 137 21 145 4 8 5 44 4 79 l-1 64 30 -6 c17 -4 31 -3 31 1 0 12 -65 72
-78 72 -24 0 -31 -36 -18 -94 19 -82 13 -100 -35 -93 -41 5 -59 -7 -40 -26 18
-18 13 -27 -14 -27 -32 0 -43 -25 -21 -49 9 -10 16 -26 16 -37 0 -11 13 -41
29 -66 l30 -47 -61 -100 c-35 -60 -62 -117 -65 -141 -5 -35 -2 -43 26 -67 26
-23 31 -34 31 -74 0 -26 -12 -77 -26 -115 -41 -108 -56 -163 -49 -184 3 -11
29 -39 57 -64 l50 -44 -26 -44 c-14 -25 -26 -48 -26 -52 0 -5 23 -29 51 -55
46 -42 49 -49 40 -73 -8 -21 -4 -35 18 -79 16 -30 31 -66 35 -82 4 -15 43 -71
87 -124 80 -95 81 -96 81 -152 0 -52 -13 -96 -72 -238 -19 -46 -70 -12 -70 47
0 10 -4 22 -10 25 -5 3 -10 1 -10 -4 0 -6 -6 -11 -14 -11 -8 0 -16 -7 -20 -15
-3 -9 -19 -15 -41 -15 -19 0 -35 -5 -35 -11 0 -8 16 -10 49 -5 43 6 51 4 60
-13 6 -11 11 -29 11 -41 0 -17 4 -20 17 -15 50 21 55 19 51 -16 -3 -30 -7 -35
-41 -41 -20 -5 -54 -11 -75 -15 -20 -5 -35 -12 -34 -18 2 -5 9 -8 15 -6 7 2
30 5 52 8 22 2 53 9 68 15 20 8 31 8 40 -1 6 -6 20 -11 31 -11 16 -1 14 -4
-10 -14 -17 -8 -34 -24 -37 -36 -3 -12 -15 -24 -26 -27 -12 -3 -21 -10 -21
-15 0 -17 53 1 80 27 42 39 119 62 85 25 -15 -16 -15 -22 -5 -35 17 -21 33
-19 21 2 -8 14 -2 25 27 51 l36 33 90 -22 c122 -29 118 -27 110 -41 -6 -9 -3
-9 9 1 12 9 30 11 61 7 l44 -7 -19 -56 c-11 -31 -18 -62 -15 -69 3 -7 23 -22
45 -34 54 -27 77 -61 59 -89 -10 -16 -10 -27 0 -53 10 -26 9 -36 -3 -55 -19
-28 -19 -33 0 -33 11 0 15 -11 15 -40 0 -22 5 -40 10 -40 6 0 10 18 10 40 0
22 5 40 10 40 6 0 10 -4 10 -8 0 -4 15 -16 33 -26 l32 -19 -22 22 c-13 12 -23
28 -23 36 0 8 -9 15 -20 15 -15 0 -20 7 -20 29 0 17 -5 33 -10 36 -25 16 3 92
37 101 13 4 20 10 17 15 -3 6 -14 7 -24 4 -14 -4 -32 6 -63 34 l-44 40 11 51
c10 48 11 50 43 50 30 0 36 -5 53 -45 22 -50 26 -52 69 -28 30 18 30 17 60
-11 32 -31 40 -63 19 -84 -6 -6 -8 -15 -4 -19 14 -14 38 31 32 60 -5 25 -3 27
14 22 21 -7 25 1 11 24 -6 9 -16 11 -32 6 -18 -6 -27 -2 -44 19 -18 23 -24 25
-53 17 -27 -8 -34 -7 -43 11 -9 16 -7 24 9 41 11 12 22 31 24 42 3 18 10 20
91 17 54 -2 87 0 87 7 0 5 -17 11 -37 13 l-38 3 3 45 c2 25 6 47 8 49 2 2 37
10 79 17 63 11 87 11 147 -1 80 -15 90 -13 86 18 -3 20 0 21 85 18 58 -2 87 1
87 8 0 7 -29 11 -79 11 -44 0 -83 5 -86 10 -3 6 -24 10 -46 10 -65 0 -49 21
25 32 11 2 21 9 24 17 5 16 -33 9 -80 -13 -24 -12 -29 -11 -57 14 -16 15 -32
25 -35 22 -3 -2 -26 3 -50 12 -30 12 -52 29 -67 52 -27 44 -80 85 -122 93 -24
5 -33 13 -35 31 -2 14 -9 31 -14 37 -13 16 15 63 36 63 13 0 110 130 162 217
12 19 58 65 103 101 44 37 125 107 178 156 54 49 123 105 153 124 83 54 280
204 376 287 93 82 126 97 152 71 14 -14 15 -19 3 -38 -12 -19 -9 -25 33 -67
29 -28 49 -42 55 -36 5 6 16 35 25 65 13 47 22 60 55 80 42 26 52 57 31 90
-12 19 12 46 55 60 29 10 35 19 60 93 29 85 84 202 116 249 11 14 19 29 19 32
0 3 -26 6 -57 5 l-58 0 -75 -87 c-81 -92 -117 -115 -108 -67 4 20 0 30 -18 42
-19 12 -24 24 -24 54 l0 39 -60 0 -61 0 -24 -52 c-14 -29 -25 -58 -25 -64 0
-6 -19 -24 -42 -40 -28 -20 -49 -45 -63 -79 -14 -30 -39 -63 -64 -83 -22 -18
-47 -45 -55 -60 -15 -29 -74 -77 -83 -68 -3 3 6 15 20 27 32 25 35 63 7 99
-26 34 -25 49 10 90 30 35 40 86 20 106 -6 6 4 62 29 158 33 130 42 153 67
172 71 57 67 45 60 173 -4 64 -11 148 -16 186 -23 177 -24 211 -5 243 18 29
18 33 1 87 -23 72 -56 110 -109 128 -37 12 -42 17 -45 48 -7 95 -18 102 -192
129 -196 29 -201 30 -224 56 -16 19 -35 26 -84 31 -51 5 -66 11 -78 29 -12 17
-13 27 -4 43 15 29 40 27 37 -1 -2 -21 2 -23 38 -21 43 3 70 26 81 70 5 19 -2
33 -32 65 -51 52 -117 98 -143 98 -11 0 -22 -9 -26 -20 -10 -32 -27 -23 -70
36 -37 52 -63 75 -82 73 -4 0 -27 -9 -49 -19z m-304 -169 c32 -27 33 -31 22
-56 -15 -34 -32 -28 -56 18 -18 35 -20 36 -38 20 -10 -9 -15 -19 -12 -22 4 -3
9 0 11 7 9 23 24 12 21 -15 -2 -23 -8 -28 -28 -27 -14 1 -35 5 -47 9 -15 5
-23 3 -23 -4 0 -6 9 -11 20 -11 30 0 34 -23 16 -77 -17 -48 -14 -65 6 -45 17
17 38 15 38 -3 0 -8 5 -15 11 -15 6 0 8 9 4 20 -7 23 7 27 24 6 6 -8 25 -19
41 -26 33 -14 40 -30 12 -30 -24 0 -42 -19 -42 -46 0 -13 -4 -26 -10 -29 -5
-3 -49 24 -96 61 -78 61 -85 69 -78 93 4 14 12 55 18 91 l11 65 40 3 c21 2 50
12 63 23 31 24 30 24 72 -10z m314 -7 c-7 -29 7 -44 44 -44 12 0 25 -7 29 -16
3 -9 14 -19 25 -23 15 -6 16 -9 6 -24 -12 -15 -17 -15 -51 -4 -41 15 -97 63
-97 85 0 23 20 52 36 52 11 0 13 -7 8 -26z m-799 -1463 c3 -5 1 -12 -4 -15
-12 -8 -41 3 -41 15 0 12 37 12 45 0z m-7 -93 c-2 -27 -7 -32 -23 -30 -25 5
-55 31 -55 49 0 9 13 13 41 13 39 0 40 -1 37 -32z m-8 -68 c0 -11 -2 -20 -5
-20 -2 0 -9 9 -15 20 -9 16 -8 20 5 20 8 0 15 -9 15 -20z m2111 -268 c-8 -27
-66 -141 -77 -151 -12 -11 9 64 21 79 7 8 18 34 24 58 7 24 18 42 26 42 10 0
12 -7 6 -28z m-1541 -58 c0 -9 -12 -14 -35 -14 -40 0 -45 11 -12 33 24 16 47
7 47 -19z m18 -594 c18 -11 45 -20 60 -20 44 0 52 -11 42 -53 -6 -29 -24 -53
-70 -95 -90 -82 -96 -84 -136 -39 -33 35 -41 64 -35 122 2 21 78 105 96 105 5
0 25 -9 43 -20z m637 -800 c-3 -5 -15 -10 -25 -10 -10 0 -22 5 -25 10 -4 6 7
10 25 10 18 0 29 -4 25 -10z"></path>
<path d="M5021 4328 c-5 -13 -12 -41 -15 -63 -12 -71 -15 -71 -105 -10 -46 31
-89 54 -97 51 -9 -3 -14 -21 -14 -48 0 -24 -4 -48 -8 -54 -4 -5 -37 -18 -73
-28 -53 -14 -70 -15 -92 -5 -33 15 -57 6 -57 -23 0 -19 -17 -32 -89 -70 -102
-55 -200 -136 -286 -239 -33 -39 -81 -95 -106 -123 -52 -58 -84 -114 -94 -169
-5 -25 -22 -52 -54 -85 -26 -26 -53 -56 -59 -67 l-12 -20 -15 20 c-29 37 -48
124 -42 198 7 101 66 216 142 274 39 31 55 50 55 67 0 29 32 71 68 88 42 20
41 54 -3 75 -34 16 -40 16 -105 -1 -57 -14 -72 -15 -89 -4 -19 11 -25 8 -68
-33 l-48 -45 -160 9 c-129 7 -174 6 -235 -6 -170 -35 -263 -86 -367 -206 -131
-151 -178 -247 -189 -384 -3 -49 -1 -79 8 -96 19 -36 32 -31 38 15 8 53 39 95
94 124 l44 24 42 -28 c24 -15 48 -42 56 -61 16 -39 18 -139 5 -235 -18 -128
-24 -250 -12 -250 6 0 11 10 11 23 0 38 47 124 95 176 53 56 98 81 148 81 29
0 42 -8 76 -46 38 -43 66 -93 90 -156 17 -45 37 -34 50 27 20 91 83 145 166
145 43 0 44 -8 5 -42 -35 -30 -38 -58 -10 -83 11 -10 20 -22 20 -27 0 -4 -36
-45 -81 -90 -55 -57 -99 -92 -142 -113 -46 -23 -67 -40 -84 -70 -25 -44 -30
-94 -11 -113 18 -18 27 -15 39 14 l10 27 22 -44 c23 -46 49 -58 55 -24 2 11 8
25 13 31 11 14 68 24 74 14 3 -4 -4 -34 -16 -66 -14 -42 -23 -105 -29 -219 -6
-88 -15 -196 -20 -240 -27 -213 5 -474 85 -701 30 -84 118 -236 203 -352 40
-53 36 -29 -7 50 -22 40 -54 105 -70 144 -34 81 -100 330 -126 474 -19 111
-37 384 -28 452 5 45 7 47 33 41 22 -4 31 0 39 15 15 29 14 40 -2 18 -7 -10
-22 -17 -33 -15 -29 6 -29 51 1 163 14 54 25 109 25 122 0 12 4 25 9 28 5 4 7
-11 5 -31 -7 -53 14 -88 51 -88 23 0 32 -6 43 -30 37 -86 57 -102 91 -71 9 8
26 13 37 10 12 -3 26 1 34 11 17 20 5 32 -15 15 -13 -10 -19 -10 -33 4 -24 21
-32 20 -32 -3 0 -31 -21 -37 -42 -11 -18 23 -18 23 2 45 11 12 20 27 20 33 0
7 13 12 29 12 17 0 33 5 36 10 3 6 -3 10 -13 10 -11 0 -25 7 -32 15 -19 23
-27 18 -34 -20 -4 -19 -12 -37 -18 -41 -16 -10 -38 24 -38 58 0 39 -26 36 -34
-4 -7 -31 -8 -32 -21 -14 -23 31 -18 69 13 100 26 24 30 25 42 11 33 -40 84 5
78 71 -4 53 -23 53 -23 -1 0 -52 -16 -75 -40 -55 -8 7 -15 23 -15 36 0 34 -26
30 -39 -6 -5 -16 -14 -30 -19 -30 -12 0 -23 121 -13 135 5 5 11 24 15 40 4 17
17 40 28 52 23 25 18 53 -10 53 -10 0 -26 -8 -35 -18 -24 -26 -21 -39 3 -17
21 19 37 15 26 -7 -24 -49 -48 -75 -91 -99 -28 -15 -58 -28 -68 -28 -10 -1
-31 -14 -47 -30 -30 -29 -40 -25 -40 20 0 27 -17 23 -35 -8 -15 -27 -16 -27
-9 -3 9 35 49 76 110 110 31 17 66 49 88 79 52 70 116 114 116 79 0 -18 52
-68 71 -68 18 0 73 39 65 47 -3 3 -15 -2 -28 -11 -42 -30 -69 -18 -82 38 -7
28 -6 29 28 23 25 -4 38 -1 50 12 24 26 19 33 -11 18 -67 -33 -111 20 -78 92
20 45 29 49 58 24 18 -17 20 -16 50 17 18 19 40 46 49 60 l17 25 0 -23 c1 -33
-26 -93 -57 -126 -21 -22 -22 -26 -7 -18 30 15 72 63 84 95 14 37 14 110 0
141 -7 15 -22 26 -37 28 l-24 3 21 25 22 25 15 -22 c19 -27 37 -29 55 -7 12
15 11 16 -9 9 -22 -6 -23 -5 -12 17 7 12 19 31 28 41 9 10 10 17 4 17 -6 0
-14 -4 -17 -10 -9 -15 -35 -12 -35 3 0 14 59 100 72 105 5 2 8 10 8 17 0 8 22
58 50 112 40 80 67 117 147 201 54 56 103 102 110 102 17 0 27 -74 13 -100 -7
-13 -15 -43 -19 -69 -8 -57 -29 -63 -98 -30 -59 28 -80 18 -74 -37 1 -21 -3
-80 -10 -131 l-13 -93 -38 6 c-45 8 -47 0 -22 -75 8 -26 14 -70 12 -97 -3 -44
-5 -49 -25 -46 -17 2 -24 -3 -29 -23 -10 -40 10 -185 26 -185 4 0 5 31 2 69
-5 79 0 103 23 95 30 -12 11 -181 -31 -282 -21 -49 -18 -121 8 -167 14 -27 22
-60 23 -102 1 -54 6 -69 41 -120 21 -32 48 -83 59 -114 33 -88 105 -169 151
-169 14 0 7 11 -25 44 -37 37 -43 49 -39 75 2 17 1 31 -4 31 -4 0 -8 -7 -8
-15 0 -8 -4 -15 -9 -15 -13 0 -21 27 -15 45 5 11 2 13 -10 9 -12 -5 -17 3 -22
35 -4 23 -14 46 -23 51 -27 14 -65 101 -64 145 1 22 2 53 2 69 1 53 28 11 47
-72 21 -94 39 -120 30 -44 -8 59 -41 158 -58 168 -6 4 -14 0 -19 -7 -8 -12
-11 -12 -19 1 -15 23 -32 89 -28 113 5 34 22 22 32 -22 5 -23 13 -41 18 -41
11 0 0 66 -19 107 -13 28 -13 35 4 65 13 25 18 56 18 125 0 67 3 89 11 82 16
-13 35 -94 28 -113 -4 -9 -1 -16 6 -16 21 0 7 102 -19 138 -25 36 -24 46 21
139 17 35 28 70 24 79 -3 9 -8 64 -10 123 l-4 107 69 0 68 1 -14 -34 c-8 -19
-35 -64 -60 -99 -48 -70 -45 -87 5 -26 49 58 94 156 86 187 -4 18 -3 24 4 20
6 -3 10 3 10 17 0 13 8 37 17 53 9 17 19 50 22 75 l6 45 65 0 65 0 27 50 c18
33 28 65 28 94 0 37 2 42 18 36 40 -15 141 -35 155 -29 19 7 34 45 43 107 3
26 8 47 11 47 11 0 72 -36 115 -67 26 -19 52 -32 56 -29 5 3 12 33 15 67 3 33
7 63 10 65 2 2 26 -17 53 -43 57 -54 124 -112 124 -106 0 2 13 -3 29 -11 36
-19 41 -10 41 76 0 50 3 59 17 56 19 -3 167 -201 153 -206 -17 -6 -85 34 -95
56 -11 26 -21 28 -29 6 -4 -10 -13 -13 -26 -9 -11 4 -20 2 -20 -4 0 -6 6 -11
13 -11 7 0 31 -9 53 -19 76 -37 159 -73 187 -82 24 -7 27 -6 17 6 -7 8 -20 17
-29 20 -14 4 -18 19 -19 80 -2 44 1 75 7 75 16 0 65 -66 115 -155 47 -85 72
-105 78 -62 5 35 21 26 50 -28 34 -61 36 -80 9 -65 -49 26 -63 3 -37 -61 7
-19 16 -76 19 -126 6 -102 1 -110 -46 -73 -14 11 -33 20 -43 20 -15 0 -16 -7
-11 -62 4 -35 13 -88 20 -118 l14 -55 13 30 c7 17 15 51 18 78 4 46 14 58 28
36 6 -11 39 57 76 161 15 41 19 70 15 113 l-5 59 22 -21 c12 -12 29 -21 38
-21 29 0 136 -125 173 -201 34 -72 45 -116 25 -104 -5 3 -10 14 -10 24 0 28
-26 46 -45 31 -11 -9 -19 -10 -28 -1 -17 14 -37 -4 -37 -33 1 -19 1 -19 11 -3
14 24 29 21 29 -5 l0 -23 18 23 c14 18 20 20 30 10 6 -6 12 -22 12 -34 0 -14
6 -21 17 -20 23 1 30 -38 38 -209 8 -152 1 -195 -52 -314 -23 -50 -26 -54 -34
-33 -5 13 -17 22 -29 22 -15 0 -20 7 -20 25 0 30 -20 33 -43 7 -23 -25 -21
-39 2 -18 25 22 34 7 16 -27 -15 -30 -13 -32 17 -16 29 15 44 -2 27 -32 -7
-13 -12 -28 -11 -33 2 -4 -7 -24 -18 -44 -17 -28 -18 -37 -8 -43 7 -5 19 -7
26 -4 25 9 11 -14 -21 -34 -18 -11 -41 -29 -50 -39 -15 -17 -16 -21 -3 -31 12
-10 9 -17 -23 -46 -47 -43 -88 -118 -96 -176 -4 -24 -13 -66 -20 -94 -8 -27
-16 -62 -19 -76 -4 -17 -16 -31 -36 -39 -44 -18 -117 -91 -126 -124 -4 -18 -2
-37 5 -48 14 -23 6 -37 -11 -20 -20 20 -28 14 -28 -19 0 -42 -17 -28 -25 21
-4 22 -11 37 -16 34 -13 -8 0 45 19 74 8 12 20 22 28 22 7 0 22 10 34 22 34
37 22 9 -17 -39 -56 -68 -9 -38 62 39 99 108 145 239 144 404 0 172 -12 242
-53 328 -20 42 -34 81 -31 86 7 11 -26 30 -54 30 -11 0 -32 -5 -48 -11 -27
-11 -27 -11 -6 -19 41 -16 56 -54 49 -122 -11 -92 -18 -102 -121 -173 -84 -58
-158 -137 -209 -223 -60 -101 -114 -152 -203 -192 -37 -17 -85 -45 -106 -61
-31 -25 -41 -29 -53 -18 -18 15 -46 78 -39 89 3 5 0 10 -7 12 -9 3 -9 17 2 61
10 45 11 63 1 83 -17 38 -4 47 35 23 31 -19 37 -20 57 -6 33 22 107 96 107
107 0 6 19 31 41 55 23 25 39 48 36 52 -4 3 -2 15 4 26 8 14 8 18 0 13 -7 -5
-11 2 -11 17 0 18 7 27 25 31 32 8 32 19 -4 53 -31 31 -58 90 -46 101 4 4 10
1 12 -5 3 -7 9 -13 14 -13 5 0 9 6 9 13 0 6 7 25 15 41 9 16 13 31 10 34 -9 9
48 62 67 62 10 0 18 4 18 9 0 14 -26 21 -38 9 -18 -18 -25 12 -6 33 16 17 16
19 1 19 -17 0 -22 25 -11 54 10 27 24 18 30 -22 3 -20 11 -45 18 -54 11 -15
16 -16 55 -2 23 8 48 12 54 8 7 -3 4 1 -5 9 -25 20 -22 27 8 27 15 0 23 4 19
11 -8 13 -61 3 -93 -18 -23 -14 -24 -14 -17 9 4 12 14 30 21 39 8 8 14 34 14
57 0 23 9 64 20 92 11 28 20 69 20 90 0 77 17 39 25 -52 5 -68 13 -106 31
-141 13 -27 24 -55 24 -62 0 -23 21 -28 36 -9 8 11 24 39 36 64 l21 45 8 -64
c5 -35 12 -68 17 -73 5 -5 37 19 75 57 36 36 68 65 71 65 3 0 6 -23 6 -51 l0
-51 36 6 35 7 -6 -45 c-5 -31 -4 -46 4 -46 6 0 11 10 11 23 0 12 3 40 7 61 l6
39 -36 -7 -35 -7 5 61 c7 76 -9 80 -57 14 -29 -41 -82 -84 -102 -84 -25 0 20
153 46 158 13 3 11 8 -9 29 l-24 26 -45 -45 c-35 -36 -46 -55 -51 -92 -7 -46
-25 -74 -25 -39 0 10 -7 29 -16 41 -20 29 -64 192 -64 238 0 19 -5 34 -10 34
-6 0 -9 12 -8 28 1 15 1 47 0 71 -3 71 -20 37 -32 -64 -11 -100 -30 -185 -40
-185 -4 0 -12 11 -18 24 -11 24 -79 84 -122 106 -13 7 -61 18 -105 25 l-80 11
60 24 c35 14 90 25 133 28 40 2 72 9 72 15 0 18 -143 1 -209 -26 -61 -25 -62
-25 -48 -4 7 12 28 29 45 37 36 17 43 34 10 25 -38 -11 -70 -39 -104 -91 -33
-49 -42 -59 -83 -95 -16 -14 -21 -31 -21 -65 0 -37 -6 -53 -30 -81 -25 -28
-30 -42 -30 -83 0 -27 9 -73 20 -102 11 -29 20 -75 20 -103 0 -80 18 -124 91
-227 65 -91 99 -125 112 -112 3 3 -19 41 -49 85 -30 44 -54 88 -54 99 0 10 -3
25 -6 34 -5 12 0 16 20 16 14 0 35 9 46 20 45 45 11 112 -80 161 l-62 33 6 45
c3 24 17 69 31 99 14 30 28 79 32 109 3 31 15 65 26 80 18 23 25 25 70 20 166
-20 360 -212 291 -288 -22 -25 -30 -17 -47 51 -9 33 -20 55 -28 55 -11 0 -14
-25 -15 -121 0 -115 -2 -122 -27 -156 -15 -19 -27 -40 -27 -46 0 -6 -8 -17
-18 -24 -58 -43 -64 -111 -12 -130 37 -12 37 -21 5 -42 -29 -19 -34 -66 -10
-86 19 -16 19 -36 0 -43 -8 -4 -26 -29 -40 -57 -14 -27 -32 -50 -41 -50 -8 0
-26 -12 -41 -26 -25 -25 -26 -25 -59 -9 -55 26 -70 18 -66 -38 2 -36 -2 -55
-19 -79 -28 -39 -29 -85 -2 -107 12 -9 26 -34 32 -55 10 -37 55 -96 73 -96 5
0 13 12 19 27 l10 28 17 -21 c19 -24 61 -49 69 -41 2 3 0 14 -6 25 -15 29 -16
29 32 30 33 2 49 -3 62 -18 30 -33 46 -26 39 18 -4 28 -2 41 10 51 9 7 16 25
16 40 1 30 55 95 71 85 6 -4 15 0 20 7 14 22 10 31 -10 24 -16 -5 -18 -2 -14
15 6 23 8 24 34 9 19 -10 20 -9 9 10 -12 23 -5 45 12 35 6 -4 8 -23 4 -46 -6
-34 -4 -39 11 -36 11 2 19 14 21 31 3 27 27 37 35 15 10 -27 32 13 32 59 1 37
5 48 28 65 15 11 27 24 27 29 0 6 15 28 32 51 32 39 33 39 39 16 14 -49 10
-87 -12 -98 -17 -9 -18 -14 -8 -26 10 -13 10 -17 -2 -24 -11 -8 -12 -13 -1
-30 6 -11 12 -26 12 -33 0 -14 -83 -84 -192 -160 -71 -50 -152 -140 -174 -194
-21 -48 -18 -116 5 -137 11 -10 21 -13 25 -7 4 5 2 12 -4 16 -16 10 -11 63 10
105 26 50 42 52 28 4 -12 -46 -4 -94 23 -128 24 -31 49 -33 72 -8 27 30 22 53
-10 50 -26 -3 -28 0 -31 39 -7 99 37 169 140 222 35 18 54 24 42 14 -12 -10
-24 -26 -27 -35 -4 -10 -13 -18 -21 -18 -21 0 -30 -18 -16 -35 7 -9 8 -15 0
-20 -18 -11 -11 -35 14 -47 20 -9 24 -16 19 -38 -4 -22 0 -31 16 -39 12 -7 21
-20 21 -31 0 -22 46 -80 65 -80 20 0 24 23 9 51 -19 34 -18 36 15 36 30 0 61
18 61 34 0 5 -11 14 -25 19 -14 5 -25 13 -25 18 0 15 54 59 112 92 61 34 76
57 57 91 -9 17 -8 33 5 73 9 28 21 71 27 94 8 34 28 63 90 127 79 82 98 122
56 119 -24 -2 -22 1 28 47 51 47 59 74 20 67 -43 -9 -38 9 21 73 67 73 84 109
119 254 35 143 32 256 -9 355 -16 36 -36 93 -45 126 -19 66 -49 123 -90 168
-34 37 -131 103 -164 111 -17 5 -34 24 -55 63 -54 102 -107 130 -114 61 -3
-29 -7 -23 -51 64 -47 93 -116 175 -137 162 -6 -4 -10 -28 -10 -55 0 -82 -17
-75 -83 36 -40 66 -111 138 -130 131 -7 -2 -14 -34 -17 -78 -5 -72 -6 -74 -29
-71 -38 6 -67 29 -121 98 -28 35 -55 64 -60 64 -6 0 -14 -10 -19 -22z m-251
-187 c0 -6 -4 -12 -9 -15 -13 -8 -42 4 -35 15 7 12 44 12 44 0z m-210 -72 c0
-5 -5 -30 -11 -55 -11 -44 -13 -45 -43 -38 -45 10 -80 24 -73 30 9 9 112 72
120 73 4 1 7 -4 7 -10z m-515 -19 c3 -5 2 -10 -3 -10 -5 0 -25 -11 -45 -24
l-36 -25 -21 29 c-19 27 -19 29 -3 33 34 9 102 7 108 -3z m-130 -67 c34 -44
35 -48 18 -61 -16 -11 -19 -9 -31 28 -8 23 -20 40 -29 40 -9 0 -13 -6 -9 -15
3 -8 8 -21 11 -28 3 -7 -3 -22 -13 -32 -28 -30 -69 -153 -82 -244 -7 -45 -11
-124 -8 -175 3 -81 7 -99 31 -134 14 -23 47 -53 73 -68 42 -25 45 -30 40 -56
-7 -34 -42 -88 -57 -88 -6 0 -25 11 -42 24 -43 32 -152 68 -182 60 -33 -8 -87
-70 -111 -127 -10 -26 -21 -47 -24 -47 -3 0 -25 37 -49 81 -54 97 -98 139
-146 139 -47 0 -86 -36 -147 -136 -28 -46 -53 -82 -55 -80 -2 2 5 73 16 156
26 191 26 233 1 285 -21 44 -76 103 -86 93 -3 -4 13 -23 35 -43 44 -40 54 -63
20 -44 -72 38 -117 28 -189 -42 -48 -47 -51 -35 -15 65 29 84 93 182 176 270
48 52 79 75 144 105 146 70 197 81 400 83 148 3 185 6 210 20 46 26 61 22 100
-29z m1873 -173 c16 -15 22 -32 22 -65 0 -52 -15 -60 -25 -12 -4 17 -15 47
-26 65 -22 38 -6 44 29 12z m-1578 -335 c0 -8 -13 -43 -30 -77 -16 -34 -30
-67 -30 -75 0 -7 -4 -13 -10 -13 -5 0 -9 25 -8 58 1 31 -2 67 -6 79 -11 33 0
43 45 43 28 0 39 -4 39 -15z m-222 -78 c2 -11 -2 -14 -17 -10 -22 5 -26 14
-14 27 10 10 28 1 31 -17z m1614 -99 c-9 -9 -12 -7 -12 12 0 19 3 21 12 12 9
-9 9 -15 0 -24z m-651 -280 c9 -18 8 -24 -7 -35 -26 -19 -30 -17 -43 28 -7 23
-15 48 -19 57 -8 23 55 -23 69 -50z m749 -137 c0 -27 -18 -71 -28 -71 -5 0 -4
20 2 45 11 46 26 61 26 26z m35 -51 c3 -5 2 -10 -4 -10 -5 0 -13 5 -16 10 -3
6 -2 10 4 10 5 0 13 -4 16 -10z m-7 -33 c56 -59 51 -219 -13 -410 -46 -139
-66 -167 -118 -167 -31 0 -38 -3 -33 -15 4 -11 -1 -15 -19 -15 -18 0 -25 -5
-25 -20 0 -14 -7 -20 -24 -20 -24 0 -24 1 -10 29 8 16 21 32 30 35 8 3 13 10
10 15 -3 4 3 16 14 26 11 10 20 23 20 30 0 7 26 32 58 57 31 25 66 61 76 79
l20 34 -32 -27 c-17 -14 -72 -48 -122 -74 -104 -55 -147 -89 -200 -155 -21
-26 -40 -45 -44 -42 -3 3 -17 -2 -31 -11 -26 -17 -26 -17 -16 2 19 36 127 127
202 171 83 49 143 101 166 145 21 40 51 148 46 164 -10 26 -21 9 -33 -50 -14
-68 -28 -103 -38 -94 -10 11 -10 50 0 63 6 7 8 50 6 95 -3 71 -1 85 17 104 11
12 28 33 38 48 22 32 28 32 55 3z m-187 -136 c-7 -5 -13 -12 -13 -17 -1 -5
-10 -21 -21 -36 -16 -21 -24 -25 -34 -17 -18 16 -16 30 4 22 12 -5 15 -2 10
10 -4 11 4 22 26 36 17 11 34 18 36 15 3 -3 0 -9 -8 -13z m-83 -71 c7 -12 8
-20 2 -20 -5 0 -10 5 -10 10 0 6 -7 10 -16 10 -8 0 -12 5 -9 10 9 15 19 12 33
-10z m-13 -81 c-1 -50 -16 -72 -23 -32 -2 10 -8 28 -14 40 -8 17 -8 26 2 38
23 27 35 11 35 -46z m-69 16 c-3 -8 0 -14 6 -12 7 1 14 -6 16 -15 4 -22 -6
-22 -32 -3 -16 12 -17 17 -6 30 16 19 24 19 16 0z m-151 -235 c3 -5 1 -10 -4
-10 -6 0 -11 5 -11 10 0 6 2 10 4 10 3 0 8 -4 11 -10z m-35 -56 c0 -40 -11
-43 -38 -9 -12 15 -23 21 -27 15 -7 -11 -25 -4 -25 9 0 9 71 29 83 24 4 -3 7
-20 7 -39z m-106 0 c5 -12 1 -14 -15 -9 -18 6 -20 4 -14 -14 3 -12 2 -21 -4
-21 -17 0 -25 42 -10 51 21 13 36 11 43 -7z m226 -130 c-12 -31 -5 -111 12
-131 6 -8 7 -13 1 -13 -16 0 -33 48 -33 90 0 40 17 97 26 88 2 -3 0 -18 -6
-34z"></path>
<path d="M3479 3929 c-235 -19 -428 -142 -543 -344 -17 -29 -17 -29 0 -5 36
51 190 197 237 224 45 26 50 27 72 12 35 -23 55 -19 25 4 -25 20 -25 21 -5 35
26 20 38 15 50 -23 11 -38 28 -44 19 -7 -14 55 -12 58 46 71 82 19 276 29 284
15 9 -14 46 -15 46 -1 0 6 -11 10 -24 10 -14 0 -28 5 -31 10 -7 11 -35 11
-176 -1z"></path>
<path d="M3830 3920 c0 -5 5 -10 10 -10 6 0 10 5 10 10 0 6 -4 10 -10 10 -5 0
-10 -4 -10 -10z"></path>
<path d="M3737 3894 c-10 -13 -22 -24 -27 -24 -24 0 -202 -118 -253 -168 -63
-61 -195 -249 -246 -350 -46 -91 -38 -87 22 12 64 105 186 262 259 332 52 50
191 154 205 154 14 0 65 49 61 59 -1 5 -11 -2 -21 -15z"></path>
<path d="M3400 3845 c0 -8 5 -15 10 -15 6 0 10 7 10 15 0 8 -4 15 -10 15 -5 0
-10 -7 -10 -15z"></path>
<path d="M3689 3805 c-94 -90 -165 -248 -194 -427 -17 -107 -18 -128 -6 -128
4 0 11 27 15 60 16 139 138 418 220 503 63 65 33 59 -35 -8z"></path>
<path d="M3720 3670 c0 -5 5 -10 10 -10 6 0 10 5 10 10 0 6 -4 10 -10 10 -5 0
-10 -4 -10 -10z"></path>
<path d="M3345 3660 c-3 -5 -2 -10 4 -10 5 0 13 5 16 10 3 6 2 10 -4 10 -5 0
-13 -4 -16 -10z"></path>
<path d="M3295 3639 c-11 -17 1 -21 15 -4 8 9 8 15 2 15 -6 0 -14 -5 -17 -11z"></path>
<path d="M3707 3538 c-8 -149 -4 -200 19 -231 35 -48 47 -29 15 24 -17 28 -19
47 -16 170 3 77 1 139 -4 139 -5 0 -11 -46 -14 -102z"></path>
<path d="M3250 3600 c0 -5 5 -10 10 -10 6 0 10 5 10 10 0 6 -4 10 -10 10 -5 0
-10 -4 -10 -10z"></path>
<path d="M3290 3590 c0 -5 5 -10 10 -10 6 0 10 5 10 10 0 6 -4 10 -10 10 -5 0
-10 -4 -10 -10z"></path>
<path d="M3428 3573 c-28 -34 -109 -171 -117 -201 -12 -42 -1 -56 32 -41 32
14 35 29 7 29 -11 0 -20 5 -20 11 0 6 23 50 51 98 61 105 70 121 66 121 -2 0
-11 -8 -19 -17z"></path>
<path d="M3150 3561 c5 -11 10 -33 10 -50 0 -17 4 -31 9 -31 6 0 7 17 5 38 -8
51 -12 62 -24 62 -7 0 -8 -6 0 -19z"></path>
<path d="M3280 3550 c0 -5 5 -10 10 -10 6 0 10 5 10 10 0 6 -4 10 -10 10 -5 0
-10 -4 -10 -10z"></path>
<path d="M3250 3510 c0 -5 5 -10 10 -10 6 0 10 5 10 10 0 6 -4 10 -10 10 -5 0
-10 -4 -10 -10z"></path>
<path d="M3204 3486 c-8 -21 3 -49 16 -41 5 3 10 15 10 25 0 25 -18 36 -26 16z"></path>
<path d="M3572 3397 c-15 -67 -15 -77 2 -77 20 0 40 26 26 35 -7 4 -9 23 -4
51 9 62 -9 55 -24 -9z"></path>
<path d="M3405 3370 c-4 -6 5 -10 19 -10 14 0 26 5 26 10 0 6 -9 10 -19 10
-11 0 -23 -4 -26 -10z"></path>
<path d="M3161 3252 c-7 -13 -11 -28 -8 -35 2 -7 9 -2 16 11 7 13 11 28 8 35
-2 7 -9 2 -16 -11z"></path>
<path d="M5706 2778 c12 -13 19 -30 17 -38 -4 -13 -3 -13 5 -1 12 16 -4 47
-28 56 -9 4 -7 -2 6 -17z"></path>
<path d="M5500 2640 c-8 -5 -10 -10 -5 -10 6 0 17 5 25 10 8 5 11 10 5 10 -5
0 -17 -5 -25 -10z"></path>
<path d="M1558 4233 c-14 -16 -33 -43 -43 -62 l-17 -34 57 -53 c63 -60 79 -65
96 -31 6 12 27 39 47 59 l36 38 -30 31 c-29 32 -97 79 -112 79 -5 0 -20 -12
-34 -27z m75 -35 c17 -27 1 -48 -38 -48 -41 0 -42 2 -14 41 22 31 36 33 52 7z
m43 -50 c-8 -42 -22 -56 -38 -39 -11 10 -10 14 5 22 9 6 17 19 17 29 0 11 5
20 11 20 8 0 9 -11 5 -32z m-53 -39 c28 -32 10 -37 -21 -6 -18 19 -22 27 -11
27 8 0 23 -9 32 -21z"></path>
<path d="M4890 4170 c0 -5 5 -10 10 -10 6 0 10 5 10 10 0 6 -4 10 -10 10 -5 0
-10 -4 -10 -10z"></path>
<path d="M5045 4158 c-9 -20 -20 -24 -75 -28 -36 -3 -74 -11 -85 -17 -16 -10
-4 -11 65 -7 99 6 207 26 172 32 -12 2 -27 12 -32 23 -14 25 -33 24 -45 -3z
m35 2 c0 -5 -5 -10 -11 -10 -5 0 -7 5 -4 10 3 6 8 10 11 10 2 0 4 -4 4 -10z"></path>
<path d="M4870 4140 c0 -5 5 -10 11 -10 5 0 7 5 4 10 -3 6 -8 10 -11 10 -2 0
-4 -4 -4 -10z"></path>
<path d="M1728 4066 c-14 -33 -6 -52 28 -60 21 -6 32 -2 48 14 l21 21 -28 25
c-36 30 -54 30 -69 0z m55 -19 c3 -8 -3 -13 -14 -13 -19 0 -24 8 -12 19 10 11
20 8 26 -6z"></path>
<path d="M4691 4029 c-29 -23 -50 -43 -49 -45 7 -6 132 61 136 74 8 26 -37 11
-87 -29z"></path>
<path d="M4901 4054 c-41 -7 -79 -18 -85 -25 -8 -8 -3 -10 19 -5 17 3 60 11
98 17 37 6 67 15 67 20 0 11 -5 11 -99 -7z"></path>
<path d="M5111 4041 c-6 -11 -8 -26 -5 -34 3 -9 -2 -27 -12 -41 -15 -25 -15
-28 0 -45 9 -9 16 -22 16 -28 0 -14 29 -37 37 -30 3 4 0 13 -6 21 -10 11 -8
16 6 25 17 9 17 10 1 15 -56 18 -55 16 -24 42 26 23 27 26 11 38 -23 17 -10
38 20 34 13 -2 25 2 27 7 2 6 -11 11 -29 13 -23 2 -34 -2 -42 -17z"></path>
<path d="M955 4030 c3 -5 8 -10 11 -10 2 0 4 5 4 10 0 6 -5 10 -11 10 -5 0 -7
-4 -4 -10z"></path>
<path d="M4710 4002 c-19 -11 -48 -37 -65 -59 -16 -22 -39 -44 -50 -49 -28
-13 -52 -87 -68 -211 -15 -114 -12 -108 -87 -156 -39 -25 -90 -109 -89 -147 1
-23 2 -22 16 10 19 45 58 97 83 110 17 9 17 5 -6 -45 -15 -35 -24 -74 -24
-105 0 -43 5 -55 35 -89 l35 -38 0 -129 c0 -160 15 -335 36 -434 26 -121 116
-300 135 -268 5 8 3 15 -8 19 -34 12 -56 248 -34 364 l7 40 18 -35 c36 -69
118 -170 137 -170 25 0 24 11 -6 68 -13 26 -34 90 -46 142 -21 89 -21 102 -9
201 9 76 10 168 5 316 -8 242 0 306 51 403 19 35 34 70 34 76 0 7 -15 25 -32
40 -35 29 -36 38 -11 96 13 31 13 40 3 53 -16 19 -18 19 -60 -3z m14 -69 c-15
-62 -33 -76 -68 -50 -17 12 -15 15 18 45 45 39 58 41 50 5z m4 -107 c30 -26
28 -36 -29 -218 -21 -70 -27 -76 -46 -57 -6 6 -17 9 -25 6 -8 -3 -1 -10 18
-18 42 -19 33 -42 -12 -33 -22 4 -34 2 -34 -5 0 -6 8 -11 19 -11 38 0 41 -21
21 -121 -11 -52 -22 -141 -25 -199 -12 -234 -33 -476 -41 -468 -1 2 -12 82
-23 178 -45 393 -20 723 73 942 15 35 18 37 49 31 17 -3 42 -15 55 -27z m-223
-463 c-3 -24 -10 -41 -16 -38 -13 8 -11 47 4 103 l12 47 3 -35 c2 -19 1 -54
-3 -77z m184 -6 c5 -97 5 -155 2 -348 0 -48 6 -124 14 -170 8 -46 13 -85 11
-86 -9 -9 -68 100 -73 134 -3 21 -10 43 -15 49 -21 28 30 524 55 524 1 0 4
-46 6 -103z"></path>
<path d="M4594 3615 c-10 -8 -14 -15 -7 -15 19 0 43 11 43 21 0 13 -14 11 -36
-6z"></path>
<path d="M5032 3998 c-23 -29 0 -149 25 -125 3 4 -2 14 -13 21 -18 14 -18 15
0 35 16 17 17 23 6 36 -11 14 -10 17 8 22 12 3 22 9 22 14 0 14 -36 11 -48 -3z"></path>
<path d="M5270 3995 c-9 -11 -16 -13 -24 -5 -13 13 -53 13 -61 -1 -4 -6 1 -16
11 -24 18 -13 18 -14 0 -34 -18 -20 -18 -22 -1 -41 19 -21 45 -27 45 -11 0 5
-7 11 -15 15 -21 8 -19 26 3 26 30 0 34 13 10 31 -32 25 -16 35 21 13 l31 -18
-21 -22 -20 -21 23 -36 c28 -44 35 -46 35 -8 0 21 -6 31 -20 35 -11 3 -16 9
-12 16 4 6 13 9 20 6 23 -8 26 7 6 28 -13 14 -17 26 -11 35 7 12 12 12 34 -2
14 -9 27 -13 30 -8 7 10 -37 41 -57 41 -8 0 -20 -7 -27 -15z"></path>
<path d="M5395 3970 c-16 -11 -30 -24 -29 -30 1 -5 2 -17 3 -25 0 -8 6 -15 11
-15 6 0 10 7 10 15 0 17 41 61 53 57 5 -1 6 2 2 8 -9 14 -16 13 -50 -10z"></path>
<path d="M1165 3913 c-56 -29 -84 -37 -142 -41 -40 -3 -73 -9 -73 -15 0 -15
147 -3 213 18 50 17 62 17 90 6 46 -19 94 -25 101 -12 4 6 1 11 -6 11 -8 0
-31 16 -51 35 -20 19 -43 35 -50 35 -6 0 -43 -17 -82 -37z"></path>
<path d="M5615 3930 c10 -11 20 -18 23 -15 7 6 -18 35 -31 35 -5 0 -2 -9 8
-20z"></path>
<path d="M4536 3920 c-36 -16 -55 -35 -56 -52 0 -8 98 51 106 64 8 12 -6 9
-50 -12z"></path>
<path d="M4962 3919 c-12 -18 -11 -24 2 -37 19 -19 34 -8 17 12 -8 10 -9 16
-1 21 5 3 10 10 10 16 0 16 -15 10 -28 -12z"></path>
<path d="M5460 3920 c0 -5 5 -10 10 -10 6 0 10 5 10 10 0 6 -4 10 -10 10 -5 0
-10 -4 -10 -10z"></path>
<path d="M5190 3861 c0 -16 29 -33 52 -29 21 3 20 5 -11 21 -39 20 -41 20 -41
8z"></path>
<path d="M4435 3820 c-16 -17 -24 -30 -19 -30 13 0 59 48 52 55 -2 3 -17 -9
-33 -25z"></path>
<path d="M4956 3836 c3 -9 11 -16 16 -16 13 0 5 23 -10 28 -7 2 -10 -2 -6 -12z"></path>
<path d="M1386 3814 c-9 -22 0 -30 18 -15 8 7 25 9 40 5 14 -3 34 -3 43 1 15
7 13 9 -12 15 -53 13 -83 11 -89 -6z"></path>
<path d="M5293 3814 c-7 -3 -13 -15 -13 -27 0 -12 -9 -33 -20 -47 -11 -14 -20
-29 -20 -34 0 -14 39 24 45 44 7 23 58 44 85 35 18 -6 21 -3 18 12 -2 13 -13
18 -43 20 -22 1 -46 0 -52 -3z"></path>
<path d="M5153 3793 c-24 -5 -32 -23 -10 -23 24 0 57 12 57 21 0 9 -8 10 -47
2z"></path>
<path d="M1240 3782 c0 -5 17 -12 38 -14 20 -3 46 -8 57 -13 19 -7 19 -7 4 9
-18 20 -99 35 -99 18z"></path>
<path d="M4475 3780 c-3 -5 1 -10 9 -10 9 0 16 5 16 10 0 6 -4 10 -9 10 -6 0
-13 -4 -16 -10z"></path>
<path d="M5045 3765 c-123 -61 -154 -90 -126 -118 8 -8 14 -2 21 19 13 34 65
70 126 86 24 7 44 16 44 20 0 12 -32 9 -65 -7z"></path>
<path d="M5864 3766 c-3 -9 13 -34 40 -62 54 -57 73 -54 22 2 -20 22 -36 47
-36 57 0 21 -18 23 -26 3z"></path>
<path d="M4430 3750 c-17 -17 -28 -50 -16 -50 2 0 13 16 25 35 23 40 20 44 -9
15z"></path>
<path d="M972 3744 c-11 -12 -8 -14 13 -14 26 0 34 14 12 23 -6 2 -18 -2 -25
-9z"></path>
<path d="M1550 3744 c0 -11 229 -114 252 -114 9 0 21 -7 26 -16 17 -31 21 3 4
36 -16 32 -23 36 -122 61 -58 14 -117 29 -132 34 -16 4 -28 3 -28 -1z"></path>
<path d="M1410 3670 c0 -5 5 -10 11 -10 5 0 7 5 4 10 -3 6 -8 10 -11 10 -2 0
-4 -4 -4 -10z"></path>
<path d="M4856 3651 c-24 -27 -11 -48 15 -25 19 17 26 44 11 44 -5 0 -17 -9
-26 -19z"></path>
<path d="M5987 3653 c-4 -3 -7 -18 -6 -32 0 -26 0 -26 9 -3 5 12 17 22 25 22
9 0 13 5 10 10 -7 11 -28 13 -38 3z"></path>
<path d="M1490 3640 c0 -5 5 -10 10 -10 6 0 10 5 10 10 0 6 -4 10 -10 10 -5 0
-10 -4 -10 -10z"></path>
<path d="M1558 3638 c-16 -5 -28 -14 -28 -19 0 -14 46 -10 59 5 16 19 2 25
-31 14z"></path>
<path d="M4380 3611 c0 -21 -11 -39 -40 -65 -22 -20 -37 -36 -34 -36 10 0 68
42 82 58 14 19 16 72 2 72 -5 0 -10 -13 -10 -29z"></path>
<path d="M4116 3611 c-4 -5 -2 -12 3 -15 5 -4 12 -2 15 3 4 5 2 12 -3 15 -5 4
-12 2 -15 -3z"></path>
<path d="M4791 3584 c-12 -15 -21 -31 -21 -37 0 -13 38 21 51 45 15 28 -7 22
-30 -8z"></path>
<path d="M1740 3572 c0 -16 9 -37 20 -47 24 -22 27 -80 5 -132 -18 -41 -18
-43 -6 -43 12 0 41 80 41 113 0 14 -9 41 -20 59 -11 18 -20 43 -20 56 0 12 -4
22 -10 22 -5 0 -10 -13 -10 -28z"></path>
<path d="M1840 3540 c0 -5 9 -10 20 -10 11 0 20 5 20 10 0 6 -9 10 -20 10 -11
0 -20 -4 -20 -10z"></path>
<path d="M4030 3485 c-7 -9 -8 -15 -2 -15 5 0 12 7 16 15 3 8 4 15 2 15 -2 0
-9 -7 -16 -15z"></path>
<path d="M347 3484 c-11 -12 -8 -41 6 -53 22 -17 55 12 41 36 -12 19 -36 28
-47 17z"></path>
<path d="M5736 3454 c-9 -36 1 -43 14 -10 12 33 12 36 1 36 -5 0 -12 -12 -15
-26z"></path>
<path d="M6043 3433 c9 -9 20 -13 24 -9 4 4 1 11 -7 16 -25 16 -35 11 -17 -7z"></path>
<path d="M1583 3377 c-3 -5 2 -16 12 -23 17 -13 17 -16 -10 -54 -15 -22 -34
-45 -41 -51 -15 -12 -20 -59 -6 -59 4 1 23 21 42 47 19 25 48 61 64 80 16 18
26 37 22 40 -15 16 -76 30 -83 20z"></path>
<path d="M280 3338 c-17 -23 -29 -46 -27 -52 6 -19 53 -47 90 -53 46 -7 67 9
67 52 0 26 -8 40 -37 64 -21 17 -43 31 -50 31 -7 0 -27 -19 -43 -42z m68 -10
c-6 -18 -28 -21 -28 -4 0 9 7 16 16 16 9 0 14 -5 12 -12z m42 -37 c0 -29 -16
-34 -47 -14 l-27 18 29 6 c17 4 33 7 38 8 4 0 7 -8 7 -18z"></path>
<path d="M6030 3360 c-10 -19 -9 -20 14 -14 23 5 26 3 26 -18 0 -15 6 -25 15
-25 23 0 18 31 -8 55 -29 27 -34 27 -47 2z"></path>
<path d="M1800 3330 c-7 -13 -21 -20 -40 -20 -21 0 -30 -5 -30 -16 0 -13 3
-14 14 -5 7 6 20 9 28 6 15 -6 31 8 41 38 9 23 0 22 -13 -3z"></path>
<path d="M5965 3320 c-10 -11 -15 -23 -11 -27 4 -5 12 0 17 10 14 24 32 10 25
-19 -6 -24 7 -33 19 -14 15 24 27 8 20 -26 -5 -31 -4 -36 9 -31 9 4 20 -1 25
-11 9 -14 10 -13 11 10 0 15 -5 30 -10 33 -6 4 -8 10 -5 15 10 17 -8 40 -31
40 -17 0 -24 6 -24 20 0 26 -22 26 -45 0z"></path>
<path d="M1157 3303 c-10 -9 -9 -53 1 -53 5 0 17 9 28 21 16 17 16 22 4 29
-18 12 -25 12 -33 3z"></path>
<path d="M1856 3268 c4 -18 7 -39 7 -46 0 -8 4 -9 10 -3 12 12 0 81 -14 81 -7
0 -8 -12 -3 -32z"></path>
<path d="M4279 3263 c-13 -16 -12 -17 4 -4 16 13 21 21 13 21 -2 0 -10 -8 -17
-17z"></path>
<path d="M5900 3251 c-17 -32 -11 -48 9 -22 20 26 44 21 34 -7 -6 -15 -5 -15
11 -3 11 9 20 11 27 4 13 -13 0 -45 -17 -39 -16 6 -56 -42 -47 -57 4 -6 11 -3
19 7 16 22 37 11 29 -15 -5 -14 -2 -17 9 -13 25 9 38 -4 25 -27 -5 -11 -9 -24
-7 -29 6 -18 26 5 33 37 6 29 4 34 -19 43 -32 12 -36 50 -6 50 24 0 24 -1 4
38 -9 19 -23 32 -35 32 -10 0 -19 5 -19 10 0 18 -39 11 -50 -9z"></path>
<path d="M1620 3234 c-17 -43 -11 -50 15 -19 28 35 31 45 10 45 -9 0 -20 -12
-25 -26z"></path>
<path d="M5394 3224 c-18 -15 -18 -15 6 -10 14 3 29 6 33 6 5 0 5 5 2 10 -9
14 -18 13 -41 -6z"></path>
<path d="M780 3195 c-16 -19 -5 -34 12 -17 7 7 31 12 55 12 24 0 43 5 43 10 0
17 -96 12 -110 -5z"></path>
<path d="M1486 3194 c-9 -22 -8 -24 9 -24 8 0 15 9 15 20 0 24 -15 27 -24 4z"></path>
<path d="M1680 3196 c0 -8 -20 -40 -44 -73 -65 -88 -69 -97 -46 -118 11 -10
20 -28 20 -41 0 -13 5 -26 10 -29 6 -4 10 8 10 29 0 19 -4 38 -10 41 -18 11
-11 37 29 99 43 69 58 106 42 106 -6 0 -11 -6 -11 -14z"></path>
<path d="M1845 3190 c-3 -5 -1 -10 4 -10 6 0 11 5 11 10 0 6 -2 10 -4 10 -3 0
-8 -4 -11 -10z"></path>
<path d="M5700 3180 c0 -5 5 -10 10 -10 6 0 10 5 10 10 0 6 -4 10 -10 10 -5 0
-10 -4 -10 -10z"></path>
<path d="M604 3145 c-17 -23 -24 -41 -19 -52 5 -15 11 -12 37 20 28 34 34 37
81 37 64 0 51 15 -20 23 -51 6 -54 5 -79 -28z"></path>
<path d="M1332 3170 c-22 -9 -22 -10 21 -67 24 -32 47 -67 51 -78 6 -13 10
-15 13 -7 3 6 -14 39 -36 72 -23 33 -41 63 -41 66 0 4 19 4 43 0 39 -5 40 -5
23 9 -22 17 -40 18 -74 5z"></path>
<path d="M4230 3140 c0 -22 5 -40 10 -40 6 0 10 18 10 40 0 22 -4 40 -10 40
-5 0 -10 -18 -10 -40z"></path>
<path d="M1837 3153 c-4 -3 -7 -17 -7 -31 0 -39 -57 -225 -81 -266 -18 -31
-20 -41 -10 -59 10 -19 7 -35 -24 -107 -20 -46 -41 -91 -48 -99 -10 -11 -9
-13 3 -10 8 3 32 40 52 82 21 42 43 77 49 77 8 0 10 12 6 33 -4 29 0 39 33 73
21 21 47 46 58 54 16 12 21 31 25 88 7 86 -7 87 -25 2 -14 -72 -44 -95 -34
-28 10 74 19 198 14 198 -3 0 -8 -3 -11 -7z"></path>
<path d="M1259 3148 c-6 -18 -4 -50 3 -54 12 -8 15 -4 23 29 6 21 4 27 -9 27
-9 0 -16 -1 -17 -2z"></path>
<path d="M1480 3140 c0 -5 5 -10 11 -10 5 0 7 5 4 10 -3 6 -8 10 -11 10 -2 0
-4 -4 -4 -10z"></path>
<path d="M5516 3134 c-9 -24 -7 -36 4 -29 6 4 17 1 25 -5 11 -9 15 -9 15 -1 0
6 -5 11 -12 11 -9 0 -9 3 0 12 17 17 15 28 -7 28 -10 0 -22 -7 -25 -16z"></path>
<path d="M5640 3110 c-49 -27 -86 -58 -79 -65 4 -3 24 6 45 20 49 33 79 40
110 26 23 -10 25 -9 22 11 -4 31 -51 34 -98 8z"></path>
<path d="M845 3084 c-17 -22 -24 -24 -47 -15 -42 16 -56 5 -94 -70 -19 -38
-40 -69 -48 -69 -18 0 -49 -47 -36 -55 5 -3 14 3 19 14 6 11 19 22 29 25 9 3
26 22 37 42 24 46 70 84 100 84 13 0 31 11 42 25 18 24 20 25 96 16 48 -6 85
-15 97 -26 15 -13 22 -14 38 -4 16 10 27 8 68 -16 44 -24 144 -42 144 -25 0 9
-80 31 -91 24 -5 -3 -33 11 -61 32 l-52 37 -14 -22 c-13 -19 -17 -20 -31 -7
-14 13 -128 37 -166 35 -5 0 -19 -12 -30 -25z"></path>
<path d="M4270 3100 c0 -5 5 -10 10 -10 6 0 10 5 10 10 0 6 -4 10 -10 10 -5 0
-10 -4 -10 -10z"></path>
<path d="M3975 3038 c-9 -58 -54 -156 -79 -173 -24 -18 -15 -31 12 -16 26 14
74 125 80 184 6 58 -4 62 -13 5z"></path>
<path d="M1460 3025 c0 -19 5 -35 10 -35 6 0 10 16 10 35 0 19 -4 35 -10 35
-5 0 -10 -16 -10 -35z"></path>
<path d="M5815 3043 c4 -10 13 -43 19 -73 7 -32 15 -50 19 -43 12 20 -18 133
-35 133 -6 0 -7 -7 -3 -17z"></path>
<path d="M352 3041 c4 -13 18 -16 19 -4 0 4 -5 9 -11 12 -7 2 -11 -2 -8 -8z"></path>
<path d="M4436 3041 c-4 -5 -2 -12 3 -15 5 -4 12 -2 15 3 4 5 2 12 -3 15 -5 4
-12 2 -15 -3z"></path>
<path d="M5880 3040 c0 -5 7 -10 16 -10 8 0 12 5 9 10 -3 6 -10 10 -16 10 -5
0 -9 -4 -9 -10z"></path>
<path d="M880 3031 c0 -9 41 -23 48 -16 2 2 1 8 -3 14 -8 13 -45 15 -45 2z"></path>
<path d="M4374 2983 c-9 -32 -20 -69 -25 -82 l-9 -23 -34 26 c-30 22 -33 23
-29 6 3 -10 15 -26 28 -34 18 -12 24 -28 30 -76 4 -33 11 -63 17 -66 21 -13
27 13 18 68 -7 45 -5 72 9 130 10 40 22 81 26 91 4 10 3 17 -3 17 -6 0 -18
-26 -28 -57z"></path>
<path d="M5393 2975 c-36 -52 -62 -72 -49 -39 14 37 18 64 8 64 -22 0 -65
-201 -45 -213 5 -3 28 -8 52 -11 24 -2 48 -9 54 -15 19 -19 47 -12 87 22 54
44 50 51 -10 20 -28 -14 -54 -22 -58 -18 -4 4 -2 10 5 12 27 10 62 45 65 66 2
12 17 31 35 42 18 11 32 23 33 28 1 19 -34 2 -95 -48 -61 -50 -114 -85 -130
-85 -3 0 -5 19 -5 43 0 35 8 52 50 106 45 57 58 81 45 81 -2 0 -21 -25 -42
-55z m67 -150 c-7 -9 -15 -13 -18 -10 -3 2 1 11 8 20 7 9 15 13 18 10 3 -2 -1
-11 -8 -20z"></path>
<path d="M5732 3019 c2 -7 10 -15 17 -17 8 -3 12 1 9 9 -2 7 -10 15 -17 17 -8
3 -12 -1 -9 -9z"></path>
<path d="M442 3008 c5 -15 28 -23 28 -10 0 5 -7 13 -16 16 -10 4 -14 1 -12 -6z"></path>
<path d="M800 2995 c-17 -21 -7 -29 18 -16 12 6 36 11 54 11 25 0 29 3 18 10
-23 15 -76 12 -90 -5z"></path>
<path d="M324 2958 c4 -22 11 -48 17 -57 7 -12 9 -6 4 22 -6 40 8 51 19 15 7
-22 7 -22 15 -3 6 16 16 19 46 17 25 -3 35 0 31 7 -4 6 -15 11 -25 11 -9 0
-26 6 -37 14 -14 11 -22 12 -33 3 -11 -9 -15 -9 -18 1 -3 6 -9 12 -15 12 -7 0
-8 -15 -4 -42z"></path>
<path d="M510 2989 c-36 -15 -38 -24 -21 -79 18 -61 30 -64 28 -8 l-2 42 53
16 c28 8 51 19 49 25 -5 14 -76 17 -107 4z"></path>
<path d="M5282 2973 c-5 -10 -12 -30 -16 -45 -4 -16 -13 -28 -22 -28 -12 0
-14 -5 -8 -17 4 -10 8 -34 9 -54 2 -41 12 -62 28 -56 8 2 11 25 9 68 -2 39 2
81 11 107 14 41 6 59 -11 25z"></path>
<path d="M995 2963 c-16 -9 -39 -17 -51 -18 -22 -1 -104 -61 -104 -76 0 -12
17 -12 25 1 3 6 20 17 37 26 28 15 35 15 84 -1 41 -13 54 -22 54 -36 0 -10 7
-19 15 -19 24 0 -4 49 -37 66 -31 16 -36 29 -13 37 8 4 39 -10 70 -30 51 -33
56 -40 51 -65 -4 -21 0 -33 14 -46 11 -9 29 -25 40 -34 25 -22 30 -22 30 -3 0
9 -16 25 -36 37 -32 19 -35 24 -30 53 6 30 2 36 -48 79 -30 25 -58 46 -63 46
-4 -1 -21 -8 -38 -17z"></path>
<path d="M3840 2939 c0 -5 5 -7 10 -4 6 3 10 8 10 11 0 2 -4 4 -10 4 -5 0 -10
-5 -10 -11z"></path>
<path d="M796 2918 c-22 -31 -8 -43 20 -17 13 12 24 26 24 31 0 16 -29 7 -44
-14z"></path>
<path d="M1174 2885 c38 -40 60 -55 80 -55 63 0 106 -46 74 -79 -11 -10 -10
-12 2 -9 30 6 14 -27 -17 -36 -18 -5 -33 -13 -33 -17 0 -13 12 -11 52 5 30 13
38 13 66 -1 39 -19 41 -31 5 -39 -16 -4 -37 -15 -48 -25 -11 -10 -33 -22 -48
-28 -26 -10 -29 -34 -4 -30 24 4 66 -13 88 -37 25 -27 41 -32 33 -9 -4 8 -1
15 5 15 18 0 17 -45 -1 -68 -9 -10 -14 -10 -28 3 -34 31 -77 38 -128 21 -26
-8 -81 -18 -124 -22 -63 -5 -85 -11 -128 -39 -66 -42 -59 -32 -80 -112 -10
-37 -25 -94 -34 -126 -19 -68 -20 -110 -5 -140 14 -27 100 -117 112 -117 4 0
17 -9 29 -20 12 -11 38 -22 57 -26 20 -3 57 -14 83 -25 98 -40 173 -19 276 79
59 56 63 62 52 83 -10 19 -10 22 0 12 7 -7 21 -36 31 -65 l19 -52 -36 -37
c-20 -21 -42 -35 -49 -32 -21 7 -55 -15 -49 -32 7 -18 -14 -47 -27 -39 -5 3
-7 10 -4 15 4 5 2 9 -4 9 -5 0 -16 -12 -23 -27 -7 -15 -24 -30 -38 -33 -20 -5
-25 -12 -25 -35 0 -24 -5 -31 -33 -39 -40 -11 -53 -1 -24 20 27 19 28 50 3 64
-24 12 -36 -3 -16 -20 20 -17 19 -27 -6 -41 -18 -9 -27 -6 -61 28 -22 21 -39
33 -37 26 8 -26 85 -123 97 -123 7 0 31 9 52 20 30 15 40 26 40 45 0 19 8 28
34 39 19 8 52 33 75 56 36 37 42 40 62 29 21 -11 27 -7 71 42 26 30 48 60 48
68 0 8 -16 29 -34 46 -25 23 -33 38 -30 52 3 12 1 24 -5 27 -19 12 -12 23 37
55 26 17 65 47 87 67 47 43 33 35 -51 -28 -57 -44 -61 -45 -72 -27 -11 17 -9
19 15 19 22 0 41 15 86 64 31 36 57 68 57 72 0 4 -29 -21 -64 -54 -35 -34 -71
-62 -80 -62 -32 0 -15 35 42 90 50 47 61 64 75 115 8 33 19 68 22 78 5 11 2
17 -8 17 -9 0 -19 -20 -27 -61 -11 -51 -18 -65 -43 -78 -56 -31 -79 -53 -74
-72 7 -26 -74 -95 -86 -73 -14 24 -4 109 12 106 20 -4 81 27 81 41 0 16 -52
97 -62 97 -12 0 -10 -14 6 -35 12 -17 12 -23 -6 -47 -16 -24 -25 -28 -56 -25
-25 2 -44 -2 -57 -14 -11 -10 -42 -24 -68 -31 -39 -10 -52 -10 -69 1 -13 8
-23 9 -27 3 -10 -16 -81 -42 -115 -42 -24 0 -113 24 -134 36 -7 4 30 114 39
114 5 0 9 -5 9 -10 0 -6 13 4 29 22 16 19 50 41 77 51 53 18 154 23 154 7 0
-5 6 -10 14 -10 7 0 19 -7 27 -16 12 -14 14 -14 20 4 7 20 49 38 49 21 0 -5
11 -7 25 -3 14 3 32 1 40 -6 21 -17 33 -5 50 52 19 65 19 65 -5 73 -16 5 -19
12 -14 28 4 12 12 25 18 30 12 8 -9 27 -31 27 -17 0 -16 15 2 30 22 18 18 25
-14 26 -33 1 -91 39 -91 60 0 23 19 16 32 -11 10 -22 16 -25 42 -19 41 9 42 9
54 43 15 42 -1 53 -58 40 -40 -9 -45 -8 -64 16 -22 27 -71 45 -123 45 -22 0
-44 10 -66 30 -58 50 -60 33 -3 -25z m288 -117 c-6 -6 -19 -7 -29 -3 -17 7
-17 8 2 15 24 9 41 2 27 -12z m-22 -167 c0 -26 -22 -41 -48 -34 -26 6 -27 11
-5 35 21 24 53 24 53 -1z m37 -42 c6 -6 9 -18 6 -26 -4 -11 -8 -10 -19 4 -22
30 -12 47 13 22z m-107 -89 c0 -5 -8 -10 -17 -10 -10 0 -28 -3 -40 -6 -13 -4
-23 -2 -23 4 0 11 21 19 58 21 12 0 22 -3 22 -9z m150 -150 c0 -5 -5 -10 -11
-10 -5 0 -7 5 -4 10 3 6 8 10 11 10 2 0 4 -4 4 -10z m-103 -87 c-3 -10 -5 -2
-5 17 0 19 2 27 5 18 2 -10 2 -26 0 -35z m93 -72 c-10 -20 -30 -29 -30 -14 0
10 33 44 37 39 3 -2 0 -14 -7 -25z m-20 -77 c0 -8 -4 -14 -10 -14 -5 0 -10 5
-10 10 0 6 -5 10 -11 10 -5 0 -3 -10 5 -22 20 -28 20 -39 1 -31 -13 5 -14 2
-4 -21 11 -24 9 -30 -22 -62 -19 -20 -43 -40 -54 -46 -20 -11 -20 -11 -1 11
27 30 13 37 -23 10 -29 -21 -34 -22 -67 -10 -32 12 -38 11 -58 -8 -25 -24 -36
-25 -80 -12 -17 5 -50 15 -72 20 -28 8 -55 25 -83 57 -45 47 -48 67 -13 72 17
3 21 -3 24 -29 2 -25 8 -33 24 -34 11 -1 35 -11 51 -23 37 -26 46 -27 77 -7
13 9 41 16 62 16 74 -1 139 11 151 27 8 9 10 30 7 54 -7 40 4 50 26 23 22 -27
33 -17 27 25 l-5 40 29 -21 c16 -11 29 -27 29 -35z m-180 -205 c0 -5 -19 -9
-42 -9 -38 1 -41 2 -25 14 18 14 67 10 67 -5z m50 17 c0 -2 -7 -7 -16 -10 -8
-3 -12 -2 -9 4 6 10 25 14 25 6z"></path>
<path d="M4216 2888 c-3 -13 -6 -27 -6 -33 1 -15 30 27 30 42 0 22 -17 15 -24
-9z"></path>
<path d="M4801 2893 c0 -4 4 -17 9 -28 8 -19 9 -19 9 2 1 12 -3 25 -9 28 -5 3
-10 3 -9 -2z"></path>
<path d="M385 2880 c-3 -5 -1 -10 4 -10 6 0 11 5 11 10 0 6 -2 10 -4 10 -3 0
-8 -4 -11 -10z"></path>
<path d="M5830 2865 c0 -8 5 -15 10 -15 6 0 10 7 10 15 0 8 -4 15 -10 15 -5 0
-10 -7 -10 -15z"></path>
<path d="M5858 2828 c-15 -23 -15 -28 -2 -39 20 -16 26 -7 22 32 l-3 33 -17
-26z"></path>
<path d="M4220 2812 c0 -6 4 -14 10 -17 5 -3 21 -25 35 -49 21 -37 24 -48 15
-71 -9 -24 -9 -26 4 -16 27 23 28 48 3 88 -28 43 -67 82 -67 65z"></path>
<path d="M416 2801 c-4 -5 -1 -22 6 -38 9 -22 12 -24 15 -10 3 9 11 17 19 17
17 0 18 12 2 28 -14 14 -35 16 -42 3z"></path>
<path d="M3650 2799 c0 -5 5 -7 10 -4 6 3 10 8 10 11 0 2 -4 4 -10 4 -5 0 -10
-5 -10 -11z"></path>
<path d="M5884 2767 c-17 -17 -19 -27 -12 -46 7 -21 11 -23 22 -10 15 16 30
79 18 79 -4 0 -17 -10 -28 -23z"></path>
<path d="M290 2755 c0 -8 5 -15 10 -15 6 0 10 7 10 15 0 8 -4 15 -10 15 -5 0
-10 -7 -10 -15z"></path>
<path d="M337 2744 c-15 -13 -22 -24 -15 -24 13 0 53 39 46 45 -2 2 -16 -8
-31 -21z"></path>
<path d="M5230 2740 c-12 -7 -11 -10 5 -15 33 -11 68 -26 108 -45 20 -10 37
-14 37 -9 0 13 -61 49 -82 49 -10 0 -18 5 -18 11 0 14 61 4 105 -17 l30 -15
-28 25 c-23 22 -38 26 -85 26 -31 0 -64 -4 -72 -10z"></path>
<path d="M506 2713 c9 -36 12 -39 20 -19 7 20 -1 46 -16 46 -6 0 -8 -11 -4
-27z"></path>
<path d="M1255 2730 c3 -5 10 -10 16 -10 5 0 9 5 9 10 0 6 -7 10 -16 10 -8 0
-12 -4 -9 -10z"></path>
<path d="M280 2699 c0 -5 5 -7 10 -4 6 3 10 8 10 11 0 2 -4 4 -10 4 -5 0 -10
-5 -10 -11z"></path>
<path d="M423 2691 c-10 -17 -21 -19 -74 -14 l-61 5 7 -54 c4 -29 9 -56 12
-60 11 -20 22 -4 25 35 3 41 4 42 45 48 24 3 44 7 45 10 2 2 12 14 22 27 15
17 16 22 5 22 -8 0 -20 -9 -26 -19z"></path>
<path d="M1170 2687 c0 -2 9 -21 19 -44 12 -24 18 -49 14 -63 -6 -23 -6 -23
17 -7 22 15 24 15 37 -3 8 -11 11 -25 8 -30 -3 -6 0 -10 7 -10 15 0 45 17 38
22 -3 2 -14 8 -25 14 -21 12 -23 25 -9 59 7 19 7 19 -13 3 -19 -17 -20 -17
-46 10 -15 16 -27 33 -27 40 0 7 -4 12 -10 12 -5 0 -10 -1 -10 -3z"></path>
<path d="M1116 2656 c11 -29 -7 -39 -30 -17 -12 12 -26 18 -29 14 -9 -8 22
-43 38 -43 7 0 18 -6 24 -13 17 -22 -36 -43 -58 -23 -27 24 -128 46 -160 35
-26 -9 -28 -14 -29 -62 0 -31 6 -59 14 -68 13 -14 12 -18 -1 -29 -8 -7 -15
-21 -15 -31 0 -24 -1 -24 -44 2 -29 17 -34 24 -26 39 5 9 7 20 3 23 -3 4 2 9
11 13 23 9 20 23 -4 17 -18 -5 -60 -63 -60 -84 0 -5 29 -23 65 -39 55 -25 65
-33 65 -55 0 -14 5 -25 11 -25 8 0 10 18 6 59 -6 50 -4 61 13 76 18 16 19 20
5 35 -21 24 -19 26 19 22 20 -2 53 4 81 17 49 22 90 28 80 12 -3 -5 -18 -12
-34 -16 -16 -3 -35 -13 -42 -21 -16 -19 -5 -18 40 6 21 10 42 16 46 12 4 -4 5
3 2 16 -4 18 0 25 18 32 29 11 40 27 27 43 -6 7 -12 23 -14 36 -1 14 -9 26
-16 29 -7 2 -10 -2 -6 -12z m-126 -82 c27 -4 50 -10 50 -13 0 -4 -20 -17 -45
-29 -35 -17 -50 -20 -65 -12 -25 13 -29 76 -5 66 8 -3 37 -8 65 -12z"></path>
<path d="M4665 2633 c7 -42 35 -103 47 -103 13 0 -3 94 -18 106 -8 6 -14 16
-14 23 0 6 -5 11 -10 11 -7 0 -9 -14 -5 -37z"></path>
<path d="M4825 2660 c-3 -5 -1 -10 4 -10 6 0 11 5 11 10 0 6 -2 10 -4 10 -3 0
-8 -4 -11 -10z"></path>
<path d="M5185 2650 c-4 -6 8 -10 29 -10 20 0 36 5 36 10 0 6 -13 10 -29 10
-17 0 -33 -4 -36 -10z"></path>
<path d="M473 2643 c-7 -2 -13 -14 -13 -25 0 -18 1 -18 16 -4 8 9 20 16 25 16
6 0 7 5 4 10 -7 11 -13 11 -32 3z"></path>
<path d="M4895 2610 c38 -39 45 -45 45 -35 0 10 -63 75 -73 75 -6 0 7 -18 28
-40z"></path>
<path d="M512 2609 c-7 -12 -11 -23 -8 -26 8 -9 36 17 36 33 0 20 -13 17 -28
-7z"></path>
<path d="M3960 2621 c0 -13 29 -35 37 -28 7 8 -15 37 -28 37 -5 0 -9 -4 -9 -9z"></path>
<path d="M5190 2606 c0 -20 37 -62 47 -53 4 5 -1 15 -11 23 -25 18 -12 32 14
16 22 -13 27 -3 8 16 -17 17 -58 15 -58 -2z"></path>
<path d="M4240 2603 c0 -7 18 -36 40 -65 23 -30 43 -69 46 -91 4 -22 14 -42
25 -48 11 -5 19 -17 19 -25 0 -19 29 -81 50 -108 35 -45 124 -136 132 -136 6
0 -20 32 -56 71 -36 39 -66 76 -66 81 0 5 7 23 16 40 l16 31 49 -84 c27 -46
52 -96 55 -110 3 -15 19 -43 35 -62 37 -45 169 -137 217 -152 40 -12 23 9 -22
28 -34 14 -133 82 -165 112 -9 9 11 75 23 75 8 0 62 -52 120 -115 59 -62 117
-117 129 -121 12 -4 39 -22 60 -41 21 -18 55 -41 75 -49 20 -9 51 -22 67 -29
51 -22 118 -43 159 -50 36 -6 38 -5 27 9 -8 9 -24 16 -37 16 -42 0 -241 85
-283 121 -21 19 -41 39 -44 45 -7 14 3 64 13 64 4 0 44 -38 89 -85 79 -82 111
-102 111 -70 0 34 31 25 101 -29 39 -31 75 -56 79 -56 4 0 15 11 24 25 10 15
26 25 40 25 22 0 155 -87 201 -131 19 -19 19 -19 0 -19 -22 0 -75 16 -169 50
-32 11 -61 19 -64 15 -3 -3 -3 -6 -1 -8 12 -9 169 -66 199 -72 19 -4 53 -13
75 -21 66 -22 215 -52 215 -44 0 11 -46 27 -119 40 -35 6 -76 16 -90 21 -23 9
-24 11 -8 20 10 6 17 22 17 40 0 63 56 46 169 -51 77 -66 101 -71 101 -20 0
19 6 33 17 37 16 6 47 -22 111 -105 33 -43 19 -58 -30 -33 -39 20 -150 39
-133 23 6 -5 32 -15 59 -21 27 -7 60 -21 74 -32 14 -10 35 -19 48 -19 23 0 40
-8 144 -70 105 -62 175 -114 287 -214 23 -21 43 -34 43 -28 0 18 -60 81 -115
122 -78 58 -307 200 -322 200 -7 0 -13 5 -13 11 0 9 17 48 26 58 2 3 42 -32
88 -77 46 -45 90 -82 99 -82 8 0 22 10 31 23 l16 22 48 -53 c26 -29 66 -82 88
-117 38 -63 58 -78 67 -52 10 29 67 -132 67 -190 0 -18 -6 -23 -24 -23 -30 0
-36 -16 -36 -94 0 -44 -6 -74 -22 -106 l-23 -45 -62 3 c-58 4 -62 2 -80 -24
-10 -15 -22 -57 -28 -93 -11 -75 -1 -71 -142 -56 -101 11 -114 1 -138 -104
-10 -45 -16 -84 -13 -87 3 -3 18 27 33 65 17 46 33 72 43 73 10 1 67 2 127 3
l110 0 0 45 c2 138 8 147 99 128 49 -9 59 -9 75 6 21 19 41 106 41 177 0 51
12 68 35 49 23 -19 18 -98 -8 -147 -35 -66 -79 -131 -122 -180 -81 -92 -240
-193 -360 -229 -33 -10 -66 -27 -73 -36 -7 -10 -22 -18 -33 -18 -10 0 -19 -4
-19 -10 0 -19 41 -10 74 15 18 14 39 25 47 25 21 0 172 74 224 110 24 16 48
30 53 30 12 0 142 137 142 149 0 5 19 29 43 54 60 61 77 126 77 285 0 94 -3
122 -13 122 -7 0 -21 24 -30 54 -19 59 -51 106 -72 106 -7 0 -27 25 -45 56
-33 58 -110 148 -143 165 -24 13 -47 -5 -47 -37 0 -40 -17 -36 -54 14 -40 55
-130 142 -146 142 -6 0 -16 -14 -22 -32 l-11 -31 -21 29 c-42 58 -99 114 -116
114 -10 0 -27 -12 -37 -26 l-20 -26 -72 56 c-82 63 -141 87 -166 66 -8 -7 -15
-21 -15 -31 0 -10 -4 -20 -9 -24 -5 -3 -54 22 -107 55 -105 64 -111 66 -160
48 -29 -10 -36 -8 -95 30 -66 43 -96 51 -117 30 -9 -9 -31 8 -98 80 -47 51
-92 92 -99 92 -17 0 -35 -31 -35 -59 0 -37 -25 -23 -81 46 -30 36 -76 93 -102
125 -66 80 -95 78 -107 -7 l-6 -40 -51 107 c-28 59 -56 123 -63 143 -15 45
-38 43 -61 -3 -8 -19 -19 -34 -24 -33 -4 0 -17 26 -27 58 -11 32 -25 65 -32
73 -6 8 -18 28 -26 43 -19 38 -79 105 -80 90z"></path>
<path d="M370 2555 c-7 -8 -9 -22 -6 -31 6 -16 8 -16 19 -1 6 8 23 17 36 19
14 2 26 9 29 16 6 18 -63 16 -78 -3z"></path>
<path d="M575 2550 c-10 -16 3 -29 25 -23 24 6 26 19 4 27 -21 8 -22 8 -29 -4z"></path>
<path d="M1150 2550 c-8 -5 -11 -12 -7 -16 4 -4 13 -2 19 4 6 6 10 14 7 16 -2
3 -11 1 -19 -4z"></path>
<path d="M1721 2516 c-15 -61 -15 -63 14 -36 17 16 25 33 23 49 -5 41 -25 34
-37 -13z"></path>
<path d="M3900 2553 c1 -21 39 -56 54 -50 19 8 32 35 21 45 -4 4 -10 1 -12 -5
-6 -18 -30 -16 -37 2 -5 15 -26 21 -26 8z"></path>
<path d="M1583 2506 c-35 -46 -39 -56 -23 -56 6 0 10 6 10 13 0 7 14 26 30 42
17 16 30 32 30 37 0 18 -17 5 -47 -36z"></path>
<path d="M1670 2539 c0 -5 5 -7 10 -4 6 3 10 8 10 11 0 2 -4 4 -10 4 -5 0 -10
-5 -10 -11z"></path>
<path d="M5130 2531 c0 -11 26 -22 34 -14 3 3 3 10 0 14 -7 12 -34 11 -34 0z"></path>
<path d="M445 2519 c-11 -17 1 -21 15 -4 8 9 8 15 2 15 -6 0 -14 -5 -17 -11z"></path>
<path d="M1635 2485 c-5 -11 -13 -27 -20 -35 -7 -8 -15 -24 -19 -34 -5 -16 -4
-17 9 -6 8 7 15 17 15 23 0 6 7 18 16 28 9 10 14 24 11 31 -3 9 -7 7 -12 -7z"></path>
<path d="M4383 2475 c11 -23 27 -34 27 -17 -1 9 -26 42 -33 42 -3 0 0 -11 6
-25z"></path>
<path d="M5054 2472 c-14 -9 -37 -52 -28 -52 4 0 16 7 26 16 14 14 20 14 33 4
22 -18 27 -8 9 18 -16 24 -23 26 -40 14z"></path>
<path d="M973 2458 c-12 -6 -24 -17 -27 -25 -4 -9 4 -7 24 7 41 29 42 37 3 18z"></path>
<path d="M4928 2458 c7 -7 12 -22 12 -35 0 -27 12 -30 30 -8 10 13 10 19 -5
35 -10 11 -25 20 -34 20 -12 0 -12 -3 -3 -12z"></path>
<path d="M570 2446 c0 -8 5 -18 10 -21 6 -3 10 3 10 14 0 12 -4 21 -10 21 -5
0 -10 -6 -10 -14z"></path>
<path d="M1130 2420 c-14 -11 -20 -20 -14 -20 5 0 15 5 21 11 15 15 63 3 63
-16 0 -22 13 -18 33 11 21 29 16 44 -8 24 -12 -10 -19 -10 -27 -2 -17 17 -39
14 -68 -8z"></path>
<path d="M5051 2408 c-12 -32 12 -59 33 -38 15 16 5 60 -14 60 -6 0 -15 -10
-19 -22z"></path>
<path d="M3040 2391 c-14 -10 -71 -48 -126 -84 -101 -66 -238 -194 -290 -271
-30 -44 -49 -42 -49 5 0 37 -24 51 -50 29 -18 -15 -20 -81 -3 -98 19 -19 -5
-62 -31 -55 -14 3 -29 -4 -48 -23 -39 -41 -53 -72 -56 -124 -2 -41 0 -45 24
-48 l25 -3 -33 -66 c-18 -36 -33 -78 -33 -94 0 -15 -4 -31 -10 -34 -18 -11
-11 -51 13 -72 12 -11 45 -26 72 -34 63 -18 135 -86 135 -128 0 -16 5 -42 11
-59 9 -27 7 -37 -13 -70 -33 -54 -62 -45 -106 33 -44 79 -79 115 -112 115 -40
0 -62 -31 -70 -102 -4 -35 -12 -76 -19 -92 -6 -16 -14 -52 -16 -79 -6 -74 -29
-80 -64 -18 -7 11 -12 11 -31 1 -20 -11 -22 -17 -17 -59 6 -42 49 -157 92
-243 23 -44 75 -98 96 -98 29 0 37 23 38 105 0 70 11 127 46 233 7 19 19 10
139 -103 111 -103 141 -125 239 -176 70 -36 92 -72 61 -97 -12 -10 -30 -31
-42 -48 -20 -30 -23 -30 -74 -24 -31 5 -58 3 -65 -2 -9 -7 -13 -40 -13 -99 0
-105 21 -177 70 -238 26 -32 36 -38 54 -32 13 5 22 19 24 35 2 15 11 30 20 33
27 9 62 45 62 62 1 24 114 120 183 155 56 28 63 36 79 81 21 57 18 82 -16 122
-12 15 -46 64 -73 109 -28 45 -69 105 -92 133 -22 29 -41 62 -41 72 0 17 6 16
52 -15 45 -31 57 -46 99 -134 56 -117 78 -142 131 -142 46 0 60 19 84 110 20
78 15 196 -9 234 -10 14 -17 33 -17 43 0 16 -16 39 -95 136 -8 9 -24 17 -34
17 -12 0 -40 23 -67 55 -26 30 -53 55 -59 55 -23 0 -50 41 -47 70 4 38 -13 69
-45 81 -22 8 -24 13 -19 45 4 19 2 51 -4 70 -11 32 -10 37 9 50 25 18 26 31 7
53 -19 22 -3 61 24 61 30 0 36 27 11 54 -14 15 -19 29 -15 40 9 23 -11 36 -53
36 -26 0 -33 4 -33 20 0 21 -33 28 -59 11 -9 -6 -25 -2 -45 10 -26 16 -32 16
-36 4 -4 -10 -9 -11 -20 -4 -12 8 -8 15 25 42 59 47 181 174 231 239 42 54
144 212 144 223 0 10 -26 3 -50 -14z m-28 -83 c-59 -86 -338 -368 -363 -368
-30 0 1 37 144 176 89 87 146 147 127 134 -19 -14 -95 -84 -169 -157 -74 -73
-137 -131 -139 -129 -9 10 24 49 135 157 111 108 280 245 290 235 3 -3 -8 -24
-25 -48z m-448 -269 c-3 -5 -10 -7 -15 -3 -5 3 -7 10 -3 15 3 5 10 7 15 3 5
-3 7 -10 3 -15z m0 -55 c3 -8 2 -12 -4 -9 -6 3 -10 10 -10 16 0 14 7 11 14 -7z
m36 -85 c0 -4 -9 -17 -19 -30 l-20 -24 -21 21 c-24 23 -19 45 13 60 17 8 25 7
35 -5 6 -8 12 -18 12 -22z m40 26 c7 -8 8 -15 2 -15 -5 0 -15 7 -22 15 -7 8
-8 15 -2 15 5 0 15 -7 22 -15z m-100 -107 c0 -10 -8 -21 -17 -24 -10 -3 -27
-10 -37 -16 -16 -9 -24 -6 -43 17 l-24 27 33 33 33 33 28 -26 c15 -14 27 -34
27 -44z m209 22 c5 0 14 6 20 14 14 17 49 27 56 16 3 -5 1 -11 -5 -15 -23 -14
-7 -22 35 -17 50 5 56 -1 23 -28 -25 -20 -23 -22 35 -34 33 -8 27 -26 -9 -26
-15 0 -24 -6 -24 -15 0 -13 -4 -14 -21 -4 -26 13 -45 -1 -35 -27 5 -13 9 -15
18 -6 7 7 16 12 21 12 12 0 3 -25 -9 -25 -5 -1 -19 -6 -31 -13 -17 -9 -28 -10
-43 -2 -24 13 -70 3 -89 -19 -11 -14 -13 -12 -9 15 3 23 1 31 -8 27 -17 -6
-13 92 4 109 6 6 12 16 12 22 0 5 10 21 23 34 22 23 22 23 25 3 2 -12 7 -21
11 -21z m-175 -22 l-17 -33 24 20 c13 11 28 26 32 33 8 11 57 18 57 7 0 -3 -7
-17 -16 -31 -12 -17 -18 -52 -20 -111 -4 -131 -25 -133 -63 -8 -12 39 -24 77
-26 86 -3 9 4 28 16 42 28 36 33 34 13 -5z m-139 -49 c11 -17 -1 -21 -15 -4
-8 9 -8 15 -2 15 6 0 14 -5 17 -11z m-10 -29 c3 -5 2 -10 -4 -10 -5 0 -13 5
-16 10 -3 6 -2 10 4 10 5 0 13 -4 16 -10z m121 -42 c6 -29 22 -77 34 -105 l24
-53 -24 -25 c-30 -32 -64 -30 -68 5 -1 14 -6 48 -11 75 -23 120 -23 143 -4
148 36 9 39 6 49 -45z m-66 -96 c5 -19 6 -40 4 -47 -8 -20 -53 -47 -69 -42
-14 6 -3 67 26 153 l13 39 9 -35 c4 -19 12 -50 17 -68z m286 35 c10 -10 -23
-20 -42 -13 -8 3 -13 10 -9 16 6 10 40 9 51 -3z m129 3 c-7 -12 -65 -14 -65
-2 0 4 16 9 36 10 23 2 33 -1 29 -8z m-70 -26 c13 -9 29 -13 35 -9 5 3 10 -2
11 -12 0 -10 2 -27 4 -38 2 -11 2 -37 -2 -57 -4 -29 -10 -38 -25 -38 -16 0
-19 5 -14 25 4 14 2 25 -3 25 -14 0 -33 -28 -26 -40 11 -18 -31 -11 -65 13
-27 17 -36 33 -45 74 l-12 51 31 -4 c17 -3 42 2 56 10 14 8 26 14 28 15 1 1
14 -6 27 -15z m-189 -88 c17 -18 19 -87 2 -104 -9 -9 -8 -12 4 -12 12 0 19 13
24 45 5 38 9 44 21 34 32 -27 118 -59 157 -59 62 0 86 -21 86 -76 0 -55 -14
-62 -78 -39 -26 9 -85 28 -132 42 -47 14 -89 32 -93 39 -4 8 -15 14 -22 14
-21 0 -19 16 5 40 11 11 20 28 19 38 0 13 -2 14 -6 2 -7 -18 -34 -50 -42 -50
-3 0 -13 4 -21 10 -12 7 -10 12 12 30 15 11 30 29 33 40 8 24 12 25 31 6z
m-136 -6 c0 -15 -77 -63 -89 -55 -17 10 -13 25 7 25 9 0 28 9 42 20 28 22 40
25 40 10z m-11 -46 c-11 -13 -11 -15 2 -12 8 1 39 -18 69 -43 30 -25 80 -57
111 -71 53 -24 58 -30 78 -82 32 -86 59 -135 108 -199 39 -50 44 -61 38 -90
-16 -71 -64 -137 -100 -137 -12 0 -50 14 -84 31 -68 34 -113 85 -133 151 -10
35 -9 39 15 62 15 14 27 35 27 47 0 13 5 37 12 55 8 23 8 43 1 73 -15 59 1 51
28 -14 12 -30 27 -55 32 -55 5 0 6 8 2 18 -4 9 -15 40 -26 68 -16 42 -34 64
-90 110 -39 33 -77 58 -85 58 -8 -1 -14 3 -14 8 0 6 -8 7 -17 4 -15 -6 -15 -4
2 14 21 23 44 28 24 4z m530 -206 c67 -61 91 -97 91 -135 0 -26 4 -33 20 -33
11 0 20 6 20 14 0 30 19 25 40 -9 21 -33 21 -40 10 -81 -11 -38 -11 -47 0 -54
11 -7 10 -17 -5 -55 -12 -34 -20 -43 -26 -34 -7 12 -9 12 -9 0 0 -8 -7 -11
-20 -8 -10 3 -21 0 -22 -5 -2 -6 -19 5 -39 23 -19 19 -60 56 -92 82 -67 57
-121 126 -172 220 -46 85 -40 87 10 3 41 -71 188 -235 200 -224 4 4 -6 21 -23
38 -32 32 -43 75 -40 155 1 22 -1 54 -5 70 -7 29 -6 29 34 -15 22 -25 47 -59
55 -77 18 -42 18 -133 -1 -160 -13 -18 -13 -22 3 -35 24 -21 43 -31 41 -21 -2
8 12 41 36 83 17 29 20 74 5 65 -5 -3 -10 -14 -10 -24 0 -10 -7 -24 -16 -32
-14 -11 -15 -9 -9 25 12 63 -17 134 -80 196 -51 50 -65 70 -49 70 4 0 28 -19
53 -42z m-111 10 c-3 -7 -11 -13 -18 -13 -7 0 -15 6 -17 13 -3 7 4 12 17 12
13 0 20 -5 18 -12z m-38 -45 c0 20 13 22 28 5 11 -14 21 -128 11 -128 -8 0
-70 93 -94 140 l-17 35 36 -34 c27 -26 36 -31 36 -18z m-500 32 c0 -15 -42
-85 -50 -85 -15 0 -12 27 5 60 13 25 45 42 45 25z m11 -68 c-11 -19 -21 -38
-21 -43 0 -5 9 6 20 24 18 30 50 44 50 23 0 -19 46 -79 77 -99 23 -16 35 -35
47 -76 38 -130 191 -251 276 -219 19 7 30 7 32 1 3 -7 17 -6 43 1 39 11 41 10
70 -23 17 -18 51 -60 76 -93 l46 -59 -25 -32 c-17 -22 -27 -50 -30 -85 -5 -47
-10 -57 -63 -110 -32 -32 -73 -63 -91 -69 -18 -6 -41 -17 -50 -25 -15 -13 -21
-10 -57 28 -68 69 -68 115 -1 104 35 -6 40 -4 56 22 59 97 74 108 74 59 0 -12
7 -31 16 -42 15 -18 15 -18 9 6 -23 94 -15 115 23 63 11 -16 24 -25 28 -20 4
4 -6 22 -22 40 -16 17 -38 43 -49 56 -21 26 -21 26 48 -4 49 -20 38 1 -12 24
-142 65 -298 170 -389 262 -40 40 -85 81 -100 91 l-26 17 27 10 c37 14 34 18
-10 13 l-36 -5 6 34 c6 32 6 33 -8 15 -8 -11 -15 -27 -15 -35 0 -9 -10 -44
-22 -78 -22 -61 -38 -75 -64 -55 -5 4 1 -2 13 -13 13 -12 23 -29 23 -40 0 -14
-9 -8 -37 25 -36 42 -38 46 -34 109 4 81 14 101 48 101 29 0 89 37 98 60 4 9
-3 7 -17 -6 -13 -12 -28 -20 -35 -17 -6 2 -14 -1 -18 -6 -3 -6 -12 -11 -20
-11 -12 0 -12 7 1 42 21 61 44 92 56 80 7 -7 4 -21 -11 -45z m845 -194 c-11
-11 -17 4 -9 23 7 18 8 18 11 1 2 -10 1 -21 -2 -24z m-139 -28 c-4 -8 -11 -15
-17 -15 -7 0 -7 6 0 21 13 23 26 19 17 -6z m178 -9 c11 -26 12 -47 5 -83 -9
-50 -31 -117 -48 -149 -6 -11 -13 -27 -16 -36 -3 -10 -9 -18 -13 -18 -7 0
-122 177 -131 201 -2 5 0 9 5 9 10 0 46 -54 98 -145 16 -27 30 -44 33 -37 2 7
-15 39 -37 72 -40 59 -52 88 -30 74 6 -3 18 -21 26 -38 42 -89 67 -117 37 -40
-15 39 -15 43 16 132 18 51 34 92 37 92 2 0 10 -15 18 -34z m-1026 -62 c47
-73 81 -146 80 -172 0 -9 -7 1 -15 23 -13 37 -73 110 -82 101 -2 -2 8 -21 21
-43 14 -21 28 -49 32 -63 6 -24 6 -25 -10 -5 -26 31 -78 145 -85 187 -11 57 9
48 59 -28z m91 -77 c5 -17 8 -29 6 -26 -12 12 -76 112 -76 118 1 14 60 -64 70
-92z m586 1 c-10 -6 -20 -7 -24 -3 -9 8 20 25 31 18 5 -3 2 -10 -7 -15z m194
-243 c0 -8 -4 -15 -10 -15 -5 0 -10 7 -10 15 0 8 5 15 10 15 6 0 10 -7 10 -15z
m33 -20 c4 -8 2 -17 -3 -20 -6 -4 -10 3 -10 14 0 25 6 27 13 6z m-56 -42 l-6
-38 11 33 c6 17 15 32 20 32 13 0 1 -52 -17 -69 -14 -14 -17 -14 -25 -1 -5 8
-8 21 -5 28 3 8 5 22 5 33 0 10 5 19 11 19 7 0 9 -13 6 -37z m-365 -141 c9
-32 28 -75 42 -95 28 -41 31 -53 16 -62 -17 -11 -89 150 -90 203 0 31 17 7 32
-46z m86 -88 c36 -18 47 -30 32 -39 -12 -7 -56 21 -64 41 -7 18 -6 17 32 -2z"></path>
<path d="M2765 1776 c-50 -14 -85 -37 -85 -55 0 -11 5 -10 21 5 14 12 33 18
62 17 40 -2 57 8 57 35 0 14 0 14 -55 -2z"></path>
<path d="M2725 1709 c-4 -6 -5 -13 -2 -16 7 -7 27 6 27 18 0 12 -17 12 -25 -2z"></path>
<path d="M2800 1580 c-22 -6 -23 -8 -7 -15 20 -8 47 0 47 15 0 11 -4 11 -40 0z"></path>
<path d="M2720 1561 c0 -15 42 -41 67 -41 13 0 23 5 23 10 0 6 -11 10 -25 10
-14 0 -28 7 -31 15 -7 16 -34 21 -34 6z"></path>
<path d="M2700 1432 c0 -19 12 -42 22 -42 14 0 5 43 -9 48 -7 2 -13 -1 -13 -6z"></path>
<path d="M2806 1045 c9 -35 9 -78 -1 -120 -10 -40 8 -21 24 24 8 26 8 44 0 70
-15 46 -35 68 -23 26z"></path>
<path d="M2317 993 c-3 -5 3 -17 14 -26 22 -19 25 -9 6 18 -8 10 -17 14 -20 8z"></path>
<path d="M2935 750 c10 -11 20 -18 23 -15 7 6 -18 35 -31 35 -5 0 -2 -9 8 -20z"></path>
<path d="M2980 701 c0 -5 7 -15 17 -22 15 -13 15 -12 4 9 -12 23 -21 28 -21
13z"></path>
<path d="M2863 415 c-23 -19 -46 -35 -52 -35 -6 0 -11 -4 -11 -10 0 -5 2 -10
4 -10 9 0 95 61 102 71 14 24 -5 16 -43 -16z"></path>
<path d="M596 2391 c-4 -5 -2 -12 3 -15 5 -4 12 -2 15 3 4 5 2 12 -3 15 -5 4
-12 2 -15 -3z"></path>
<path d="M1360 2393 c0 -19 11 -43 21 -43 13 0 11 14 -6 36 -8 10 -15 14 -15
7z"></path>
<path d="M5437 2359 c7 -7 15 -10 18 -7 3 3 -2 9 -12 12 -14 6 -15 5 -6 -5z"></path>
<path d="M3680 2346 c0 -9 4 -16 9 -16 5 0 18 -20 30 -44 11 -25 26 -48 32
-52 15 -9 39 23 39 50 0 20 -1 20 -18 -2 -18 -23 -32 -21 -32 5 0 8 -13 28
-30 45 -21 21 -30 25 -30 14z"></path>
<path d="M1000 2340 c0 -5 5 -10 10 -10 6 0 10 5 10 10 0 6 -4 10 -10 10 -5 0
-10 -4 -10 -10z"></path>
<path d="M1720 2315 c-20 -24 -6 -28 15 -5 10 11 13 20 8 20 -6 0 -16 -7 -23
-15z"></path>
<path d="M810 2312 c0 -5 9 -17 20 -27 22 -20 26 -9 6 18 -14 18 -26 22 -26 9z"></path>
<path d="M4552 2299 c2 -7 10 -15 17 -17 8 -3 12 1 9 9 -2 7 -10 15 -17 17 -8
3 -12 -1 -9 -9z"></path>
<path d="M1952 2278 c5 -15 28 -23 28 -10 0 5 -7 13 -16 16 -10 4 -14 1 -12
-6z"></path>
<path d="M585 2270 c-3 -5 1 -10 9 -10 8 0 18 5 21 10 3 6 -1 10 -9 10 -8 0
-18 -4 -21 -10z"></path>
<path d="M1910 2270 c0 -5 4 -10 9 -10 6 0 13 5 16 10 3 6 -1 10 -9 10 -9 0
-16 -4 -16 -10z"></path>
<path d="M6055 2258 c-48 -28 -79 -72 -102 -144 -9 -30 -20 -54 -24 -54 -4 0
-31 16 -60 35 -59 39 -69 42 -69 21 0 -18 50 -58 175 -136 124 -78 318 -214
336 -236 11 -14 10 -18 -6 -30 -28 -21 -11 -28 19 -9 26 17 27 17 100 -39 96
-74 166 -135 166 -147 0 -5 -11 -14 -25 -19 -14 -5 -25 -14 -25 -20 0 -15 11
-12 35 10 l22 20 18 -20 c18 -20 17 -20 -13 -31 -18 -6 -32 -15 -32 -21 0 -6
8 -7 18 -3 40 17 54 17 72 0 27 -24 25 -35 -5 -35 -40 0 -29 -18 12 -22 34 -3
41 -9 70 -57 47 -78 80 -170 109 -304 20 -86 24 -121 16 -129 -15 -15 -39 5
-45 35 -3 20 -4 20 -11 4 -11 -24 20 -70 44 -64 14 3 19 -3 24 -25 9 -47 7
-108 -4 -108 -5 0 -10 16 -10 35 0 37 -22 49 -34 19 -10 -25 -36 2 -36 37 0
16 -5 29 -11 29 -8 0 -10 -12 -6 -36 6 -35 79 -122 99 -117 26 8 -6 -165 -47
-251 -32 -67 -154 -199 -219 -236 -59 -35 -74 -36 -93 -12 -12 15 -13 14 -7
-10 5 -23 2 -28 -20 -34 -18 -4 -33 -1 -45 10 -25 23 -38 20 -16 -4 17 -18 16
-19 -10 -26 -29 -7 -45 6 -45 38 0 24 -11 48 -22 48 -5 0 -7 -8 -4 -17 14 -50
17 -83 7 -83 -5 0 -11 9 -13 20 -5 31 -23 29 -26 -2 -4 -31 -22 -39 -22 -10 0
14 -4 13 -19 -7 -19 -25 -21 -25 -222 -29 -512 -11 -850 70 -1158 277 -257
173 -402 420 -388 660 6 95 22 125 57 103 17 -10 20 -10 20 3 0 8 7 15 15 15
16 0 20 12 8 23 -3 4 -11 3 -17 -2 -6 -4 -22 -11 -34 -14 -22 -5 -23 -3 -17
21 11 46 64 130 114 181 91 94 189 124 331 102 152 -24 245 -95 264 -203 6
-34 3 -41 -29 -75 l-36 -38 17 34 c37 77 -1 157 -98 207 -64 33 -181 34 -265
3 -54 -21 -153 -99 -153 -122 0 -5 8 -1 18 9 32 36 155 114 178 114 5 0 8 -21
6 -47 -5 -74 -6 -76 -48 -58 -61 25 -79 20 -113 -32 -17 -27 -36 -55 -43 -65
-9 -13 -9 -20 1 -32 8 -9 19 -16 27 -16 7 0 25 -5 40 -10 l28 -11 -30 -18
c-34 -21 -67 -81 -62 -114 3 -19 39 -46 82 -60 5 -2 -1 -24 -13 -50 -34 -71
-23 -89 19 -30 57 78 61 88 47 107 -7 10 -34 20 -62 24 -34 5 -51 12 -53 23
-5 25 38 67 83 82 61 21 59 49 -4 84 -56 31 -61 46 -28 85 l22 27 59 -25 c32
-14 65 -23 72 -20 10 4 14 23 14 61 l0 56 33 -25 c34 -26 34 -26 52 -6 22 24
31 19 40 -20 8 -38 22 -46 43 -27 33 29 46 25 52 -18 3 -25 10 -39 18 -37 20
4 24 -22 7 -54 -37 -72 -5 -72 64 0 45 49 51 60 51 98 -1 96 -64 185 -169 235
-69 34 -85 38 -176 41 -83 3 -111 0 -164 -18 -129 -43 -223 -131 -290 -273
-116 -244 -33 -560 212 -814 39 -40 94 -89 124 -110 72 -50 60 -58 -80 -57
-82 1 -140 8 -217 27 -85 20 -143 27 -305 32 -110 4 -244 7 -297 6 -92 -2 -98
-1 -98 18 0 10 -12 28 -26 38 l-25 19 25 36 c14 21 22 45 19 56 -7 30 16 37
48 13 15 -11 33 -21 40 -21 6 0 9 -7 6 -14 -4 -10 -1 -13 8 -10 7 3 27 -2 45
-11 25 -13 38 -14 62 -6 58 20 158 9 237 -26 19 -8 52 -18 75 -20 l41 -6 -42
37 c-23 21 -56 54 -73 74 -20 25 -30 31 -30 20 0 -10 17 -35 38 -58 22 -22 38
-40 37 -40 -11 0 -65 34 -65 41 0 5 -25 39 -56 75 -69 81 -127 184 -189 335
-43 103 -48 125 -56 229 -4 63 -15 135 -24 160 -44 120 -70 457 -46 594 17 97
61 176 99 176 8 0 59 -20 114 -45 178 -80 294 -175 472 -383 78 -91 101 -106
101 -65 0 23 -89 143 -106 143 -8 0 -7 -5 1 -15 7 -9 10 -18 7 -21 -10 -10
-45 15 -68 48 -13 18 -48 59 -78 91 -30 31 -51 57 -47 57 3 0 52 -29 109 -64
56 -36 104 -63 106 -60 16 16 -176 170 -229 184 -22 6 -40 13 -40 17 0 14 105
-9 150 -33 28 -15 52 -25 55 -22 3 3 -10 19 -29 36 -54 47 -141 65 -201 42
-23 -9 -35 -3 -111 55 -96 73 -141 90 -233 87 -115 -4 -141 -55 -122 -237 9
-79 9 -120 1 -145 -6 -19 -13 -85 -17 -146 -6 -113 8 -217 43 -307 16 -44 44
-208 37 -220 -3 -4 2 -19 11 -32 9 -13 22 -70 30 -125 16 -114 59 -217 127
-308 38 -49 39 -52 16 -47 -15 4 -38 0 -55 -9 -17 -9 -35 -16 -40 -16 -5 0
-47 33 -95 74 -96 82 -129 96 -177 71 -38 -20 -86 -93 -95 -145 -4 -24 -13
-41 -23 -44 -37 -12 -72 -56 -72 -91 0 -39 9 -43 46 -19 22 15 31 15 112 1 62
-12 92 -22 103 -37 34 -41 110 -52 159 -23 26 15 39 15 127 5 222 -28 344 -42
443 -52 58 -6 148 -17 200 -26 63 -10 108 -12 135 -7 50 11 179 -17 350 -75
248 -84 424 -105 830 -100 275 4 295 6 395 32 58 15 143 45 190 68 70 34 100
56 167 126 93 95 132 163 163 286 40 157 20 498 -39 667 -51 148 -201 350
-330 444 -41 30 -47 41 -86 151 -45 130 -118 262 -202 367 -63 79 -84 94 -138
102 -31 4 -49 0 -80 -17z m165 -153 c34 -36 60 -69 56 -72 -3 -3 -14 1 -24 10
-23 21 -35 12 -21 -15 22 -42 -28 -53 -59 -13 l-20 25 -6 -22 c-6 -25 -21 -16
-28 17 -5 19 -5 19 -13 2 -11 -26 21 -58 51 -51 20 5 24 2 24 -17 0 -25 26
-59 46 -59 7 0 19 6 27 14 7 8 31 16 53 18 33 2 39 0 39 -16 0 -29 -30 -44
-56 -28 -27 17 -40 5 -15 -14 26 -18 45 -18 68 3 17 15 19 15 33 -3 15 -20 49
-113 43 -119 -2 -2 -39 18 -83 44 -197 117 -321 191 -334 200 -11 7 -8 19 19
63 76 125 106 130 200 33z m89 -114 c12 -21 5 -31 -20 -31 -18 0 -33 26 -23
41 9 15 33 10 43 -10z m-63 -32 c3 -6 1 -16 -5 -22 -13 -13 -42 0 -49 21 -5
15 44 16 54 1z m-1226 -565 c0 -3 -10 -19 -21 -36 l-21 -29 -24 22 c-30 28
-30 36 -1 42 36 7 67 7 67 1z m106 -46 c34 -23 51 -43 58 -66 9 -34 5 -48 -13
-37 -6 3 -11 22 -11 41 0 37 -14 43 -52 23 -11 -6 -24 -7 -28 -2 -11 13 -21
73 -11 73 5 0 31 -15 57 -32z m-1377 -779 c17 -6 31 -15 31 -19 0 -17 -17 -19
-48 -8 -28 11 -35 9 -62 -10 -35 -26 -41 -10 -8 25 24 26 41 28 87 12z m52
-42 c-13 -13 -26 -3 -16 12 3 6 11 8 17 5 6 -4 6 -10 -1 -17z m-52 -33 c48
-10 37 -21 -30 -28 -67 -8 -78 -4 -59 19 13 16 39 19 89 9z m26 -53 c3 -5 -2
-17 -12 -26 -12 -13 -26 -15 -53 -11 -22 3 -58 0 -86 -9 -26 -8 -49 -13 -51
-11 -2 1 8 13 21 25 31 29 168 53 181 32z"></path>
<path d="M6140 2099 c0 -12 25 -22 41 -17 6 2 0 9 -15 16 -16 7 -26 8 -26 1z"></path>
<path d="M847 2243 c-4 -3 -7 -12 -7 -20 0 -17 26 -17 33 1 8 21 -11 35 -26
19z"></path>
<path d="M3670 2166 c7 -7 13 -7 20 0 6 6 3 10 -10 10 -13 0 -16 -4 -10 -10z"></path>
<path d="M1865 2140 c-3 -5 -2 -10 4 -10 5 0 13 5 16 10 3 6 2 10 -4 10 -5 0
-13 -4 -16 -10z"></path>
<path d="M1795 2122 c-16 -9 -32 -18 -34 -19 -2 -2 -2 -5 1 -8 8 -8 78 24 78
35 0 14 -10 12 -45 -8z"></path>
<path d="M4820 2103 c25 -32 40 -41 40 -25 0 9 -25 33 -50 48 -8 4 -4 -6 10
-23z"></path>
<path d="M1800 2086 c0 -2 7 -9 15 -16 13 -11 14 -10 9 4 -5 14 -24 23 -24 12z"></path>
<path d="M570 2048 c-12 -22 -12 -22 6 -6 10 10 15 20 12 24 -4 3 -12 -5 -18
-18z"></path>
<path d="M660 2040 c0 -5 5 -10 10 -10 6 0 10 5 10 10 0 6 -4 10 -10 10 -5 0
-10 -4 -10 -10z"></path>
<path d="M1590 2040 c0 -5 16 -10 35 -10 19 0 35 5 35 10 0 6 -16 10 -35 10
-19 0 -35 -4 -35 -10z"></path>
<path d="M2022 2007 c-38 -39 -55 -77 -33 -77 4 0 25 -11 45 -25 l36 -24 50
31 c56 35 62 54 25 88 -14 13 -25 20 -25 17 0 -4 -9 2 -20 13 -11 11 -24 20
-28 20 -4 0 -27 -19 -50 -43z m74 -19 c9 -14 -23 -38 -50 -38 -18 0 -18 1 4
25 26 28 35 31 46 13z m49 -17 c3 -5 -8 -19 -24 -30 -30 -22 -71 -28 -71 -11
0 6 8 10 18 10 11 0 27 9 37 20 20 22 31 25 40 11z"></path>
<path d="M5730 1971 c-41 -27 -93 -68 -115 -90 -21 -23 -47 -41 -56 -41 -25 0
-49 38 -49 77 0 18 -4 33 -10 33 -5 0 -10 -19 -10 -41 0 -35 6 -47 37 -75 l36
-33 62 62 c34 34 81 73 104 87 24 14 55 35 69 47 47 39 8 24 -68 -26z"></path>
<path d="M333 1983 c-29 -14 -44 -33 -28 -33 14 0 65 32 65 40 0 12 3 12 -37
-7z"></path>
<path d="M850 1990 c0 -5 5 -10 10 -10 6 0 10 5 10 10 0 6 -4 10 -10 10 -5 0
-10 -4 -10 -10z"></path>
<path d="M890 1981 c0 -6 5 -13 10 -16 6 -3 10 1 10 9 0 9 -4 16 -10 16 -5 0
-10 -4 -10 -9z"></path>
<path d="M5806 1937 c-57 -57 -78 -117 -51 -147 10 -11 25 -20 33 -20 13 0 13
3 -1 18 -19 21 -22 57 -7 67 6 3 10 14 10 23 0 9 17 33 37 54 20 21 34 40 31
44 -4 3 -27 -14 -52 -39z"></path>
<path d="M616 1948 c-20 -28 -21 -44 -2 -29 13 11 29 51 21 51 -2 0 -11 -10
-19 -22z"></path>
<path d="M5846 1921 c-30 -31 -36 -43 -30 -65 8 -34 24 -33 24 2 0 18 11 38
30 57 30 28 38 45 22 45 -4 0 -25 -17 -46 -39z"></path>
<path d="M917 1892 c3 -31 6 -61 7 -66 3 -14 129 -37 140 -26 6 6 16 4 27 -6
14 -13 20 -13 38 -2 27 16 27 31 1 23 -12 -4 -27 -2 -35 5 -10 8 -18 8 -32 -1
-16 -9 -28 -8 -66 9 -45 20 -47 23 -47 61 0 29 -5 43 -18 50 -17 9 -18 6 -15
-47z"></path>
<path d="M5930 1855 c0 -41 3 -75 8 -75 14 0 106 51 114 63 11 16 10 47 -1 47
-5 0 -11 -9 -14 -19 -6 -24 -52 -55 -72 -47 -11 4 -15 20 -15 56 0 27 -4 50
-10 50 -6 0 -10 -32 -10 -75z"></path>
<path d="M4540 1895 c0 -2 17 -13 38 -24 43 -22 122 -103 146 -149 23 -45 21
-79 -6 -88 -22 -7 -26 -4 -71 61 -35 49 -35 24 0 -30 39 -60 66 -70 96 -37 35
38 13 102 -65 187 -26 29 -63 60 -82 69 -34 16 -56 20 -56 11z"></path>
<path d="M475 1834 c-54 -33 -65 -36 -113 -31 -53 6 -53 6 -50 -21 3 -29 38
-45 38 -18 0 11 9 16 30 16 26 0 149 57 175 81 24 23 -25 6 -80 -27z"></path>
<path d="M4000 1856 c0 -8 5 -18 11 -21 7 -5 3 -16 -12 -31 -25 -27 -20 -50
16 -64 23 -9 24 -12 13 -37 -16 -37 -38 -63 -54 -63 -22 0 -27 21 -8 41 9 10
14 22 10 27 -12 11 -47 -39 -44 -62 2 -16 11 -22 36 -24 29 -3 32 -6 32 -36 0
-42 18 -58 57 -50 18 4 33 1 37 -5 11 -18 35 -13 61 14 25 24 33 55 15 55 -5
0 -10 -6 -10 -13 0 -19 -37 -50 -49 -42 -6 3 -11 19 -11 36 0 37 -10 37 -33
-2 -9 -17 -23 -29 -30 -27 -16 6 -20 48 -8 81 8 21 17 27 40 27 15 0 34 -7 41
-15 16 -19 34 -19 51 1 11 14 10 16 -6 14 -33 -4 -38 -1 -26 14 19 22 -3 27
-39 10 -42 -21 -60 -6 -36 30 18 29 20 36 7 36 -5 0 -22 5 -36 10 -23 9 -25
13 -14 26 7 9 24 14 42 12 34 -4 39 15 5 22 -14 4 -23 13 -23 25 0 11 -8 21
-18 23 -10 2 -17 -3 -17 -12z"></path>
<path d="M645 1820 c-3 -5 -1 -10 4 -10 6 0 11 5 11 10 0 6 -2 10 -4 10 -3 0
-8 -4 -11 -10z"></path>
<path d="M1994 1805 c-9 -24 22 -53 38 -37 9 9 10 17 2 29 -15 24 -33 27 -40
8z"></path>
<path d="M1319 1790 c-31 -26 -15 -26 18 0 14 11 21 20 15 20 -5 0 -20 -9 -33
-20z"></path>
<path d="M615 1750 c-3 -5 -1 -10 4 -10 6 0 11 5 11 10 0 6 -2 10 -4 10 -3 0
-8 -4 -11 -10z"></path>
<path d="M242 1694 c3 -19 34 -41 43 -32 7 6 -29 48 -41 48 -3 0 -4 -7 -2 -16z"></path>
<path d="M366 1646 c-57 -70 -46 -92 14 -29 28 28 50 56 50 62 0 24 -30 9 -64
-33z"></path>
<path d="M1000 1645 c-19 -14 -30 -25 -24 -25 10 0 73 49 63 50 -3 0 -20 -11
-39 -25z"></path>
<path d="M480 1630 c0 -5 5 -10 10 -10 6 0 10 5 10 10 0 6 -4 10 -10 10 -5 0
-10 -4 -10 -10z"></path>
<path d="M2040 1609 c0 -5 5 -7 10 -4 6 3 10 8 10 11 0 2 -4 4 -10 4 -5 0 -10
-5 -10 -11z"></path>
<path d="M1159 1589 c13 -11 26 -17 29 -14 8 8 -20 35 -37 35 -12 -1 -11 -5 8
-21z"></path>
<path d="M262 1559 c-43 -42 -44 -47 -9 -86 16 -18 23 -20 34 -11 10 8 20 8
39 -1 30 -13 44 -14 44 -2 0 5 -18 16 -40 25 -50 20 -56 35 -35 76 9 18 15 33
13 35 -2 2 -23 -14 -46 -36z"></path>
<path d="M510 1563 c0 -28 3 -34 10 -23 13 20 13 60 0 60 -5 0 -10 -17 -10
-37z"></path>
<path d="M1049 1558 c-19 -24 -55 -68 -81 -99 -26 -30 -48 -59 -48 -62 0 -20
21 0 69 66 30 39 65 87 79 105 13 17 22 32 19 32 -3 0 -20 -19 -38 -42z"></path>
<path d="M4260 1561 c0 -28 -20 -37 -27 -12 -3 12 -9 21 -14 21 -14 0 -10 -13
11 -40 l19 -25 18 25 c21 29 23 42 6 48 -8 2 -13 -5 -13 -17z"></path>
<path d="M6230 1574 c0 -11 45 -42 53 -37 11 7 -22 43 -40 43 -7 0 -13 -3 -13
-6z"></path>
<path d="M4030 1479 c0 -50 17 -72 51 -65 17 3 39 0 50 -7 18 -10 23 -8 41 16
16 22 23 25 34 16 11 -9 18 -9 26 -1 9 9 9 12 -2 12 -7 0 -21 7 -31 16 -16 15
-19 14 -34 -16 -18 -34 -38 -35 -43 -2 -4 28 -18 28 -25 1 -10 -36 -42 -20
-45 24 -4 44 -22 50 -22 6z"></path>
<path d="M468 1463 c-10 -2 -18 -9 -18 -14 0 -14 16 -11 30 6 7 8 11 14 9 14
-2 -1 -12 -3 -21 -6z"></path>
<path d="M4276 1461 c-4 -6 3 -15 14 -21 23 -12 27 2 6 19 -9 8 -16 8 -20 2z"></path>
<path d="M6482 1453 c14 -30 44 -73 51 -73 12 0 -2 41 -21 63 -15 17 -37 24
-30 10z"></path>
<path d="M5990 1401 c0 -5 12 -11 28 -13 21 -2 27 -8 26 -26 -1 -21 1 -22 15
-7 15 15 14 18 -9 35 -26 21 -60 26 -60 11z"></path>
<path d="M863 1388 c-6 -7 -13 -22 -17 -32 -5 -15 -4 -17 8 -7 7 6 16 21 19
31 6 23 3 25 -10 8z"></path>
<path d="M554 1355 c12 -77 79 -420 84 -435 4 -11 7 -9 9 7 5 29 -76 445 -89
458 -7 7 -8 -3 -4 -30z"></path>
<path d="M5370 1380 c0 -5 11 -10 25 -10 14 0 25 5 25 10 0 6 -11 10 -25 10
-14 0 -25 -4 -25 -10z"></path>
<path d="M6100 1381 c0 -5 7 -15 17 -22 15 -13 15 -12 4 9 -12 23 -21 28 -21
13z"></path>
<path d="M5300 1370 c0 -5 11 -10 25 -10 14 0 25 5 25 10 0 6 -11 10 -25 10
-14 0 -25 -4 -25 -10z"></path>
<path d="M5440 1370 c0 -5 6 -10 14 -10 7 0 19 -7 26 -15 7 -8 17 -12 22 -9
12 8 68 -45 68 -63 0 -7 5 -13 10 -13 6 0 10 6 10 13 0 26 -34 59 -85 83 -60
27 -65 28 -65 14z"></path>
<path d="M4330 1352 c0 -5 7 -16 16 -23 14 -12 16 -11 13 5 -4 20 -29 35 -29
18z"></path>
<path d="M5670 1354 c0 -3 11 -15 25 -26 20 -16 23 -23 14 -34 -6 -8 -20 -14
-30 -14 -27 0 -23 -13 6 -27 20 -9 25 -8 25 2 0 7 10 19 22 27 l23 15 -34 32
c-31 29 -51 39 -51 25z"></path>
<path d="M6530 1350 c0 -5 5 -10 10 -10 6 0 10 5 10 10 0 6 -4 10 -10 10 -5 0
-10 -4 -10 -10z"></path>
<path d="M5945 1331 c-3 -5 9 -11 27 -13 43 -4 46 -23 7 -43 l-31 -17 31 -19
c17 -10 31 -22 31 -27 0 -17 -25 -32 -52 -32 -15 0 -28 -4 -28 -9 0 -18 25
-18 57 0 29 16 32 17 46 1 41 -48 24 -74 -28 -43 -35 20 -35 20 -68 1 l-32
-20 28 0 c15 0 27 5 27 12 0 8 6 7 16 -4 20 -20 9 -45 -12 -27 -8 7 -14 7 -14
1 0 -5 7 -15 15 -22 13 -10 19 -9 36 6 11 10 30 19 42 19 17 0 23 7 25 31 2
24 9 32 35 40 27 7 32 14 30 37 -2 32 16 36 40 9 23 -25 21 -31 -9 -43 -26 -9
-26 -10 -9 -29 22 -24 12 -40 -26 -40 -31 0 -36 -9 -17 -28 9 -9 9 -15 1 -23
-8 -8 -13 -8 -17 0 -9 13 -26 15 -26 2 0 -13 27 -21 45 -15 8 4 15 12 15 20 0
7 12 21 26 30 18 13 24 24 21 40 -5 26 34 71 52 59 17 -10 13 -43 -6 -54 -14
-7 -15 -12 -4 -25 7 -8 10 -20 6 -26 -3 -5 -1 -10 6 -10 6 0 9 8 7 18 -3 11 1
30 8 43 20 37 17 47 -23 68 -66 35 -66 36 -52 59 19 30 -8 58 -45 48 -34 -8
-33 -22 1 -21 33 0 41 -20 13 -35 -22 -12 -42 0 -111 63 -29 27 -72 36 -84 18z
m139 -87 c20 -20 35 -41 33 -47 -2 -7 -19 -13 -39 -15 -33 -3 -37 0 -56 40
-16 32 -19 44 -9 50 21 14 33 9 71 -28z"></path>
<path d="M905 1293 c-22 -15 -35 -28 -29 -30 14 -5 84 36 84 48 0 14 -12 10
-55 -18z"></path>
<path d="M4240 1294 c0 -20 4 -25 16 -20 9 4 23 1 30 -5 10 -8 18 -8 27 0 10
8 17 7 25 -1 9 -9 15 -9 24 0 10 10 8 16 -6 30 -16 16 -18 16 -30 0 -17 -24
-43 -23 -58 2 -17 27 -28 25 -28 -6z"></path>
<path d="M4165 1297 c-4 -10 -5 -21 -1 -24 10 -10 18 4 13 24 -4 17 -4 17 -12
0z"></path>
<path d="M6590 1302 c0 -5 24 -18 53 -29 l52 -19 -1 -87 c-1 -110 17 -102 24
10 5 87 1 94 -58 111 -19 5 -43 13 -52 17 -10 4 -18 3 -18 -3z"></path>
<path d="M4385 1280 c-4 -6 8 -10 29 -10 20 0 36 5 36 10 0 6 -13 10 -29 10
-17 0 -33 -4 -36 -10z"></path>
<path d="M520 1256 c0 -8 5 -18 10 -21 6 -3 10 3 10 14 0 12 -4 21 -10 21 -5
0 -10 -6 -10 -14z"></path>
<path d="M5790 1255 c6 -8 9 -19 5 -24 -3 -7 0 -8 9 -5 19 7 20 16 4 32 -17
17 -33 15 -18 -3z"></path>
<path d="M5610 1254 c0 -3 12 -23 28 -45 27 -38 49 -43 76 -18 15 14 -2 23
-17 10 -20 -16 -41 -5 -54 29 -10 26 -33 42 -33 24z"></path>
<path d="M4180 1242 c0 -5 7 -15 15 -22 12 -10 18 -10 30 0 8 7 15 17 15 22 0
6 -7 5 -15 -2 -12 -10 -18 -10 -30 0 -8 7 -15 8 -15 2z"></path>
<path d="M5042 1183 c-21 -27 -56 -82 -76 -124 -38 -81 -41 -89 -27 -89 4 0
23 33 41 73 18 39 45 88 60 107 29 37 54 80 46 80 -2 0 -22 -21 -44 -47z"></path>
<path d="M5740 1193 c0 -5 12 -13 26 -20 22 -10 25 -10 20 3 -3 9 -6 18 -6 20
0 2 -9 4 -20 4 -11 0 -20 -3 -20 -7z"></path>
<path d="M4210 1151 c0 -5 7 -14 15 -21 16 -14 18 -10 9 14 -6 17 -24 22 -24
7z"></path>
<path d="M4270 1095 c0 -37 4 -65 10 -65 6 0 10 28 10 65 0 37 -4 65 -10 65
-6 0 -10 -28 -10 -65z"></path>
<path d="M6297 1153 c-4 -3 -2 -12 4 -20 9 -10 8 -17 -1 -28 -7 -8 -8 -15 -2
-15 21 0 34 28 22 49 -12 23 -14 24 -23 14z"></path>
<path d="M6537 1141 c3 -11 11 -25 18 -31 11 -9 12 -7 8 9 -3 11 -11 25 -18
31 -11 9 -12 7 -8 -9z"></path>
<path d="M755 1140 c-3 -5 5 -16 19 -25 19 -13 29 -14 45 -5 25 13 28 25 5 16
-9 -4 -27 0 -40 9 -13 8 -25 11 -29 5z"></path>
<path d="M5253 1143 c-18 -7 -16 -50 2 -57 18 -6 60 8 70 24 16 26 -33 49 -72
33z m32 -23 c3 -5 1 -10 -4 -10 -6 0 -11 5 -11 10 0 6 2 10 4 10 3 0 8 -4 11
-10z"></path>
<path d="M5660 1111 c0 -69 -44 -151 -82 -151 -20 0 -34 -23 -23 -40 10 -16
74 38 97 83 23 47 37 147 19 147 -6 0 -11 -16 -11 -39z"></path>
<path d="M5420 1115 c7 -8 16 -15 21 -15 5 0 9 7 9 15 0 9 -9 15 -21 15 -18 0
-19 -2 -9 -15z"></path>
<path d="M5487 1113 c-10 -9 -8 -43 2 -43 5 0 14 6 20 14 8 10 8 16 -2 25 -8
6 -17 8 -20 4z"></path>
<path d="M5750 1110 c-8 -5 -12 -11 -9 -14 7 -8 49 5 49 15 0 12 -21 11 -40
-1z"></path>
<path d="M5830 1115 c-1 -5 -1 -20 0 -32 1 -12 -4 -32 -10 -44 -9 -17 -9 -20
1 -17 25 8 33 34 22 69 -6 19 -12 30 -13 24z"></path>
<path d="M5705 1100 c4 -6 11 -8 16 -5 14 9 11 15 -7 15 -8 0 -12 -5 -9 -10z"></path>
<path d="M870 1095 c0 -9 44 -23 54 -18 4 3 2 9 -5 14 -15 10 -49 12 -49 4z"></path>
<path d="M4543 1069 c-3 -16 -10 -32 -14 -35 -5 -3 -9 -20 -8 -37 0 -18 3 -25
6 -17 2 8 7 22 10 30 4 12 7 12 18 -4 13 -17 15 -18 21 -2 4 11 13 15 26 10
15 -4 19 -2 16 7 -3 8 -16 13 -32 11 -22 -2 -26 1 -26 23 0 27 9 32 28 13 9
-9 15 -9 23 -1 6 6 18 9 25 6 9 -3 12 0 9 9 -4 10 -21 15 -51 16 -42 0 -45 -2
-51 -29z"></path>
<path d="M5372 1063 c3 -24 -1 -28 -24 -31 -37 -4 -36 -22 1 -22 36 0 54 21
45 54 -8 35 -26 33 -22 -1z"></path>
<path d="M5535 1070 c-8 -13 4 -32 16 -25 12 8 12 35 0 35 -6 0 -13 -4 -16
-10z"></path>
<path d="M5124 1035 c-16 -25 -16 -27 3 -53 34 -46 113 -38 113 12 0 29 -25
52 -67 61 -27 5 -34 2 -49 -20z m76 -11 c11 -12 11 -17 -1 -29 -26 -25 -78 13
-52 38 11 12 40 7 53 -9z"></path>
<path d="M4810 1042 c0 -11 73 -72 85 -72 11 0 -25 38 -57 62 -16 11 -28 15
-28 10z"></path>
<path d="M5544 1015 c-15 -23 -10 -56 6 -38 9 10 22 63 15 63 -2 0 -12 -11
-21 -25z"></path>
<path d="M6290 1020 c0 -5 5 -10 10 -10 6 0 10 5 10 10 0 6 -4 10 -10 10 -5 0
-10 -4 -10 -10z"></path>
<path d="M6700 1023 c0 -5 14 -16 31 -26 27 -15 31 -22 27 -52 -4 -36 5 -47
16 -19 3 9 6 29 6 45 0 25 -6 33 -35 45 -39 16 -45 17 -45 7z"></path>
<path d="M4285 978 c14 -65 87 -272 113 -321 50 -93 57 -103 112 -176 30 -40
56 -68 58 -62 2 6 -28 52 -66 103 -77 104 -124 204 -174 375 -18 62 -37 113
-41 113 -5 0 -6 -15 -2 -32z"></path>
<path d="M5320 956 c12 -14 27 -23 31 -20 14 8 11 11 -23 28 l-32 16 24 -24z"></path>
<path d="M5889 963 c-13 -15 -12 -15 9 -4 23 12 28 21 13 21 -5 0 -15 -7 -22
-17z"></path>
<path d="M4552 941 c-15 -25 -4 -28 13 -4 13 17 14 17 32 1 15 -13 22 -15 31
-6 8 8 15 8 27 -2 13 -11 14 -10 9 3 -3 9 -16 16 -27 16 -12 0 -33 3 -47 6
-19 5 -28 1 -38 -14z"></path>
<path d="M1556 941 c-35 -5 -38 -7 -23 -20 12 -9 17 -10 17 -2 0 7 8 11 18 10
33 -3 52 1 52 11 0 11 -3 11 -64 1z"></path>
<path d="M1460 930 c0 -5 5 -10 10 -10 6 0 10 5 10 10 0 6 -4 10 -10 10 -5 0
-10 -4 -10 -10z"></path>
<path d="M5308 898 c-8 -21 2 -38 22 -38 19 0 34 25 24 41 -8 13 -41 11 -46
-3z"></path>
<path d="M640 875 c0 -8 5 -15 10 -15 6 0 10 7 10 15 0 8 -4 15 -10 15 -5 0
-10 -7 -10 -15z"></path>
<path d="M700 881 c0 -6 5 -13 10 -16 6 -3 10 1 10 9 0 9 -4 16 -10 16 -5 0
-10 -4 -10 -9z"></path>
<path d="M760 875 c0 -15 65 -117 77 -122 28 -11 25 7 -6 43 -18 20 -37 47
-43 60 -10 21 -28 33 -28 19z"></path>
<path d="M6737 874 c-4 -4 -7 -14 -7 -23 0 -11 3 -12 11 -4 6 6 10 16 7 23 -2
6 -7 8 -11 4z"></path>
<path d="M4600 844 c0 -14 3 -14 15 -4 12 10 18 10 29 1 8 -7 17 -8 20 -3 8
14 -4 22 -36 22 -19 0 -28 -5 -28 -16z"></path>
<path d="M5380 841 c0 -5 7 -12 16 -15 15 -6 14 -17 -3 -63 -3 -7 -1 -13 4
-13 11 0 44 86 36 94 -10 9 -53 7 -53 -3z"></path>
<path d="M653 799 c5 -39 13 -57 20 -48 8 9 -6 89 -15 89 -7 0 -8 -16 -5 -41z"></path>
<path d="M880 820 c0 -11 5 -20 10 -20 6 0 10 9 10 20 0 11 -4 20 -10 20 -5 0
-10 -9 -10 -20z"></path>
<path d="M6675 809 c-11 -17 1 -21 15 -4 8 9 8 15 2 15 -6 0 -14 -5 -17 -11z"></path>
<path d="M480 800 c0 -5 5 -10 10 -10 6 0 10 5 10 10 0 6 -4 10 -10 10 -5 0
-10 -4 -10 -10z"></path>
<path d="M750 780 c0 -11 5 -20 10 -20 6 0 10 9 10 20 0 11 -4 20 -10 20 -5 0
-10 -9 -10 -20z"></path>
<path d="M4782 791 c-52 -10 -37 -25 26 -26 l57 0 9 -52 c5 -29 12 -53 15 -53
9 0 6 114 -3 129 -8 12 -48 13 -104 2z"></path>
<path d="M6731 767 c-17 -43 -13 -75 9 -87 23 -12 27 -45 6 -53 -8 -3 -21 -25
-27 -48 -11 -36 -11 -43 4 -54 9 -7 17 -24 17 -37 0 -30 22 -51 46 -46 27 5
28 26 2 30 -24 3 -28 25 -13 62 7 15 5 17 -13 12 -25 -8 -32 2 -22 31 7 16 16
21 44 20 22 -1 36 -6 36 -13 0 -17 17 -27 31 -19 6 5 4 11 -7 19 -12 9 -15 20
-10 39 8 32 -8 36 -24 7 -21 -39 -33 -22 -25 36 l7 56 -25 -17 c-31 -20 -40
-8 -26 34 14 40 5 65 -10 28z"></path>
<path d="M5347 753 c-4 -3 -7 -11 -7 -17 0 -6 5 -5 12 2 6 6 9 14 7 17 -3 3
-9 2 -12 -2z"></path>
<path d="M4645 741 c-6 -11 9 -23 19 -14 9 9 7 23 -3 23 -6 0 -12 -4 -16 -9z"></path>
<path d="M5463 702 c-44 -16 -62 -40 -20 -26 12 4 33 8 47 8 24 1 25 -2 28
-61 2 -35 7 -63 13 -63 6 0 9 31 7 77 -3 88 -7 92 -75 65z"></path>
<path d="M6619 705 c-1 -6 -1 -18 0 -27 1 -10 -18 -32 -48 -54 -28 -20 -51
-37 -51 -39 0 -8 39 9 75 34 41 27 56 64 36 84 -6 6 -12 7 -12 2z"></path>
<path d="M6414 665 c-9 -14 -14 -28 -11 -32 7 -6 46 36 47 50 0 16 -20 6 -36
-18z"></path>
<path d="M5310 664 c0 -8 5 -12 10 -9 6 3 10 10 10 16 0 5 -4 9 -10 9 -5 0
-10 -7 -10 -16z"></path>
<path d="M4816 646 c3 -8 16 -22 29 -30 48 -32 43 -10 -5 24 -21 15 -28 17
-24 6z"></path>
<path d="M4980 625 c-45 -17 -77 -18 -83 -2 -3 6 -6 1 -6 -13 0 -42 48 -85
148 -133 84 -40 97 -44 115 -32 17 11 130 45 149 45 3 0 8 -13 12 -30 3 -16
15 -41 27 -55 l20 -26 -44 7 c-23 4 -65 15 -92 26 -49 19 -67 19 -44 1 27 -21
100 -43 143 -43 24 0 55 -5 69 -11 23 -11 30 -7 85 40 37 32 62 48 66 41 4 -6
39 -32 79 -57 39 -25 80 -54 92 -64 22 -21 54 -17 54 6 0 14 32 73 63 115 l17
25 81 -28 c45 -15 83 -26 85 -24 3 2 -22 20 -54 40 -31 19 -66 45 -76 56 -44
48 -95 11 -123 -91 -9 -32 -19 -58 -23 -58 -4 0 -15 9 -26 21 -10 12 -41 32
-69 46 -27 14 -60 35 -73 47 l-24 21 -18 -26 c-11 -14 -38 -39 -61 -55 l-41
-28 -29 34 c-15 19 -32 51 -36 70 -11 44 -28 44 -141 2 l-83 -31 -19 32 c-17
27 -43 90 -56 135 -4 15 -39 14 -84 -3z m78 -85 c17 -33 26 -60 21 -60 -19 0
-124 58 -143 79 -20 22 -18 24 29 34 54 12 61 8 93 -53z"></path>
<path d="M5588 543 c-41 -10 -13 -18 52 -15 47 3 75 0 85 -8 20 -17 32 -5 15
15 -12 15 -108 20 -152 8z"></path>
<path d="M5937 543 c-15 -14 -5 -21 33 -25 31 -3 37 -1 27 8 -16 16 -52 26
-60 17z"></path>
<path d="M2303 528 c-21 -27 -23 -51 -8 -75 13 -19 23 -23 48 -21 26 2 33 8
35 30 2 19 -5 36 -22 53 -28 28 -39 31 -53 13z m51 -41 c8 -12 7 -20 -2 -29
-16 -16 -47 13 -38 37 7 19 25 16 40 -8z"></path>
<path d="M6645 483 c-198 -165 -423 -273 -652 -313 -40 -7 -73 -17 -73 -22 0
-12 16 -10 115 12 237 52 431 148 610 303 46 40 46 58 0 20z"></path>
<path d="M6391 476 c-19 -20 -21 -26 -9 -26 19 0 41 25 36 40 -2 6 -14 0 -27
-14z"></path>
<path d="M3835 460 c-16 -16 -26 -32 -24 -35 3 -3 18 9 34 25 16 16 26 32 24
35 -3 3 -18 -9 -34 -25z"></path>
<path d="M6183 483 c-14 -5 -18 -23 -5 -23 5 0 17 7 28 15 14 11 15 14 4 14
-8 0 -21 -3 -27 -6z"></path>
<path d="M4370 474 c0 -5 20 -30 45 -54 25 -24 45 -40 45 -34 0 5 -20 30 -45
54 -25 24 -45 40 -45 34z"></path>
<path d="M218 437 c-34 -27 -78 -147 -78 -212 l0 -45 41 0 c23 0 59 -5 80 -11
33 -10 41 -9 75 12 21 13 60 33 87 44 l49 20 4 77 c4 89 7 85 -98 118 -83 26
-126 25 -160 -3z m165 -52 c52 -19 52 -19 61 -82 l6 -43 -39 0 c-22 0 -52 -5
-66 -10 -26 -10 -27 -9 -21 15 4 14 2 25 -3 25 -11 0 -21 -24 -21 -50 0 -10
-5 -22 -11 -26 -9 -5 -10 6 -7 39 6 53 -11 79 -37 57 -8 -7 -15 -17 -15 -22 0
-6 7 -5 15 2 22 18 26 9 17 -36 -8 -38 -9 -39 -56 -42 l-49 -3 5 50 c3 27 14
62 24 77 10 15 24 36 31 48 22 38 61 38 166 1z"></path>
<path d="M6679 455 c-7 -10 -12 -49 -10 -72 1 -15 41 -18 41 -3 0 6 -4 10 -9
10 -6 0 -11 17 -13 38 -2 20 -6 33 -9 27z"></path>
<path d="M3866 422 c-9 -18 -15 -39 -13 -45 2 -7 12 3 21 21 9 18 15 39 13 45
-2 7 -12 -3 -21 -21z"></path>
<path d="M6325 440 c-3 -5 1 -10 9 -10 8 0 18 5 21 10 3 6 -1 10 -9 10 -8 0
-18 -4 -21 -10z"></path>
<path d="M5905 375 c-22 -14 -52 -25 -67 -25 -26 0 -38 -13 -20 -23 14 -8 147
40 147 53 0 22 -18 21 -60 -5z"></path>
<path d="M4490 380 c0 -5 14 -10 30 -10 17 0 30 5 30 10 0 6 -13 10 -30 10
-16 0 -30 -4 -30 -10z"></path>
<path d="M6594 355 c-9 -13 -14 -32 -10 -40 7 -20 60 -19 77 2 15 18 16 18
-36 -3 -18 -7 -21 26 -4 43 7 7 7 13 0 17 -5 4 -18 -5 -27 -19z"></path>
<path d="M5534 343 c-10 -16 -16 -16 -43 -6 -18 6 -31 7 -31 2 0 -13 36 -26
93 -34 32 -5 47 -4 47 4 0 6 -11 11 -25 11 -14 0 -25 5 -25 10 0 6 7 10 15 10
8 0 15 5 15 10 0 17 -34 11 -46 -7z"></path>
<path d="M2262 328 c-16 -16 -15 -33 4 -48 22 -19 54 12 38 37 -14 22 -27 26
-42 11z m28 -24 c0 -8 -5 -12 -10 -9 -6 4 -8 11 -5 16 9 14 15 11 15 -7z"></path>
<path d="M5650 310 c-8 -5 -11 -12 -8 -15 4 -4 17 0 30 9 24 17 5 23 -22 6z"></path>
<path d="M2524 269 c-10 -17 13 -36 27 -22 12 12 4 33 -11 33 -5 0 -12 -5 -16
-11z"></path>
<path d="M550 232 c-19 -15 -25 -33 -31 -83 -8 -83 3 -95 92 -104 60 -6 69 -5
88 14 12 12 21 30 21 41 0 11 11 27 25 36 14 9 25 20 25 26 0 19 -52 56 -93
66 -89 23 -103 24 -127 4z m124 -62 c31 -12 33 -38 6 -68 -34 -36 -140 -26
-140 14 0 8 7 29 16 46 14 28 19 30 54 24 21 -3 50 -10 64 -16z"></path>
<path d="M620 129 c0 -5 5 -7 10 -4 6 3 10 8 10 11 0 2 -4 4 -10 4 -5 0 -10
-5 -10 -11z"></path>
<path d="M5610 150 c0 -5 23 -10 50 -10 28 0 50 5 50 10 0 6 -22 10 -50 10
-27 0 -50 -4 -50 -10z"></path>
<path d="M5750 140 c0 -6 32 -10 75 -10 43 0 75 4 75 10 0 6 -32 10 -75 10
-43 0 -75 -4 -75 -10z"></path>
</g>
</svg>